<svg width="761" height="468" viewBox="0 0 761 468" fill="none" xmlns="http://www.w3.org/2000/svg">
<g clip-path="url(#clip0_36533_449329)">
<g opacity="0.5">
<path d="M89.4688 332.724L89.4688 249.487L173.189 249.487L173.189 332.724L256.9 332.724L256.9 415.961L173.189 415.961L89.4688 332.724Z" fill="url(#paint0_linear_36533_449329)"/>
<path d="M5.75391 498.972L5.75391 415.959L89.4739 415.959L89.4739 498.972L173.185 498.972L173.185 581.984L89.4739 581.984L5.75391 498.972Z" fill="url(#paint1_linear_36533_449329)"/>
<path d="M424.786 332.496L508.502 332.496L508.502 415.737L424.786 415.737L424.786 498.97L341.07 498.97L341.07 415.737L424.786 332.496Z" fill="url(#paint2_linear_36533_449329)"/>
<path d="M340.843 415.961H256.901V332.72H340.843V249.487H424.785V332.72L340.843 415.961Z" fill="url(#paint3_linear_36533_449329)"/>
<path d="M424.777 83.2395V0.00254822L340.831 0.00254816V83.2395L256.893 83.2395V166.477L340.831 166.477L424.777 83.2395Z" fill="url(#paint4_linear_36533_449329)"/>
<mask id="mask0_36533_449329" style="mask-type:luminance" maskUnits="userSpaceOnUse" x="89" y="415" width="169" height="167">
<path d="M89.533 498.854L89.533 581.927L173.313 581.927L173.313 498.854L257.094 498.854L257.094 415.773L173.313 415.773L89.533 498.854Z" fill="white"/>
</mask>
<g mask="url(#mask0_36533_449329)">
<path d="M147.711 453.082L147.711 458.216" stroke="#666666" stroke-width="1.75511" stroke-miterlimit="10"/>
<path d="M150.301 455.648L145.123 455.648" stroke="#666666" stroke-width="1.75511" stroke-miterlimit="10"/>
<path d="M164.809 436.113L164.809 441.247" stroke="#666666" stroke-width="1.75511" stroke-miterlimit="10"/>
<path d="M167.398 438.68L162.221 438.68" stroke="#666666" stroke-width="1.75511" stroke-miterlimit="10"/>
<path d="M164.809 453.082L164.809 458.216" stroke="#666666" stroke-width="1.75511" stroke-miterlimit="10"/>
<path d="M167.398 455.648L162.221 455.648" stroke="#666666" stroke-width="1.75511" stroke-miterlimit="10"/>
<path d="M181.902 419.156L181.902 424.29" stroke="#666666" stroke-width="1.75511" stroke-miterlimit="10"/>
<path d="M184.492 421.723L179.315 421.723" stroke="#666666" stroke-width="1.75511" stroke-miterlimit="10"/>
<path d="M181.902 436.113L181.902 441.247" stroke="#666666" stroke-width="1.75511" stroke-miterlimit="10"/>
<path d="M184.492 438.68L179.315 438.68" stroke="#666666" stroke-width="1.75511" stroke-miterlimit="10"/>
<path d="M181.902 453.082L181.902 458.216" stroke="#666666" stroke-width="1.75511" stroke-miterlimit="10"/>
<path d="M184.492 455.648L179.315 455.648" stroke="#666666" stroke-width="1.75511" stroke-miterlimit="10"/>
<path d="M199 419.156L199 424.29" stroke="#666666" stroke-width="1.75511" stroke-miterlimit="10"/>
<path d="M201.59 421.723L196.412 421.723" stroke="#666666" stroke-width="1.75511" stroke-miterlimit="10"/>
<path d="M199 436.113L199 441.247" stroke="#666666" stroke-width="1.75511" stroke-miterlimit="10"/>
<path d="M201.59 438.68L196.412 438.68" stroke="#666666" stroke-width="1.75511" stroke-miterlimit="10"/>
<path d="M199 453.082L199 458.216" stroke="#666666" stroke-width="1.75511" stroke-miterlimit="10"/>
<path d="M201.59 455.648L196.412 455.648" stroke="#666666" stroke-width="1.75511" stroke-miterlimit="10"/>
<path d="M216.098 419.156L216.098 424.29" stroke="#666666" stroke-width="1.75511" stroke-miterlimit="10"/>
<path d="M218.688 421.723L213.51 421.723" stroke="#666666" stroke-width="1.75511" stroke-miterlimit="10"/>
<path d="M216.098 436.113L216.098 441.247" stroke="#666666" stroke-width="1.75511" stroke-miterlimit="10"/>
<path d="M218.688 438.68L213.51 438.68" stroke="#666666" stroke-width="1.75511" stroke-miterlimit="10"/>
<path d="M216.098 453.082L216.098 458.216" stroke="#666666" stroke-width="1.75511" stroke-miterlimit="10"/>
<path d="M218.688 455.648L213.51 455.648" stroke="#666666" stroke-width="1.75511" stroke-miterlimit="10"/>
<path d="M233.207 419.156L233.207 424.29" stroke="#666666" stroke-width="1.75511" stroke-miterlimit="10"/>
<path d="M235.797 421.723L230.62 421.723" stroke="#666666" stroke-width="1.75511" stroke-miterlimit="10"/>
<path d="M233.207 436.113L233.207 441.247" stroke="#666666" stroke-width="1.75511" stroke-miterlimit="10"/>
<path d="M235.797 438.68L230.62 438.68" stroke="#666666" stroke-width="1.75511" stroke-miterlimit="10"/>
<path d="M233.207 453.082L233.207 458.216" stroke="#666666" stroke-width="1.75511" stroke-miterlimit="10"/>
<path d="M235.797 455.648L230.62 455.648" stroke="#666666" stroke-width="1.75511" stroke-miterlimit="10"/>
<path d="M250.309 419.156L250.309 424.29" stroke="#666666" stroke-width="1.75511" stroke-miterlimit="10"/>
<path d="M252.898 421.723L247.721 421.723" stroke="#666666" stroke-width="1.75511" stroke-miterlimit="10"/>
<path d="M250.309 436.113L250.309 441.247" stroke="#666666" stroke-width="1.75511" stroke-miterlimit="10"/>
<path d="M252.898 438.68L247.721 438.68" stroke="#666666" stroke-width="1.75511" stroke-miterlimit="10"/>
<path d="M250.309 453.078L250.309 458.212" stroke="#666666" stroke-width="1.75511" stroke-miterlimit="10"/>
<path d="M252.898 455.645L247.721 455.645" stroke="#666666" stroke-width="1.75511" stroke-miterlimit="10"/>
</g>
<path d="M173.184 415.733L173.184 498.97L89.4636 498.97L89.4636 415.733L5.75203 415.733L5.75203 332.496L89.4636 332.496L173.184 415.733Z" fill="url(#paint5_linear_36533_449329)"/>
<path d="M341.07 249.485L341.07 332.498L257.124 332.498L257.124 249.485L173.186 249.485L173.186 166.473L257.124 166.473L341.07 249.485Z" fill="url(#paint6_linear_36533_449329)"/>
<mask id="mask1_36533_449329" style="mask-type:luminance" maskUnits="userSpaceOnUse" x="340" y="83" width="169" height="167">
<path d="M340.877 166.541L340.877 249.617L424.661 249.617L424.661 166.541H484.662H508.438L508.438 83.4638H484.662H424.661L340.877 166.541Z" fill="white"/>
</mask>
<g mask="url(#mask1_36533_449329)">
<path d="M360.756 89.6875C361.25 89.6875 361.652 89.2887 361.652 88.7986C361.652 88.3085 361.25 87.9097 360.756 87.9097C360.262 87.9097 359.86 88.3085 359.86 88.7986C359.86 89.2887 360.262 89.6875 360.756 89.6875Z" fill="#666666"/>
<path d="M360.756 103.828C361.25 103.828 361.652 103.429 361.652 102.939C361.652 102.449 361.25 102.05 360.756 102.05C360.262 102.05 359.86 102.449 359.86 102.939C359.86 103.429 360.262 103.828 360.756 103.828Z" fill="#666666"/>
<path d="M360.756 117.957C361.25 117.957 361.652 117.558 361.652 117.068C361.652 116.578 361.25 116.179 360.756 116.179C360.262 116.179 359.86 116.578 359.86 117.068C359.86 117.558 360.262 117.957 360.756 117.957Z" fill="#666666"/>
<path d="M360.756 132.09C361.25 132.09 361.652 131.691 361.652 131.201C361.652 130.711 361.25 130.312 360.756 130.312C360.262 130.312 359.86 130.711 359.86 131.201C359.86 131.691 360.262 132.09 360.756 132.09Z" fill="#666666"/>
<path d="M360.756 146.234C361.25 146.234 361.652 145.836 361.652 145.346C361.652 144.855 361.25 144.457 360.756 144.457C360.262 144.457 359.86 144.855 359.86 145.346C359.86 145.836 360.262 146.234 360.756 146.234Z" fill="#666666"/>
<path d="M360.756 160.363C361.25 160.363 361.652 159.965 361.652 159.474C361.652 158.984 361.25 158.586 360.756 158.586C360.262 158.586 359.86 158.984 359.86 159.474C359.86 159.965 360.262 160.363 360.756 160.363Z" fill="#666666"/>
<path d="M360.756 174.5C361.25 174.5 361.652 174.101 361.652 173.611C361.652 173.121 361.25 172.722 360.756 172.722C360.262 172.722 359.86 173.121 359.86 173.611C359.86 174.101 360.262 174.5 360.756 174.5Z" fill="#666666"/>
<path d="M360.756 188.637C361.25 188.637 361.652 188.238 361.652 187.748C361.652 187.258 361.25 186.859 360.756 186.859C360.262 186.859 359.86 187.258 359.86 187.748C359.86 188.238 360.262 188.637 360.756 188.637Z" fill="#666666"/>
<path d="M360.756 202.77C361.25 202.77 361.652 202.371 361.652 201.881C361.652 201.391 361.25 200.992 360.756 200.992C360.262 200.992 359.86 201.391 359.86 201.881C359.86 202.371 360.262 202.77 360.756 202.77Z" fill="#666666"/>
<path d="M360.756 216.906C361.25 216.906 361.652 216.507 361.652 216.017C361.652 215.527 361.25 215.128 360.756 215.128C360.262 215.128 359.86 215.527 359.86 216.017C359.86 216.507 360.262 216.906 360.756 216.906Z" fill="#666666"/>
<path d="M360.756 231.043C361.25 231.043 361.652 230.644 361.652 230.154C361.652 229.664 361.25 229.265 360.756 229.265C360.262 229.265 359.86 229.664 359.86 230.154C359.86 230.644 360.262 231.043 360.756 231.043Z" fill="#666666"/>
<path d="M360.756 245.176C361.25 245.176 361.652 244.777 361.652 244.287C361.652 243.797 361.25 243.398 360.756 243.398C360.262 243.398 359.86 243.797 359.86 244.287C359.86 244.777 360.262 245.176 360.756 245.176Z" fill="#666666"/>
<path d="M375.902 88.7986C375.902 88.3085 375.5 87.9097 375.006 87.9097C374.512 87.9097 374.11 88.3085 374.11 88.7986C374.11 89.2887 374.512 89.6875 375.006 89.6875C375.5 89.6875 375.902 89.2887 375.902 88.7986Z" fill="#666666"/>
<path d="M390.16 88.7986C390.16 88.3085 389.758 87.9097 389.264 87.9097C388.769 87.9097 388.367 88.3085 388.367 88.7986C388.367 89.2887 388.769 89.6875 389.264 89.6875C389.758 89.6875 390.16 89.2887 390.16 88.7986Z" fill="#666666"/>
<path d="M404.422 88.7986C404.422 88.3085 404.02 87.9097 403.525 87.9097C403.031 87.9097 402.629 88.3085 402.629 88.7986C402.629 89.2887 403.031 89.6875 403.525 89.6875C404.02 89.6875 404.422 89.2887 404.422 88.7986Z" fill="#666666"/>
<path d="M418.672 88.7986C418.672 88.3085 418.27 87.9097 417.775 87.9097C417.281 87.9097 416.879 88.3085 416.879 88.7986C416.879 89.2887 417.281 89.6875 417.775 89.6875C418.27 89.6875 418.672 89.2887 418.672 88.7986Z" fill="#666666"/>
<path d="M432.93 88.7986C432.93 88.3085 432.528 87.9097 432.033 87.9097C431.539 87.9097 431.137 88.3085 431.137 88.7986C431.137 89.2887 431.539 89.6875 432.033 89.6875C432.528 89.6875 432.93 89.2887 432.93 88.7986Z" fill="#666666"/>
<path d="M447.188 88.7986C447.188 88.3085 446.785 87.9097 446.291 87.9097C445.797 87.9097 445.395 88.3085 445.395 88.7986C445.395 89.2887 445.797 89.6875 446.291 89.6875C446.785 89.6875 447.188 89.2887 447.188 88.7986Z" fill="#666666"/>
<path d="M461.438 88.7986C461.438 88.3085 461.035 87.9097 460.541 87.9097C460.047 87.9097 459.645 88.3085 459.645 88.7986C459.645 89.2887 460.047 89.6875 460.541 89.6875C461.035 89.6875 461.438 89.2887 461.438 88.7986Z" fill="#666666"/>
<path d="M475.699 88.7986C475.699 88.3085 475.297 87.9097 474.803 87.9097C474.309 87.9097 473.906 88.3085 473.906 88.7986C473.906 89.2887 474.309 89.6875 474.803 89.6875C475.297 89.6875 475.699 89.2887 475.699 88.7986Z" fill="#666666"/>
<path d="M489.957 88.7986C489.957 88.3085 489.555 87.9097 489.061 87.9097C488.566 87.9097 488.164 88.3085 488.164 88.7986C488.164 89.2887 488.566 89.6875 489.061 89.6875C489.555 89.6875 489.957 89.2887 489.957 88.7986Z" fill="#666666"/>
<path d="M504.207 88.7986C504.207 88.3085 503.805 87.9097 503.311 87.9097C502.816 87.9097 502.414 88.3085 502.414 88.7986C502.414 89.2887 502.816 89.6875 503.311 89.6875C503.805 89.6875 504.207 89.2887 504.207 88.7986Z" fill="#666666"/>
<path d="M375.902 102.928C375.902 102.437 375.5 102.039 375.006 102.039C374.512 102.039 374.11 102.437 374.11 102.928C374.11 103.418 374.512 103.816 375.006 103.816C375.5 103.816 375.902 103.418 375.902 102.928Z" fill="#666666"/>
<path d="M390.16 102.928C390.16 102.437 389.758 102.039 389.264 102.039C388.769 102.039 388.367 102.437 388.367 102.928C388.367 103.418 388.769 103.816 389.264 103.816C389.758 103.816 390.16 103.418 390.16 102.928Z" fill="#666666"/>
<path d="M404.422 102.928C404.422 102.437 404.02 102.039 403.525 102.039C403.031 102.039 402.629 102.437 402.629 102.928C402.629 103.418 403.031 103.816 403.525 103.816C404.02 103.816 404.422 103.418 404.422 102.928Z" fill="#666666"/>
<path d="M418.672 102.928C418.672 102.437 418.27 102.039 417.775 102.039C417.281 102.039 416.879 102.437 416.879 102.928C416.879 103.418 417.281 103.816 417.775 103.816C418.27 103.816 418.672 103.418 418.672 102.928Z" fill="#666666"/>
<path d="M432.93 102.928C432.93 102.437 432.528 102.039 432.033 102.039C431.539 102.039 431.137 102.437 431.137 102.928C431.137 103.418 431.539 103.816 432.033 103.816C432.528 103.816 432.93 103.418 432.93 102.928Z" fill="#666666"/>
<path d="M447.188 102.928C447.188 102.437 446.785 102.039 446.291 102.039C445.797 102.039 445.395 102.437 445.395 102.928C445.395 103.418 445.797 103.816 446.291 103.816C446.785 103.816 447.188 103.418 447.188 102.928Z" fill="#666666"/>
<path d="M461.438 102.928C461.438 102.437 461.035 102.039 460.541 102.039C460.047 102.039 459.645 102.437 459.645 102.928C459.645 103.418 460.047 103.816 460.541 103.816C461.035 103.816 461.438 103.418 461.438 102.928Z" fill="#666666"/>
<path d="M475.699 102.928C475.699 102.437 475.297 102.039 474.803 102.039C474.309 102.039 473.906 102.437 473.906 102.928C473.906 103.418 474.309 103.816 474.803 103.816C475.297 103.816 475.699 103.418 475.699 102.928Z" fill="#666666"/>
<path d="M489.957 102.928C489.957 102.437 489.555 102.039 489.061 102.039C488.566 102.039 488.164 102.437 488.164 102.928C488.164 103.418 488.566 103.816 489.061 103.816C489.555 103.816 489.957 103.418 489.957 102.928Z" fill="#666666"/>
<path d="M504.207 102.928C504.207 102.437 503.805 102.039 503.311 102.039C502.816 102.039 502.414 102.437 502.414 102.928C502.414 103.418 502.816 103.816 503.311 103.816C503.805 103.816 504.207 103.418 504.207 102.928Z" fill="#666666"/>
<path d="M375.902 117.068C375.902 116.578 375.5 116.179 375.006 116.179C374.512 116.179 374.11 116.578 374.11 117.068C374.11 117.558 374.512 117.957 375.006 117.957C375.5 117.957 375.902 117.558 375.902 117.068Z" fill="#666666"/>
<path d="M390.16 117.068C390.16 116.578 389.758 116.179 389.264 116.179C388.769 116.179 388.367 116.578 388.367 117.068C388.367 117.558 388.769 117.957 389.264 117.957C389.758 117.957 390.16 117.558 390.16 117.068Z" fill="#666666"/>
<path d="M404.422 117.068C404.422 116.578 404.02 116.179 403.525 116.179C403.031 116.179 402.629 116.578 402.629 117.068C402.629 117.558 403.031 117.957 403.525 117.957C404.02 117.957 404.422 117.558 404.422 117.068Z" fill="#666666"/>
<path d="M418.672 117.068C418.672 116.578 418.27 116.179 417.775 116.179C417.281 116.179 416.879 116.578 416.879 117.068C416.879 117.558 417.281 117.957 417.775 117.957C418.27 117.957 418.672 117.558 418.672 117.068Z" fill="#666666"/>
<path d="M432.93 117.068C432.93 116.578 432.528 116.179 432.033 116.179C431.539 116.179 431.137 116.578 431.137 117.068C431.137 117.558 431.539 117.957 432.033 117.957C432.528 117.957 432.93 117.558 432.93 117.068Z" fill="#666666"/>
<path d="M447.188 117.068C447.188 116.578 446.785 116.179 446.291 116.179C445.797 116.179 445.395 116.578 445.395 117.068C445.395 117.558 445.797 117.957 446.291 117.957C446.785 117.957 447.188 117.558 447.188 117.068Z" fill="#666666"/>
<path d="M461.438 117.068C461.438 116.578 461.035 116.179 460.541 116.179C460.047 116.179 459.645 116.578 459.645 117.068C459.645 117.558 460.047 117.957 460.541 117.957C461.035 117.957 461.438 117.558 461.438 117.068Z" fill="#666666"/>
<path d="M475.699 117.068C475.699 116.578 475.297 116.179 474.803 116.179C474.309 116.179 473.906 116.578 473.906 117.068C473.906 117.558 474.309 117.957 474.803 117.957C475.297 117.957 475.699 117.558 475.699 117.068Z" fill="#666666"/>
<path d="M489.957 117.068C489.957 116.578 489.555 116.179 489.061 116.179C488.566 116.179 488.164 116.578 488.164 117.068C488.164 117.558 488.566 117.957 489.061 117.957C489.555 117.957 489.957 117.558 489.957 117.068Z" fill="#666666"/>
<path d="M504.207 117.068C504.207 116.578 503.805 116.179 503.311 116.179C502.816 116.179 502.414 116.578 502.414 117.068C502.414 117.558 502.816 117.957 503.311 117.957C503.805 117.957 504.207 117.558 504.207 117.068Z" fill="#666666"/>
<path d="M375.902 131.201C375.902 130.711 375.5 130.312 375.006 130.312C374.512 130.312 374.11 130.711 374.11 131.201C374.11 131.691 374.512 132.09 375.006 132.09C375.5 132.09 375.902 131.691 375.902 131.201Z" fill="#666666"/>
<path d="M390.16 131.201C390.16 130.711 389.758 130.312 389.264 130.312C388.769 130.312 388.367 130.711 388.367 131.201C388.367 131.691 388.769 132.09 389.264 132.09C389.758 132.09 390.16 131.691 390.16 131.201Z" fill="#666666"/>
<path d="M404.422 131.205C404.422 130.715 404.02 130.316 403.525 130.316C403.031 130.316 402.629 130.715 402.629 131.205C402.629 131.695 403.031 132.094 403.525 132.094C404.02 132.094 404.422 131.695 404.422 131.205Z" fill="#666666"/>
<path d="M418.672 131.205C418.672 130.715 418.27 130.316 417.775 130.316C417.281 130.316 416.879 130.715 416.879 131.205C416.879 131.695 417.281 132.094 417.775 132.094C418.27 132.094 418.672 131.695 418.672 131.205Z" fill="#666666"/>
<path d="M432.93 131.205C432.93 130.715 432.528 130.316 432.033 130.316C431.539 130.316 431.137 130.715 431.137 131.205C431.137 131.695 431.539 132.094 432.033 132.094C432.528 132.094 432.93 131.695 432.93 131.205Z" fill="#666666"/>
<path d="M447.188 131.205C447.188 130.715 446.785 130.316 446.291 130.316C445.797 130.316 445.395 130.715 445.395 131.205C445.395 131.695 445.797 132.094 446.291 132.094C446.785 132.094 447.188 131.695 447.188 131.205Z" fill="#666666"/>
<path d="M461.438 131.205C461.438 130.715 461.035 130.316 460.541 130.316C460.047 130.316 459.645 130.715 459.645 131.205C459.645 131.695 460.047 132.094 460.541 132.094C461.035 132.094 461.438 131.695 461.438 131.205Z" fill="#666666"/>
<path d="M475.699 131.205C475.699 130.715 475.297 130.316 474.803 130.316C474.309 130.316 473.906 130.715 473.906 131.205C473.906 131.695 474.309 132.094 474.803 132.094C475.297 132.094 475.699 131.695 475.699 131.205Z" fill="#666666"/>
<path d="M489.957 131.201C489.957 130.711 489.555 130.312 489.061 130.312C488.566 130.312 488.164 130.711 488.164 131.201C488.164 131.691 488.566 132.09 489.061 132.09C489.555 132.09 489.957 131.691 489.957 131.201Z" fill="#666666"/>
<path d="M504.207 131.201C504.207 130.711 503.805 130.312 503.311 130.312C502.816 130.312 502.414 130.711 502.414 131.201C502.414 131.691 502.816 132.09 503.311 132.09C503.805 132.09 504.207 131.691 504.207 131.201Z" fill="#666666"/>
<path d="M375.902 145.338C375.902 144.848 375.5 144.449 375.006 144.449C374.512 144.449 374.11 144.848 374.11 145.338C374.11 145.828 374.512 146.227 375.006 146.227C375.5 146.227 375.902 145.828 375.902 145.338Z" fill="#666666"/>
<path d="M390.16 145.338C390.16 144.848 389.758 144.449 389.264 144.449C388.769 144.449 388.367 144.848 388.367 145.338C388.367 145.828 388.769 146.227 389.264 146.227C389.758 146.227 390.16 145.828 390.16 145.338Z" fill="#666666"/>
<path d="M404.422 145.338C404.422 144.848 404.02 144.449 403.525 144.449C403.031 144.449 402.629 144.848 402.629 145.338C402.629 145.828 403.031 146.227 403.525 146.227C404.02 146.227 404.422 145.828 404.422 145.338Z" fill="#666666"/>
<path d="M418.672 145.338C418.672 144.848 418.27 144.449 417.775 144.449C417.281 144.449 416.879 144.848 416.879 145.338C416.879 145.828 417.281 146.227 417.775 146.227C418.27 146.227 418.672 145.828 418.672 145.338Z" fill="#666666"/>
<path d="M432.93 145.338C432.93 144.848 432.528 144.449 432.033 144.449C431.539 144.449 431.137 144.848 431.137 145.338C431.137 145.828 431.539 146.227 432.033 146.227C432.528 146.227 432.93 145.828 432.93 145.338Z" fill="#666666"/>
<path d="M447.188 145.338C447.188 144.848 446.785 144.449 446.291 144.449C445.797 144.449 445.395 144.848 445.395 145.338C445.395 145.828 445.797 146.227 446.291 146.227C446.785 146.227 447.188 145.828 447.188 145.338Z" fill="#666666"/>
<path d="M461.438 145.338C461.438 144.848 461.035 144.449 460.541 144.449C460.047 144.449 459.645 144.848 459.645 145.338C459.645 145.828 460.047 146.227 460.541 146.227C461.035 146.227 461.438 145.828 461.438 145.338Z" fill="#666666"/>
<path d="M475.699 145.338C475.699 144.848 475.297 144.449 474.803 144.449C474.309 144.449 473.906 144.848 473.906 145.338C473.906 145.828 474.309 146.227 474.803 146.227C475.297 146.227 475.699 145.828 475.699 145.338Z" fill="#666666"/>
<path d="M489.957 145.338C489.957 144.848 489.555 144.449 489.061 144.449C488.566 144.449 488.164 144.848 488.164 145.338C488.164 145.828 488.566 146.227 489.061 146.227C489.555 146.227 489.957 145.828 489.957 145.338Z" fill="#666666"/>
<path d="M503.311 144.449C502.816 144.449 502.414 144.847 502.414 145.338C502.414 145.829 502.816 146.227 503.311 146.227C503.806 146.227 504.207 145.829 504.207 145.338C504.207 144.847 503.806 144.449 503.311 144.449Z" fill="#666666"/>
<path d="M375.902 159.474C375.902 158.984 375.5 158.586 375.006 158.586C374.512 158.586 374.11 158.984 374.11 159.474C374.11 159.965 374.512 160.363 375.006 160.363C375.5 160.363 375.902 159.965 375.902 159.474Z" fill="#666666"/>
<path d="M390.16 159.474C390.16 158.984 389.758 158.586 389.264 158.586C388.769 158.586 388.367 158.984 388.367 159.474C388.367 159.965 388.769 160.363 389.264 160.363C389.758 160.363 390.16 159.965 390.16 159.474Z" fill="#666666"/>
<path d="M404.422 159.474C404.422 158.984 404.02 158.586 403.525 158.586C403.031 158.586 402.629 158.984 402.629 159.474C402.629 159.965 403.031 160.363 403.525 160.363C404.02 160.363 404.422 159.965 404.422 159.474Z" fill="#666666"/>
<path d="M418.672 159.474C418.672 158.984 418.27 158.586 417.775 158.586C417.281 158.586 416.879 158.984 416.879 159.474C416.879 159.965 417.281 160.363 417.775 160.363C418.27 160.363 418.672 159.965 418.672 159.474Z" fill="#666666"/>
<path d="M432.93 159.474C432.93 158.984 432.528 158.586 432.033 158.586C431.539 158.586 431.137 158.984 431.137 159.474C431.137 159.965 431.539 160.363 432.033 160.363C432.528 160.363 432.93 159.965 432.93 159.474Z" fill="#666666"/>
<path d="M447.188 159.474C447.188 158.984 446.785 158.586 446.291 158.586C445.797 158.586 445.395 158.984 445.395 159.474C445.395 159.965 445.797 160.363 446.291 160.363C446.785 160.363 447.188 159.965 447.188 159.474Z" fill="#666666"/>
<path d="M461.438 159.474C461.438 158.984 461.035 158.586 460.541 158.586C460.047 158.586 459.645 158.984 459.645 159.474C459.645 159.965 460.047 160.363 460.541 160.363C461.035 160.363 461.438 159.965 461.438 159.474Z" fill="#666666"/>
<path d="M475.699 159.474C475.699 158.984 475.297 158.586 474.803 158.586C474.309 158.586 473.906 158.984 473.906 159.474C473.906 159.965 474.309 160.363 474.803 160.363C475.297 160.363 475.699 159.965 475.699 159.474Z" fill="#666666"/>
<path d="M489.957 159.474C489.957 158.984 489.555 158.586 489.061 158.586C488.566 158.586 488.164 158.984 488.164 159.474C488.164 159.965 488.566 160.363 489.061 160.363C489.555 160.363 489.957 159.965 489.957 159.474Z" fill="#666666"/>
<path d="M503.311 158.586C502.816 158.586 502.414 158.983 502.414 159.474C502.414 159.965 502.816 160.363 503.311 160.363C503.806 160.363 504.207 159.965 504.207 159.474C504.207 158.983 503.806 158.586 503.311 158.586Z" fill="#666666"/>
<path d="M375.902 173.611C375.902 173.121 375.5 172.722 375.006 172.722C374.512 172.722 374.11 173.121 374.11 173.611C374.11 174.101 374.512 174.5 375.006 174.5C375.5 174.5 375.902 174.101 375.902 173.611Z" fill="#666666"/>
<path d="M390.16 173.611C390.16 173.121 389.758 172.722 389.264 172.722C388.769 172.722 388.367 173.121 388.367 173.611C388.367 174.101 388.769 174.5 389.264 174.5C389.758 174.5 390.16 174.101 390.16 173.611Z" fill="#666666"/>
<path d="M404.422 173.611C404.422 173.121 404.02 172.722 403.525 172.722C403.031 172.722 402.629 173.121 402.629 173.611C402.629 174.101 403.031 174.5 403.525 174.5C404.02 174.5 404.422 174.101 404.422 173.611Z" fill="#666666"/>
<path d="M418.672 173.611C418.672 173.121 418.27 172.722 417.775 172.722C417.281 172.722 416.879 173.121 416.879 173.611C416.879 174.101 417.281 174.5 417.775 174.5C418.27 174.5 418.672 174.101 418.672 173.611Z" fill="#666666"/>
<path d="M432.93 173.611C432.93 173.121 432.528 172.722 432.033 172.722C431.539 172.722 431.137 173.121 431.137 173.611C431.137 174.101 431.539 174.5 432.033 174.5C432.528 174.5 432.93 174.101 432.93 173.611Z" fill="#666666"/>
<path d="M447.188 173.611C447.188 173.121 446.785 172.722 446.291 172.722C445.797 172.722 445.395 173.121 445.395 173.611C445.395 174.101 445.797 174.5 446.291 174.5C446.785 174.5 447.188 174.101 447.188 173.611Z" fill="#666666"/>
<path d="M461.438 173.611C461.438 173.121 461.035 172.722 460.541 172.722C460.047 172.722 459.645 173.121 459.645 173.611C459.645 174.101 460.047 174.5 460.541 174.5C461.035 174.5 461.438 174.101 461.438 173.611Z" fill="#666666"/>
<path d="M475.699 173.611C475.699 173.121 475.297 172.722 474.803 172.722C474.309 172.722 473.906 173.121 473.906 173.611C473.906 174.101 474.309 174.5 474.803 174.5C475.297 174.5 475.699 174.101 475.699 173.611Z" fill="#666666"/>
<path d="M489.957 173.611C489.957 173.121 489.555 172.722 489.061 172.722C488.566 172.722 488.164 173.121 488.164 173.611C488.164 174.101 488.566 174.5 489.061 174.5C489.555 174.5 489.957 174.101 489.957 173.611Z" fill="#666666"/>
<path d="M504.207 173.611C504.207 173.121 503.805 172.722 503.311 172.722C502.816 172.722 502.414 173.121 502.414 173.611C502.414 174.101 502.816 174.5 503.311 174.5C503.805 174.5 504.207 174.101 504.207 173.611Z" fill="#666666"/>
<path d="M375.902 187.74C375.902 187.25 375.5 186.851 375.006 186.851C374.512 186.851 374.11 187.25 374.11 187.74C374.11 188.23 374.512 188.629 375.006 188.629C375.5 188.629 375.902 188.23 375.902 187.74Z" fill="#666666"/>
<path d="M390.16 187.74C390.16 187.25 389.758 186.851 389.264 186.851C388.769 186.851 388.367 187.25 388.367 187.74C388.367 188.23 388.769 188.629 389.264 188.629C389.758 188.629 390.16 188.23 390.16 187.74Z" fill="#666666"/>
<path d="M404.422 187.74C404.422 187.25 404.02 186.851 403.525 186.851C403.031 186.851 402.629 187.25 402.629 187.74C402.629 188.23 403.031 188.629 403.525 188.629C404.02 188.629 404.422 188.23 404.422 187.74Z" fill="#666666"/>
<path d="M418.672 187.74C418.672 187.25 418.27 186.851 417.775 186.851C417.281 186.851 416.879 187.25 416.879 187.74C416.879 188.23 417.281 188.629 417.775 188.629C418.27 188.629 418.672 188.23 418.672 187.74Z" fill="#666666"/>
<path d="M432.93 187.74C432.93 187.25 432.528 186.851 432.033 186.851C431.539 186.851 431.137 187.25 431.137 187.74C431.137 188.23 431.539 188.629 432.033 188.629C432.528 188.629 432.93 188.23 432.93 187.74Z" fill="#666666"/>
<path d="M447.188 187.74C447.188 187.25 446.785 186.851 446.291 186.851C445.797 186.851 445.395 187.25 445.395 187.74C445.395 188.23 445.797 188.629 446.291 188.629C446.785 188.629 447.188 188.23 447.188 187.74Z" fill="#666666"/>
<path d="M461.438 187.74C461.438 187.25 461.035 186.851 460.541 186.851C460.047 186.851 459.645 187.25 459.645 187.74C459.645 188.23 460.047 188.629 460.541 188.629C461.035 188.629 461.438 188.23 461.438 187.74Z" fill="#666666"/>
<path d="M475.699 187.74C475.699 187.25 475.297 186.851 474.803 186.851C474.309 186.851 473.906 187.25 473.906 187.74C473.906 188.23 474.309 188.629 474.803 188.629C475.297 188.629 475.699 188.23 475.699 187.74Z" fill="#666666"/>
<path d="M489.957 187.74C489.957 187.25 489.555 186.851 489.061 186.851C488.566 186.851 488.164 187.25 488.164 187.74C488.164 188.23 488.566 188.629 489.061 188.629C489.555 188.629 489.957 188.23 489.957 187.74Z" fill="#666666"/>
<path d="M504.207 187.74C504.207 187.25 503.805 186.851 503.311 186.851C502.816 186.851 502.414 187.25 502.414 187.74C502.414 188.23 502.816 188.629 503.311 188.629C503.805 188.629 504.207 188.23 504.207 187.74Z" fill="#666666"/>
<path d="M375.902 201.881C375.902 201.391 375.5 200.992 375.006 200.992C374.512 200.992 374.11 201.391 374.11 201.881C374.11 202.371 374.512 202.77 375.006 202.77C375.5 202.77 375.902 202.371 375.902 201.881Z" fill="#666666"/>
<path d="M390.16 201.881C390.16 201.391 389.758 200.992 389.264 200.992C388.769 200.992 388.367 201.391 388.367 201.881C388.367 202.371 388.769 202.77 389.264 202.77C389.758 202.77 390.16 202.371 390.16 201.881Z" fill="#666666"/>
<path d="M404.422 201.881C404.422 201.391 404.02 200.992 403.525 200.992C403.031 200.992 402.629 201.391 402.629 201.881C402.629 202.371 403.031 202.77 403.525 202.77C404.02 202.77 404.422 202.371 404.422 201.881Z" fill="#666666"/>
<path d="M418.672 201.881C418.672 201.391 418.27 200.992 417.775 200.992C417.281 200.992 416.879 201.391 416.879 201.881C416.879 202.371 417.281 202.77 417.775 202.77C418.27 202.77 418.672 202.371 418.672 201.881Z" fill="#666666"/>
<path d="M432.93 201.881C432.93 201.391 432.528 200.992 432.033 200.992C431.539 200.992 431.137 201.391 431.137 201.881C431.137 202.371 431.539 202.77 432.033 202.77C432.528 202.77 432.93 202.371 432.93 201.881Z" fill="#666666"/>
<path d="M447.188 201.881C447.188 201.391 446.785 200.992 446.291 200.992C445.797 200.992 445.395 201.391 445.395 201.881C445.395 202.371 445.797 202.77 446.291 202.77C446.785 202.77 447.188 202.371 447.188 201.881Z" fill="#666666"/>
<path d="M461.438 201.881C461.438 201.391 461.035 200.992 460.541 200.992C460.047 200.992 459.645 201.391 459.645 201.881C459.645 202.371 460.047 202.77 460.541 202.77C461.035 202.77 461.438 202.371 461.438 201.881Z" fill="#666666"/>
<path d="M475.699 201.881C475.699 201.391 475.297 200.992 474.803 200.992C474.309 200.992 473.906 201.391 473.906 201.881C473.906 202.371 474.309 202.77 474.803 202.77C475.297 202.77 475.699 202.371 475.699 201.881Z" fill="#666666"/>
<path d="M489.957 201.881C489.957 201.391 489.555 200.992 489.061 200.992C488.566 200.992 488.164 201.391 488.164 201.881C488.164 202.371 488.566 202.77 489.061 202.77C489.555 202.77 489.957 202.371 489.957 201.881Z" fill="#666666"/>
<path d="M504.207 201.881C504.207 201.391 503.805 200.992 503.311 200.992C502.816 200.992 502.414 201.391 502.414 201.881C502.414 202.371 502.816 202.77 503.311 202.77C503.805 202.77 504.207 202.371 504.207 201.881Z" fill="#666666"/>
<path d="M375.902 216.017C375.902 215.527 375.5 215.128 375.006 215.128C374.512 215.128 374.11 215.527 374.11 216.017C374.11 216.507 374.512 216.906 375.006 216.906C375.5 216.906 375.902 216.507 375.902 216.017Z" fill="#666666"/>
<path d="M390.16 216.017C390.16 215.527 389.758 215.128 389.264 215.128C388.769 215.128 388.367 215.527 388.367 216.017C388.367 216.507 388.769 216.906 389.264 216.906C389.758 216.906 390.16 216.507 390.16 216.017Z" fill="#666666"/>
<path d="M404.422 216.021C404.422 215.531 404.02 215.132 403.525 215.132C403.031 215.132 402.629 215.531 402.629 216.021C402.629 216.511 403.031 216.91 403.525 216.91C404.02 216.91 404.422 216.511 404.422 216.021Z" fill="#666666"/>
<path d="M418.672 216.017C418.672 215.527 418.27 215.128 417.775 215.128C417.281 215.128 416.879 215.527 416.879 216.017C416.879 216.507 417.281 216.906 417.775 216.906C418.27 216.906 418.672 216.507 418.672 216.017Z" fill="#666666"/>
<path d="M432.93 216.017C432.93 215.527 432.528 215.128 432.033 215.128C431.539 215.128 431.137 215.527 431.137 216.017C431.137 216.507 431.539 216.906 432.033 216.906C432.528 216.906 432.93 216.507 432.93 216.017Z" fill="#666666"/>
<path d="M447.188 216.017C447.188 215.527 446.785 215.128 446.291 215.128C445.797 215.128 445.395 215.527 445.395 216.017C445.395 216.507 445.797 216.906 446.291 216.906C446.785 216.906 447.188 216.507 447.188 216.017Z" fill="#666666"/>
<path d="M461.438 216.017C461.438 215.527 461.035 215.128 460.541 215.128C460.047 215.128 459.645 215.527 459.645 216.017C459.645 216.507 460.047 216.906 460.541 216.906C461.035 216.906 461.438 216.507 461.438 216.017Z" fill="#666666"/>
<path d="M475.699 216.021C475.699 215.531 475.297 215.132 474.803 215.132C474.309 215.132 473.906 215.531 473.906 216.021C473.906 216.511 474.309 216.91 474.803 216.91C475.297 216.91 475.699 216.511 475.699 216.021Z" fill="#666666"/>
<path d="M489.957 216.017C489.957 215.527 489.555 215.128 489.061 215.128C488.566 215.128 488.164 215.527 488.164 216.017C488.164 216.507 488.566 216.906 489.061 216.906C489.555 216.906 489.957 216.507 489.957 216.017Z" fill="#666666"/>
<path d="M504.207 216.017C504.207 215.527 503.805 215.128 503.311 215.128C502.816 215.128 502.414 215.527 502.414 216.017C502.414 216.507 502.816 216.906 503.311 216.906C503.805 216.906 504.207 216.507 504.207 216.017Z" fill="#666666"/>
<path d="M375.902 230.154C375.902 229.664 375.5 229.265 375.006 229.265C374.512 229.265 374.11 229.664 374.11 230.154C374.11 230.644 374.512 231.043 375.006 231.043C375.5 231.043 375.902 230.644 375.902 230.154Z" fill="#666666"/>
<path d="M390.16 230.154C390.16 229.664 389.758 229.265 389.264 229.265C388.769 229.265 388.367 229.664 388.367 230.154C388.367 230.644 388.769 231.043 389.264 231.043C389.758 231.043 390.16 230.644 390.16 230.154Z" fill="#666666"/>
<path d="M404.422 230.154C404.422 229.664 404.02 229.265 403.525 229.265C403.031 229.265 402.629 229.664 402.629 230.154C402.629 230.644 403.031 231.043 403.525 231.043C404.02 231.043 404.422 230.644 404.422 230.154Z" fill="#666666"/>
<path d="M418.672 230.154C418.672 229.664 418.27 229.265 417.775 229.265C417.281 229.265 416.879 229.664 416.879 230.154C416.879 230.644 417.281 231.043 417.775 231.043C418.27 231.043 418.672 230.644 418.672 230.154Z" fill="#666666"/>
<path d="M432.93 230.154C432.93 229.664 432.528 229.265 432.033 229.265C431.539 229.265 431.137 229.664 431.137 230.154C431.137 230.644 431.539 231.043 432.033 231.043C432.528 231.043 432.93 230.644 432.93 230.154Z" fill="#666666"/>
<path d="M447.188 230.154C447.188 229.664 446.785 229.265 446.291 229.265C445.797 229.265 445.395 229.664 445.395 230.154C445.395 230.644 445.797 231.043 446.291 231.043C446.785 231.043 447.188 230.644 447.188 230.154Z" fill="#666666"/>
<path d="M461.438 230.154C461.438 229.664 461.035 229.265 460.541 229.265C460.047 229.265 459.645 229.664 459.645 230.154C459.645 230.644 460.047 231.043 460.541 231.043C461.035 231.043 461.438 230.644 461.438 230.154Z" fill="#666666"/>
<path d="M475.699 230.154C475.699 229.664 475.297 229.265 474.803 229.265C474.309 229.265 473.906 229.664 473.906 230.154C473.906 230.644 474.309 231.043 474.803 231.043C475.297 231.043 475.699 230.644 475.699 230.154Z" fill="#666666"/>
<path d="M489.957 230.154C489.957 229.664 489.555 229.265 489.061 229.265C488.566 229.265 488.164 229.664 488.164 230.154C488.164 230.644 488.566 231.043 489.061 231.043C489.555 231.043 489.957 230.644 489.957 230.154Z" fill="#666666"/>
<path d="M504.207 230.154C504.207 229.664 503.805 229.265 503.311 229.265C502.816 229.265 502.414 229.664 502.414 230.154C502.414 230.644 502.816 231.043 503.311 231.043C503.805 231.043 504.207 230.644 504.207 230.154Z" fill="#666666"/>
<path d="M375.902 244.287C375.902 243.797 375.5 243.398 375.006 243.398C374.512 243.398 374.11 243.797 374.11 244.287C374.11 244.777 374.512 245.176 375.006 245.176C375.5 245.176 375.902 244.777 375.902 244.287Z" fill="#666666"/>
<path d="M390.16 244.287C390.16 243.797 389.758 243.398 389.264 243.398C388.769 243.398 388.367 243.797 388.367 244.287C388.367 244.777 388.769 245.176 389.264 245.176C389.758 245.176 390.16 244.777 390.16 244.287Z" fill="#666666"/>
<path d="M347.395 88.7986C347.395 88.3085 346.992 87.9097 346.498 87.9097C346.004 87.9097 345.602 88.3085 345.602 88.7986C345.602 89.2887 346.004 89.6875 346.498 89.6875C346.992 89.6875 347.395 89.2887 347.395 88.7986Z" fill="#666666"/>
<path d="M347.395 102.928C347.395 102.437 346.992 102.039 346.498 102.039C346.004 102.039 345.602 102.437 345.602 102.928C345.602 103.418 346.004 103.816 346.498 103.816C346.992 103.816 347.395 103.418 347.395 102.928Z" fill="#666666"/>
<path d="M347.395 117.068C347.395 116.578 346.992 116.179 346.498 116.179C346.004 116.179 345.602 116.578 345.602 117.068C345.602 117.558 346.004 117.957 346.498 117.957C346.992 117.957 347.395 117.558 347.395 117.068Z" fill="#666666"/>
<path d="M347.395 131.205C347.395 130.715 346.992 130.316 346.498 130.316C346.004 130.316 345.602 130.715 345.602 131.205C345.602 131.695 346.004 132.094 346.498 132.094C346.992 132.094 347.395 131.695 347.395 131.205Z" fill="#666666"/>
<path d="M347.395 145.338C347.395 144.848 346.992 144.449 346.498 144.449C346.004 144.449 345.602 144.848 345.602 145.338C345.602 145.828 346.004 146.227 346.498 146.227C346.992 146.227 347.395 145.828 347.395 145.338Z" fill="#666666"/>
<path d="M347.395 159.474C347.395 158.984 346.992 158.586 346.498 158.586C346.004 158.586 345.602 158.984 345.602 159.474C345.602 159.965 346.004 160.363 346.498 160.363C346.992 160.363 347.395 159.965 347.395 159.474Z" fill="#666666"/>
<path d="M347.395 173.611C347.395 173.121 346.992 172.722 346.498 172.722C346.004 172.722 345.602 173.121 345.602 173.611C345.602 174.101 346.004 174.5 346.498 174.5C346.992 174.5 347.395 174.101 347.395 173.611Z" fill="#666666"/>
<path d="M347.395 187.74C347.395 187.25 346.992 186.851 346.498 186.851C346.004 186.851 345.602 187.25 345.602 187.74C345.602 188.23 346.004 188.629 346.498 188.629C346.992 188.629 347.395 188.23 347.395 187.74Z" fill="#666666"/>
<path d="M347.395 201.881C347.395 201.391 346.992 200.992 346.498 200.992C346.004 200.992 345.602 201.391 345.602 201.881C345.602 202.371 346.004 202.77 346.498 202.77C346.992 202.77 347.395 202.371 347.395 201.881Z" fill="#666666"/>
<path d="M347.395 216.017C347.395 215.527 346.992 215.128 346.498 215.128C346.004 215.128 345.602 215.527 345.602 216.017C345.602 216.507 346.004 216.906 346.498 216.906C346.992 216.906 347.395 216.507 347.395 216.017Z" fill="#666666"/>
<path d="M347.395 230.154C347.395 229.664 346.992 229.265 346.498 229.265C346.004 229.265 345.602 229.664 345.602 230.154C345.602 230.644 346.004 231.043 346.498 231.043C346.992 231.043 347.395 230.644 347.395 230.154Z" fill="#666666"/>
<path d="M347.391 244.287C347.391 243.797 346.988 243.398 346.494 243.398C346 243.398 345.598 243.797 345.598 244.287C345.598 244.777 346 245.176 346.494 245.176C346.988 245.176 347.391 244.777 347.391 244.287Z" fill="#666666"/>
<path d="M404.422 244.287C404.422 243.797 404.02 243.398 403.525 243.398C403.031 243.398 402.629 243.797 402.629 244.287C402.629 244.777 403.031 245.176 403.525 245.176C404.02 245.176 404.422 244.777 404.422 244.287Z" fill="#666666"/>
<path d="M418.672 244.287C418.672 243.797 418.27 243.398 417.775 243.398C417.281 243.398 416.879 243.797 416.879 244.287C416.879 244.777 417.281 245.176 417.775 245.176C418.27 245.176 418.672 244.777 418.672 244.287Z" fill="#666666"/>
<path d="M432.93 244.287C432.93 243.797 432.528 243.398 432.033 243.398C431.539 243.398 431.137 243.797 431.137 244.287C431.137 244.777 431.539 245.176 432.033 245.176C432.528 245.176 432.93 244.777 432.93 244.287Z" fill="#666666"/>
<path d="M447.188 244.287C447.188 243.797 446.785 243.398 446.291 243.398C445.797 243.398 445.395 243.797 445.395 244.287C445.395 244.777 445.797 245.176 446.291 245.176C446.785 245.176 447.188 244.777 447.188 244.287Z" fill="#666666"/>
<path d="M461.438 244.287C461.438 243.797 461.035 243.398 460.541 243.398C460.047 243.398 459.645 243.797 459.645 244.287C459.645 244.777 460.047 245.176 460.541 245.176C461.035 245.176 461.438 244.777 461.438 244.287Z" fill="#666666"/>
<path d="M475.695 244.287C475.695 243.797 475.293 243.398 474.799 243.398C474.305 243.398 473.902 243.797 473.902 244.287C473.902 244.777 474.305 245.176 474.799 245.176C475.293 245.176 475.695 244.777 475.695 244.287Z" fill="#666666"/>
<path d="M489.957 244.287C489.957 243.797 489.555 243.398 489.061 243.398C488.566 243.398 488.164 243.797 488.164 244.287C488.164 244.777 488.566 245.176 489.061 245.176C489.555 245.176 489.957 244.777 489.957 244.287Z" fill="#666666"/>
<path d="M504.207 244.287C504.207 243.797 503.805 243.398 503.311 243.398C502.816 243.398 502.414 243.797 502.414 244.287C502.414 244.777 502.816 245.176 503.311 245.176C503.805 245.176 504.207 244.777 504.207 244.287Z" fill="#666666"/>
</g>
</g>
<g opacity="0.9">
<path d="M341.469 332.724L341.469 249.487L425.189 249.487L425.189 332.724L508.9 332.724L508.9 415.961L425.189 415.961L341.469 332.724Z" fill="url(#paint7_linear_36533_449329)"/>
<path d="M257.754 498.972L257.754 415.959L341.474 415.959L341.474 498.972L425.185 498.972L425.185 581.984L341.474 581.984L257.754 498.972Z" fill="url(#paint8_linear_36533_449329)"/>
<path d="M676.786 332.496L760.502 332.496L760.502 415.737L676.786 415.737L676.786 498.97L593.07 498.97L593.07 415.737L676.786 332.496Z" fill="url(#paint9_linear_36533_449329)"/>
<path d="M592.843 415.961H508.901V332.72H592.843V249.487H676.785V332.72L592.843 415.961Z" fill="url(#paint10_linear_36533_449329)"/>
<path d="M508.895 83.237L508.895 166.474L592.841 166.474L592.841 83.237L676.779 83.237L676.779 -7.27681e-06L592.841 -3.63859e-06L508.895 83.237Z" fill="url(#paint11_linear_36533_449329)"/>
<mask id="mask2_36533_449329" style="mask-type:luminance" maskUnits="userSpaceOnUse" x="341" y="415" width="169" height="167">
<path d="M341.533 498.854L341.533 581.927L425.313 581.927L425.313 498.854L509.094 498.854L509.094 415.773L425.313 415.773L341.533 498.854Z" fill="white"/>
</mask>
<g mask="url(#mask2_36533_449329)">
<path d="M399.711 453.082L399.711 458.216" stroke="#666666" stroke-width="1.75511" stroke-miterlimit="10"/>
<path d="M402.301 455.648L397.123 455.648" stroke="#666666" stroke-width="1.75511" stroke-miterlimit="10"/>
<path d="M416.809 436.113L416.809 441.247" stroke="#666666" stroke-width="1.75511" stroke-miterlimit="10"/>
<path d="M419.398 438.68L414.221 438.68" stroke="#666666" stroke-width="1.75511" stroke-miterlimit="10"/>
<path d="M416.809 453.082L416.809 458.216" stroke="#666666" stroke-width="1.75511" stroke-miterlimit="10"/>
<path d="M419.398 455.648L414.221 455.648" stroke="#666666" stroke-width="1.75511" stroke-miterlimit="10"/>
<path d="M433.902 419.156L433.902 424.29" stroke="#666666" stroke-width="1.75511" stroke-miterlimit="10"/>
<path d="M436.492 421.723L431.315 421.723" stroke="#666666" stroke-width="1.75511" stroke-miterlimit="10"/>
<path d="M433.902 436.113L433.902 441.247" stroke="#666666" stroke-width="1.75511" stroke-miterlimit="10"/>
<path d="M436.492 438.68L431.315 438.68" stroke="#666666" stroke-width="1.75511" stroke-miterlimit="10"/>
<path d="M433.902 453.082L433.902 458.216" stroke="#666666" stroke-width="1.75511" stroke-miterlimit="10"/>
<path d="M436.492 455.648L431.315 455.648" stroke="#666666" stroke-width="1.75511" stroke-miterlimit="10"/>
<path d="M451 419.156L451 424.29" stroke="#666666" stroke-width="1.75511" stroke-miterlimit="10"/>
<path d="M453.59 421.723L448.412 421.723" stroke="#666666" stroke-width="1.75511" stroke-miterlimit="10"/>
<path d="M451 436.113L451 441.247" stroke="#666666" stroke-width="1.75511" stroke-miterlimit="10"/>
<path d="M453.59 438.68L448.412 438.68" stroke="#666666" stroke-width="1.75511" stroke-miterlimit="10"/>
<path d="M451 453.082L451 458.216" stroke="#666666" stroke-width="1.75511" stroke-miterlimit="10"/>
<path d="M453.59 455.648L448.412 455.648" stroke="#666666" stroke-width="1.75511" stroke-miterlimit="10"/>
<path d="M468.098 419.156L468.098 424.29" stroke="#666666" stroke-width="1.75511" stroke-miterlimit="10"/>
<path d="M470.688 421.723L465.51 421.723" stroke="#666666" stroke-width="1.75511" stroke-miterlimit="10"/>
<path d="M468.098 436.113L468.098 441.247" stroke="#666666" stroke-width="1.75511" stroke-miterlimit="10"/>
<path d="M470.688 438.68L465.51 438.68" stroke="#666666" stroke-width="1.75511" stroke-miterlimit="10"/>
<path d="M468.098 453.082L468.098 458.216" stroke="#666666" stroke-width="1.75511" stroke-miterlimit="10"/>
<path d="M470.688 455.648L465.51 455.648" stroke="#666666" stroke-width="1.75511" stroke-miterlimit="10"/>
<path d="M485.207 419.156L485.207 424.29" stroke="#666666" stroke-width="1.75511" stroke-miterlimit="10"/>
<path d="M487.797 421.723L482.62 421.723" stroke="#666666" stroke-width="1.75511" stroke-miterlimit="10"/>
<path d="M485.207 436.113L485.207 441.247" stroke="#666666" stroke-width="1.75511" stroke-miterlimit="10"/>
<path d="M487.797 438.68L482.62 438.68" stroke="#666666" stroke-width="1.75511" stroke-miterlimit="10"/>
<path d="M485.207 453.082L485.207 458.216" stroke="#666666" stroke-width="1.75511" stroke-miterlimit="10"/>
<path d="M487.797 455.648L482.62 455.648" stroke="#666666" stroke-width="1.75511" stroke-miterlimit="10"/>
<path d="M502.309 419.156L502.309 424.29" stroke="#666666" stroke-width="1.75511" stroke-miterlimit="10"/>
<path d="M504.898 421.723L499.721 421.723" stroke="#666666" stroke-width="1.75511" stroke-miterlimit="10"/>
<path d="M502.309 436.113L502.309 441.247" stroke="#666666" stroke-width="1.75511" stroke-miterlimit="10"/>
<path d="M504.898 438.68L499.721 438.68" stroke="#666666" stroke-width="1.75511" stroke-miterlimit="10"/>
<path d="M502.309 453.078L502.309 458.212" stroke="#666666" stroke-width="1.75511" stroke-miterlimit="10"/>
<path d="M504.898 455.645L499.721 455.645" stroke="#666666" stroke-width="1.75511" stroke-miterlimit="10"/>
</g>
<path d="M425.184 415.733L425.184 498.97L341.464 498.97L341.464 415.733L257.752 415.733L257.752 332.496L341.464 332.496L425.184 415.733Z" fill="url(#paint12_linear_36533_449329)"/>
<path d="M593.07 249.485L593.07 332.498L509.124 332.498L509.124 249.485L425.186 249.485L425.186 166.473L509.124 166.473L593.07 249.485Z" fill="url(#paint13_linear_36533_449329)"/>
<mask id="mask3_36533_449329" style="mask-type:luminance" maskUnits="userSpaceOnUse" x="592" y="83" width="169" height="167">
<path d="M760.44 166.542L760.44 83.4649L676.655 83.4649L676.655 166.542L616.655 166.542L592.879 166.542L592.879 249.618L616.655 249.618L676.655 249.618L760.44 166.542Z" fill="white"/>
</mask>
<g mask="url(#mask3_36533_449329)">
<path d="M740.56 243.395C740.066 243.395 739.664 243.793 739.664 244.283C739.664 244.774 740.066 245.172 740.56 245.172C741.055 245.172 741.457 244.774 741.457 244.283C741.457 243.793 741.055 243.395 740.56 243.395Z" fill="#666666"/>
<path d="M740.56 229.254C740.066 229.254 739.664 229.653 739.664 230.143C739.664 230.633 740.066 231.032 740.56 231.032C741.055 231.032 741.457 230.633 741.457 230.143C741.457 229.653 741.055 229.254 740.56 229.254Z" fill="#666666"/>
<path d="M740.56 215.125C740.066 215.125 739.664 215.524 739.664 216.014C739.664 216.504 740.066 216.903 740.56 216.903C741.055 216.903 741.457 216.504 741.457 216.014C741.457 215.524 741.055 215.125 740.56 215.125Z" fill="#666666"/>
<path d="M740.56 200.992C740.066 200.992 739.664 201.391 739.664 201.881C739.664 202.371 740.066 202.77 740.56 202.77C741.055 202.77 741.457 202.371 741.457 201.881C741.457 201.391 741.055 200.992 740.56 200.992Z" fill="#666666"/>
<path d="M740.56 186.848C740.066 186.848 739.664 187.246 739.664 187.736C739.664 188.227 740.066 188.625 740.56 188.625C741.055 188.625 741.457 188.227 741.457 187.736C741.457 187.246 741.055 186.848 740.56 186.848Z" fill="#666666"/>
<path d="M740.56 172.719C740.066 172.719 739.664 173.118 739.664 173.608C739.664 174.098 740.066 174.497 740.56 174.497C741.055 174.497 741.457 174.098 741.457 173.608C741.457 173.118 741.055 172.719 740.56 172.719Z" fill="#666666"/>
<path d="M740.56 158.582C740.066 158.582 739.664 158.981 739.664 159.471C739.664 159.961 740.066 160.36 740.56 160.36C741.055 160.36 741.457 159.961 741.457 159.471C741.457 158.981 741.055 158.582 740.56 158.582Z" fill="#666666"/>
<path d="M740.56 144.445C740.066 144.445 739.664 144.844 739.664 145.334C739.664 145.824 740.066 146.223 740.56 146.223C741.055 146.223 741.457 145.824 741.457 145.334C741.457 144.844 741.055 144.445 740.56 144.445Z" fill="#666666"/>
<path d="M740.56 130.313C740.066 130.313 739.664 130.711 739.664 131.201C739.664 131.691 740.066 132.09 740.56 132.09C741.055 132.09 741.457 131.691 741.457 131.201C741.457 130.711 741.055 130.313 740.56 130.313Z" fill="#666666"/>
<path d="M740.56 116.176C740.066 116.176 739.664 116.575 739.664 117.065C739.664 117.555 740.066 117.954 740.56 117.954C741.055 117.954 741.457 117.555 741.457 117.065C741.457 116.575 741.055 116.176 740.56 116.176Z" fill="#666666"/>
<path d="M740.56 102.039C740.066 102.039 739.664 102.438 739.664 102.928C739.664 103.418 740.066 103.817 740.56 103.817C741.055 103.817 741.457 103.418 741.457 102.928C741.457 102.438 741.055 102.039 740.56 102.039Z" fill="#666666"/>
<path d="M740.56 87.9063C740.066 87.9063 739.664 88.305 739.664 88.7951C739.664 89.2852 740.066 89.684 740.56 89.684C741.055 89.684 741.457 89.2852 741.457 88.7951C741.457 88.305 741.055 87.9063 740.56 87.9063Z" fill="#666666"/>
<path d="M725.414 244.283C725.414 244.774 725.816 245.172 726.31 245.172C726.805 245.172 727.207 244.774 727.207 244.283C727.207 243.793 726.805 243.395 726.31 243.395C725.816 243.395 725.414 243.793 725.414 244.283Z" fill="#666666"/>
<path d="M711.156 244.283C711.156 244.774 711.558 245.172 712.053 245.172C712.547 245.172 712.949 244.774 712.949 244.283C712.949 243.793 712.547 243.395 712.053 243.395C711.558 243.395 711.156 243.793 711.156 244.283Z" fill="#666666"/>
<path d="M696.895 244.283C696.895 244.774 697.297 245.172 697.791 245.172C698.285 245.172 698.687 244.774 698.687 244.283C698.687 243.793 698.285 243.395 697.791 243.395C697.297 243.395 696.895 243.793 696.895 244.283Z" fill="#666666"/>
<path d="M682.645 244.283C682.645 244.774 683.047 245.172 683.541 245.172C684.035 245.172 684.437 244.774 684.437 244.283C684.437 243.793 684.035 243.395 683.541 243.395C683.047 243.395 682.645 243.793 682.645 244.283Z" fill="#666666"/>
<path d="M668.387 244.283C668.387 244.774 668.789 245.172 669.283 245.172C669.777 245.172 670.179 244.774 670.179 244.283C670.179 243.793 669.777 243.395 669.283 243.395C668.789 243.395 668.387 243.793 668.387 244.283Z" fill="#666666"/>
<path d="M654.129 244.283C654.129 244.774 654.531 245.172 655.025 245.172C655.52 245.172 655.922 244.774 655.922 244.283C655.922 243.793 655.52 243.395 655.025 243.395C654.531 243.395 654.129 243.793 654.129 244.283Z" fill="#666666"/>
<path d="M639.879 244.283C639.879 244.774 640.281 245.172 640.775 245.172C641.27 245.172 641.672 244.774 641.672 244.283C641.672 243.793 641.27 243.395 640.775 243.395C640.281 243.395 639.879 243.793 639.879 244.283Z" fill="#666666"/>
<path d="M625.617 244.283C625.617 244.774 626.019 245.172 626.514 245.172C627.008 245.172 627.41 244.774 627.41 244.283C627.41 243.793 627.008 243.395 626.514 243.395C626.019 243.395 625.617 243.793 625.617 244.283Z" fill="#666666"/>
<path d="M611.359 244.283C611.359 244.774 611.762 245.172 612.256 245.172C612.75 245.172 613.152 244.774 613.152 244.283C613.152 243.793 612.75 243.395 612.256 243.395C611.762 243.395 611.359 243.793 611.359 244.283Z" fill="#666666"/>
<path d="M597.109 244.283C597.109 244.774 597.512 245.172 598.006 245.172C598.5 245.172 598.902 244.774 598.902 244.283C598.902 243.793 598.5 243.395 598.006 243.395C597.512 243.395 597.109 243.793 597.109 244.283Z" fill="#666666"/>
<path d="M725.414 230.155C725.414 230.645 725.816 231.043 726.31 231.043C726.805 231.043 727.207 230.645 727.207 230.155C727.207 229.664 726.805 229.266 726.31 229.266C725.816 229.266 725.414 229.664 725.414 230.155Z" fill="#666666"/>
<path d="M711.156 230.155C711.156 230.645 711.558 231.043 712.053 231.043C712.547 231.043 712.949 230.645 712.949 230.155C712.949 229.664 712.547 229.266 712.053 229.266C711.558 229.266 711.156 229.664 711.156 230.155Z" fill="#666666"/>
<path d="M696.895 230.155C696.895 230.645 697.297 231.043 697.791 231.043C698.285 231.043 698.687 230.645 698.687 230.155C698.687 229.664 698.285 229.266 697.791 229.266C697.297 229.266 696.895 229.664 696.895 230.155Z" fill="#666666"/>
<path d="M682.645 230.155C682.645 230.645 683.047 231.043 683.541 231.043C684.035 231.043 684.437 230.645 684.437 230.155C684.437 229.664 684.035 229.266 683.541 229.266C683.047 229.266 682.645 229.664 682.645 230.155Z" fill="#666666"/>
<path d="M668.387 230.155C668.387 230.645 668.789 231.043 669.283 231.043C669.777 231.043 670.179 230.645 670.179 230.155C670.179 229.664 669.777 229.266 669.283 229.266C668.789 229.266 668.387 229.664 668.387 230.155Z" fill="#666666"/>
<path d="M654.129 230.155C654.129 230.645 654.531 231.043 655.025 231.043C655.52 231.043 655.922 230.645 655.922 230.155C655.922 229.664 655.52 229.266 655.025 229.266C654.531 229.266 654.129 229.664 654.129 230.155Z" fill="#666666"/>
<path d="M639.879 230.155C639.879 230.645 640.281 231.043 640.775 231.043C641.27 231.043 641.672 230.645 641.672 230.155C641.672 229.664 641.27 229.266 640.775 229.266C640.281 229.266 639.879 229.664 639.879 230.155Z" fill="#666666"/>
<path d="M625.617 230.155C625.617 230.645 626.019 231.043 626.514 231.043C627.008 231.043 627.41 230.645 627.41 230.155C627.41 229.664 627.008 229.266 626.514 229.266C626.019 229.266 625.617 229.664 625.617 230.155Z" fill="#666666"/>
<path d="M611.359 230.155C611.359 230.645 611.762 231.043 612.256 231.043C612.75 231.043 613.152 230.645 613.152 230.155C613.152 229.664 612.75 229.266 612.256 229.266C611.762 229.266 611.359 229.664 611.359 230.155Z" fill="#666666"/>
<path d="M597.109 230.155C597.109 230.645 597.512 231.043 598.006 231.043C598.5 231.043 598.902 230.645 598.902 230.155C598.902 229.664 598.5 229.266 598.006 229.266C597.512 229.266 597.109 229.664 597.109 230.155Z" fill="#666666"/>
<path d="M725.414 216.014C725.414 216.504 725.816 216.903 726.31 216.903C726.805 216.903 727.207 216.504 727.207 216.014C727.207 215.524 726.805 215.125 726.31 215.125C725.816 215.125 725.414 215.524 725.414 216.014Z" fill="#666666"/>
<path d="M711.156 216.014C711.156 216.504 711.558 216.903 712.053 216.903C712.547 216.903 712.949 216.504 712.949 216.014C712.949 215.524 712.547 215.125 712.053 215.125C711.558 215.125 711.156 215.524 711.156 216.014Z" fill="#666666"/>
<path d="M696.895 216.014C696.895 216.504 697.297 216.903 697.791 216.903C698.285 216.903 698.687 216.504 698.687 216.014C698.687 215.524 698.285 215.125 697.791 215.125C697.297 215.125 696.895 215.524 696.895 216.014Z" fill="#666666"/>
<path d="M682.645 216.014C682.645 216.504 683.047 216.903 683.541 216.903C684.035 216.903 684.437 216.504 684.437 216.014C684.437 215.524 684.035 215.125 683.541 215.125C683.047 215.125 682.645 215.524 682.645 216.014Z" fill="#666666"/>
<path d="M668.387 216.014C668.387 216.504 668.789 216.903 669.283 216.903C669.777 216.903 670.179 216.504 670.179 216.014C670.179 215.524 669.777 215.125 669.283 215.125C668.789 215.125 668.387 215.524 668.387 216.014Z" fill="#666666"/>
<path d="M654.129 216.014C654.129 216.504 654.531 216.903 655.025 216.903C655.52 216.903 655.922 216.504 655.922 216.014C655.922 215.524 655.52 215.125 655.025 215.125C654.531 215.125 654.129 215.524 654.129 216.014Z" fill="#666666"/>
<path d="M639.879 216.014C639.879 216.504 640.281 216.903 640.775 216.903C641.27 216.903 641.672 216.504 641.672 216.014C641.672 215.524 641.27 215.125 640.775 215.125C640.281 215.125 639.879 215.524 639.879 216.014Z" fill="#666666"/>
<path d="M625.617 216.014C625.617 216.504 626.019 216.903 626.514 216.903C627.008 216.903 627.41 216.504 627.41 216.014C627.41 215.524 627.008 215.125 626.514 215.125C626.019 215.125 625.617 215.524 625.617 216.014Z" fill="#666666"/>
<path d="M611.359 216.014C611.359 216.504 611.762 216.903 612.256 216.903C612.75 216.903 613.152 216.504 613.152 216.014C613.152 215.524 612.75 215.125 612.256 215.125C611.762 215.125 611.359 215.524 611.359 216.014Z" fill="#666666"/>
<path d="M597.109 216.014C597.109 216.504 597.512 216.903 598.006 216.903C598.5 216.903 598.902 216.504 598.902 216.014C598.902 215.524 598.5 215.125 598.006 215.125C597.512 215.125 597.109 215.524 597.109 216.014Z" fill="#666666"/>
<path d="M725.414 201.881C725.414 202.371 725.816 202.77 726.31 202.77C726.805 202.77 727.207 202.371 727.207 201.881C727.207 201.391 726.805 200.992 726.31 200.992C725.816 200.992 725.414 201.391 725.414 201.881Z" fill="#666666"/>
<path d="M711.156 201.881C711.156 202.371 711.558 202.77 712.053 202.77C712.547 202.77 712.949 202.371 712.949 201.881C712.949 201.391 712.547 200.992 712.053 200.992C711.558 200.992 711.156 201.391 711.156 201.881Z" fill="#666666"/>
<path d="M696.895 201.877C696.895 202.367 697.297 202.766 697.791 202.766C698.285 202.766 698.687 202.367 698.687 201.877C698.687 201.387 698.285 200.988 697.791 200.988C697.297 200.988 696.895 201.387 696.895 201.877Z" fill="#666666"/>
<path d="M682.645 201.877C682.645 202.367 683.047 202.766 683.541 202.766C684.035 202.766 684.437 202.367 684.437 201.877C684.437 201.387 684.035 200.988 683.541 200.988C683.047 200.988 682.645 201.387 682.645 201.877Z" fill="#666666"/>
<path d="M668.387 201.877C668.387 202.367 668.789 202.766 669.283 202.766C669.777 202.766 670.179 202.367 670.179 201.877C670.179 201.387 669.777 200.988 669.283 200.988C668.789 200.988 668.387 201.387 668.387 201.877Z" fill="#666666"/>
<path d="M654.129 201.877C654.129 202.367 654.531 202.766 655.025 202.766C655.52 202.766 655.922 202.367 655.922 201.877C655.922 201.387 655.52 200.988 655.025 200.988C654.531 200.988 654.129 201.387 654.129 201.877Z" fill="#666666"/>
<path d="M639.879 201.877C639.879 202.367 640.281 202.766 640.775 202.766C641.27 202.766 641.672 202.367 641.672 201.877C641.672 201.387 641.27 200.988 640.775 200.988C640.281 200.988 639.879 201.387 639.879 201.877Z" fill="#666666"/>
<path d="M625.617 201.877C625.617 202.367 626.019 202.766 626.514 202.766C627.008 202.766 627.41 202.367 627.41 201.877C627.41 201.387 627.008 200.988 626.514 200.988C626.019 200.988 625.617 201.387 625.617 201.877Z" fill="#666666"/>
<path d="M611.359 201.881C611.359 202.371 611.762 202.77 612.256 202.77C612.75 202.77 613.152 202.371 613.152 201.881C613.152 201.391 612.75 200.992 612.256 200.992C611.762 200.992 611.359 201.391 611.359 201.881Z" fill="#666666"/>
<path d="M597.109 201.881C597.109 202.371 597.512 202.77 598.006 202.77C598.5 202.77 598.902 202.371 598.902 201.881C598.902 201.391 598.5 200.992 598.006 200.992C597.512 200.992 597.109 201.391 597.109 201.881Z" fill="#666666"/>
<path d="M725.414 187.744C725.414 188.234 725.816 188.633 726.31 188.633C726.805 188.633 727.207 188.234 727.207 187.744C727.207 187.254 726.805 186.855 726.31 186.855C725.816 186.855 725.414 187.254 725.414 187.744Z" fill="#666666"/>
<path d="M711.156 187.744C711.156 188.234 711.558 188.633 712.053 188.633C712.547 188.633 712.949 188.234 712.949 187.744C712.949 187.254 712.547 186.855 712.053 186.855C711.558 186.855 711.156 187.254 711.156 187.744Z" fill="#666666"/>
<path d="M696.895 187.744C696.895 188.234 697.297 188.633 697.791 188.633C698.285 188.633 698.687 188.234 698.687 187.744C698.687 187.254 698.285 186.855 697.791 186.855C697.297 186.855 696.895 187.254 696.895 187.744Z" fill="#666666"/>
<path d="M682.645 187.744C682.645 188.234 683.047 188.633 683.541 188.633C684.035 188.633 684.437 188.234 684.437 187.744C684.437 187.254 684.035 186.855 683.541 186.855C683.047 186.855 682.645 187.254 682.645 187.744Z" fill="#666666"/>
<path d="M668.387 187.744C668.387 188.234 668.789 188.633 669.283 188.633C669.777 188.633 670.179 188.234 670.179 187.744C670.179 187.254 669.777 186.855 669.283 186.855C668.789 186.855 668.387 187.254 668.387 187.744Z" fill="#666666"/>
<path d="M654.129 187.744C654.129 188.234 654.531 188.633 655.025 188.633C655.52 188.633 655.922 188.234 655.922 187.744C655.922 187.254 655.52 186.855 655.025 186.855C654.531 186.855 654.129 187.254 654.129 187.744Z" fill="#666666"/>
<path d="M639.879 187.744C639.879 188.234 640.281 188.633 640.775 188.633C641.27 188.633 641.672 188.234 641.672 187.744C641.672 187.254 641.27 186.855 640.775 186.855C640.281 186.855 639.879 187.254 639.879 187.744Z" fill="#666666"/>
<path d="M625.617 187.744C625.617 188.234 626.019 188.633 626.514 188.633C627.008 188.633 627.41 188.234 627.41 187.744C627.41 187.254 627.008 186.855 626.514 186.855C626.019 186.855 625.617 187.254 625.617 187.744Z" fill="#666666"/>
<path d="M611.359 187.744C611.359 188.234 611.762 188.633 612.256 188.633C612.75 188.633 613.152 188.234 613.152 187.744C613.152 187.254 612.75 186.855 612.256 186.855C611.762 186.855 611.359 187.254 611.359 187.744Z" fill="#666666"/>
<path d="M598.006 188.633C598.501 188.633 598.902 188.235 598.902 187.744C598.902 187.253 598.501 186.855 598.006 186.855C597.511 186.855 597.109 187.253 597.109 187.744C597.109 188.235 597.511 188.633 598.006 188.633Z" fill="#666666"/>
<path d="M725.414 173.608C725.414 174.098 725.816 174.497 726.31 174.497C726.805 174.497 727.207 174.098 727.207 173.608C727.207 173.118 726.805 172.719 726.31 172.719C725.816 172.719 725.414 173.118 725.414 173.608Z" fill="#666666"/>
<path d="M711.156 173.608C711.156 174.098 711.558 174.497 712.053 174.497C712.547 174.497 712.949 174.098 712.949 173.608C712.949 173.118 712.547 172.719 712.053 172.719C711.558 172.719 711.156 173.118 711.156 173.608Z" fill="#666666"/>
<path d="M696.895 173.608C696.895 174.098 697.297 174.497 697.791 174.497C698.285 174.497 698.687 174.098 698.687 173.608C698.687 173.118 698.285 172.719 697.791 172.719C697.297 172.719 696.895 173.118 696.895 173.608Z" fill="#666666"/>
<path d="M682.645 173.608C682.645 174.098 683.047 174.497 683.541 174.497C684.035 174.497 684.437 174.098 684.437 173.608C684.437 173.118 684.035 172.719 683.541 172.719C683.047 172.719 682.645 173.118 682.645 173.608Z" fill="#666666"/>
<path d="M668.387 173.608C668.387 174.098 668.789 174.497 669.283 174.497C669.777 174.497 670.179 174.098 670.179 173.608C670.179 173.118 669.777 172.719 669.283 172.719C668.789 172.719 668.387 173.118 668.387 173.608Z" fill="#666666"/>
<path d="M654.129 173.608C654.129 174.098 654.531 174.497 655.025 174.497C655.52 174.497 655.922 174.098 655.922 173.608C655.922 173.118 655.52 172.719 655.025 172.719C654.531 172.719 654.129 173.118 654.129 173.608Z" fill="#666666"/>
<path d="M639.879 173.608C639.879 174.098 640.281 174.497 640.775 174.497C641.27 174.497 641.672 174.098 641.672 173.608C641.672 173.118 641.27 172.719 640.775 172.719C640.281 172.719 639.879 173.118 639.879 173.608Z" fill="#666666"/>
<path d="M625.617 173.608C625.617 174.098 626.019 174.497 626.514 174.497C627.008 174.497 627.41 174.098 627.41 173.608C627.41 173.118 627.008 172.719 626.514 172.719C626.019 172.719 625.617 173.118 625.617 173.608Z" fill="#666666"/>
<path d="M611.359 173.608C611.359 174.098 611.762 174.497 612.256 174.497C612.75 174.497 613.152 174.098 613.152 173.608C613.152 173.118 612.75 172.719 612.256 172.719C611.762 172.719 611.359 173.118 611.359 173.608Z" fill="#666666"/>
<path d="M598.006 174.497C598.501 174.497 598.902 174.099 598.902 173.608C598.902 173.117 598.501 172.719 598.006 172.719C597.511 172.719 597.109 173.117 597.109 173.608C597.109 174.099 597.511 174.497 598.006 174.497Z" fill="#666666"/>
<path d="M725.414 159.471C725.414 159.961 725.816 160.36 726.31 160.36C726.805 160.36 727.207 159.961 727.207 159.471C727.207 158.981 726.805 158.582 726.31 158.582C725.816 158.582 725.414 158.981 725.414 159.471Z" fill="#666666"/>
<path d="M711.156 159.471C711.156 159.961 711.558 160.36 712.053 160.36C712.547 160.36 712.949 159.961 712.949 159.471C712.949 158.981 712.547 158.582 712.053 158.582C711.558 158.582 711.156 158.981 711.156 159.471Z" fill="#666666"/>
<path d="M696.895 159.471C696.895 159.961 697.297 160.36 697.791 160.36C698.285 160.36 698.687 159.961 698.687 159.471C698.687 158.981 698.285 158.582 697.791 158.582C697.297 158.582 696.895 158.981 696.895 159.471Z" fill="#666666"/>
<path d="M682.645 159.471C682.645 159.961 683.047 160.36 683.541 160.36C684.035 160.36 684.437 159.961 684.437 159.471C684.437 158.981 684.035 158.582 683.541 158.582C683.047 158.582 682.645 158.981 682.645 159.471Z" fill="#666666"/>
<path d="M668.387 159.471C668.387 159.961 668.789 160.36 669.283 160.36C669.777 160.36 670.179 159.961 670.179 159.471C670.179 158.981 669.777 158.582 669.283 158.582C668.789 158.582 668.387 158.981 668.387 159.471Z" fill="#666666"/>
<path d="M654.129 159.471C654.129 159.961 654.531 160.36 655.025 160.36C655.52 160.36 655.922 159.961 655.922 159.471C655.922 158.981 655.52 158.582 655.025 158.582C654.531 158.582 654.129 158.981 654.129 159.471Z" fill="#666666"/>
<path d="M639.879 159.471C639.879 159.961 640.281 160.36 640.775 160.36C641.27 160.36 641.672 159.961 641.672 159.471C641.672 158.981 641.27 158.582 640.775 158.582C640.281 158.582 639.879 158.981 639.879 159.471Z" fill="#666666"/>
<path d="M625.617 159.471C625.617 159.961 626.019 160.36 626.514 160.36C627.008 160.36 627.41 159.961 627.41 159.471C627.41 158.981 627.008 158.582 626.514 158.582C626.019 158.582 625.617 158.981 625.617 159.471Z" fill="#666666"/>
<path d="M611.359 159.471C611.359 159.961 611.762 160.36 612.256 160.36C612.75 160.36 613.152 159.961 613.152 159.471C613.152 158.981 612.75 158.582 612.256 158.582C611.762 158.582 611.359 158.981 611.359 159.471Z" fill="#666666"/>
<path d="M597.109 159.471C597.109 159.961 597.512 160.36 598.006 160.36C598.5 160.36 598.902 159.961 598.902 159.471C598.902 158.981 598.5 158.582 598.006 158.582C597.512 158.582 597.109 158.981 597.109 159.471Z" fill="#666666"/>
<path d="M725.414 145.342C725.414 145.832 725.816 146.231 726.31 146.231C726.805 146.231 727.207 145.832 727.207 145.342C727.207 144.852 726.805 144.453 726.31 144.453C725.816 144.453 725.414 144.852 725.414 145.342Z" fill="#666666"/>
<path d="M711.156 145.342C711.156 145.832 711.558 146.231 712.053 146.231C712.547 146.231 712.949 145.832 712.949 145.342C712.949 144.852 712.547 144.453 712.053 144.453C711.558 144.453 711.156 144.852 711.156 145.342Z" fill="#666666"/>
<path d="M696.895 145.342C696.895 145.832 697.297 146.231 697.791 146.231C698.285 146.231 698.687 145.832 698.687 145.342C698.687 144.852 698.285 144.453 697.791 144.453C697.297 144.453 696.895 144.852 696.895 145.342Z" fill="#666666"/>
<path d="M682.645 145.342C682.645 145.832 683.047 146.231 683.541 146.231C684.035 146.231 684.437 145.832 684.437 145.342C684.437 144.852 684.035 144.453 683.541 144.453C683.047 144.453 682.645 144.852 682.645 145.342Z" fill="#666666"/>
<path d="M668.387 145.342C668.387 145.832 668.789 146.231 669.283 146.231C669.777 146.231 670.179 145.832 670.179 145.342C670.179 144.852 669.777 144.453 669.283 144.453C668.789 144.453 668.387 144.852 668.387 145.342Z" fill="#666666"/>
<path d="M654.129 145.342C654.129 145.832 654.531 146.231 655.025 146.231C655.52 146.231 655.922 145.832 655.922 145.342C655.922 144.852 655.52 144.453 655.025 144.453C654.531 144.453 654.129 144.852 654.129 145.342Z" fill="#666666"/>
<path d="M639.879 145.342C639.879 145.832 640.281 146.231 640.775 146.231C641.27 146.231 641.672 145.832 641.672 145.342C641.672 144.852 641.27 144.453 640.775 144.453C640.281 144.453 639.879 144.852 639.879 145.342Z" fill="#666666"/>
<path d="M625.617 145.342C625.617 145.832 626.019 146.231 626.514 146.231C627.008 146.231 627.41 145.832 627.41 145.342C627.41 144.852 627.008 144.453 626.514 144.453C626.019 144.453 625.617 144.852 625.617 145.342Z" fill="#666666"/>
<path d="M611.359 145.342C611.359 145.832 611.762 146.231 612.256 146.231C612.75 146.231 613.152 145.832 613.152 145.342C613.152 144.852 612.75 144.453 612.256 144.453C611.762 144.453 611.359 144.852 611.359 145.342Z" fill="#666666"/>
<path d="M597.109 145.342C597.109 145.832 597.512 146.231 598.006 146.231C598.5 146.231 598.902 145.832 598.902 145.342C598.902 144.852 598.5 144.453 598.006 144.453C597.512 144.453 597.109 144.852 597.109 145.342Z" fill="#666666"/>
<path d="M725.414 131.201C725.414 131.691 725.816 132.09 726.31 132.09C726.805 132.09 727.207 131.691 727.207 131.201C727.207 130.711 726.805 130.313 726.31 130.313C725.816 130.313 725.414 130.711 725.414 131.201Z" fill="#666666"/>
<path d="M711.156 131.201C711.156 131.691 711.558 132.09 712.053 132.09C712.547 132.09 712.949 131.691 712.949 131.201C712.949 130.711 712.547 130.313 712.053 130.313C711.558 130.313 711.156 130.711 711.156 131.201Z" fill="#666666"/>
<path d="M696.895 131.201C696.895 131.691 697.297 132.09 697.791 132.09C698.285 132.09 698.687 131.691 698.687 131.201C698.687 130.711 698.285 130.313 697.791 130.313C697.297 130.313 696.895 130.711 696.895 131.201Z" fill="#666666"/>
<path d="M682.645 131.201C682.645 131.691 683.047 132.09 683.541 132.09C684.035 132.09 684.437 131.691 684.437 131.201C684.437 130.711 684.035 130.313 683.541 130.313C683.047 130.313 682.645 130.711 682.645 131.201Z" fill="#666666"/>
<path d="M668.387 131.201C668.387 131.691 668.789 132.09 669.283 132.09C669.777 132.09 670.179 131.691 670.179 131.201C670.179 130.711 669.777 130.313 669.283 130.313C668.789 130.313 668.387 130.711 668.387 131.201Z" fill="#666666"/>
<path d="M654.129 131.201C654.129 131.691 654.531 132.09 655.025 132.09C655.52 132.09 655.922 131.691 655.922 131.201C655.922 130.711 655.52 130.313 655.025 130.313C654.531 130.313 654.129 130.711 654.129 131.201Z" fill="#666666"/>
<path d="M639.879 131.201C639.879 131.691 640.281 132.09 640.775 132.09C641.27 132.09 641.672 131.691 641.672 131.201C641.672 130.711 641.27 130.313 640.775 130.313C640.281 130.313 639.879 130.711 639.879 131.201Z" fill="#666666"/>
<path d="M625.617 131.201C625.617 131.691 626.019 132.09 626.514 132.09C627.008 132.09 627.41 131.691 627.41 131.201C627.41 130.711 627.008 130.313 626.514 130.313C626.019 130.313 625.617 130.711 625.617 131.201Z" fill="#666666"/>
<path d="M611.359 131.201C611.359 131.691 611.762 132.09 612.256 132.09C612.75 132.09 613.152 131.691 613.152 131.201C613.152 130.711 612.75 130.313 612.256 130.313C611.762 130.313 611.359 130.711 611.359 131.201Z" fill="#666666"/>
<path d="M597.109 131.201C597.109 131.691 597.512 132.09 598.006 132.09C598.5 132.09 598.902 131.691 598.902 131.201C598.902 130.711 598.5 130.313 598.006 130.313C597.512 130.313 597.109 130.711 597.109 131.201Z" fill="#666666"/>
<path d="M725.414 117.065C725.414 117.555 725.816 117.954 726.31 117.954C726.805 117.954 727.207 117.555 727.207 117.065C727.207 116.575 726.805 116.176 726.31 116.176C725.816 116.176 725.414 116.575 725.414 117.065Z" fill="#666666"/>
<path d="M711.156 117.065C711.156 117.555 711.558 117.954 712.053 117.954C712.547 117.954 712.949 117.555 712.949 117.065C712.949 116.575 712.547 116.176 712.053 116.176C711.558 116.176 711.156 116.575 711.156 117.065Z" fill="#666666"/>
<path d="M696.895 117.061C696.895 117.551 697.297 117.95 697.791 117.95C698.285 117.95 698.687 117.551 698.687 117.061C698.687 116.571 698.285 116.172 697.791 116.172C697.297 116.172 696.895 116.571 696.895 117.061Z" fill="#666666"/>
<path d="M682.645 117.065C682.645 117.555 683.047 117.954 683.541 117.954C684.035 117.954 684.437 117.555 684.437 117.065C684.437 116.575 684.035 116.176 683.541 116.176C683.047 116.176 682.645 116.575 682.645 117.065Z" fill="#666666"/>
<path d="M668.387 117.065C668.387 117.555 668.789 117.954 669.283 117.954C669.777 117.954 670.179 117.555 670.179 117.065C670.179 116.575 669.777 116.176 669.283 116.176C668.789 116.176 668.387 116.575 668.387 117.065Z" fill="#666666"/>
<path d="M654.129 117.065C654.129 117.555 654.531 117.954 655.025 117.954C655.52 117.954 655.922 117.555 655.922 117.065C655.922 116.575 655.52 116.176 655.025 116.176C654.531 116.176 654.129 116.575 654.129 117.065Z" fill="#666666"/>
<path d="M639.879 117.065C639.879 117.555 640.281 117.954 640.775 117.954C641.27 117.954 641.672 117.555 641.672 117.065C641.672 116.575 641.27 116.176 640.775 116.176C640.281 116.176 639.879 116.575 639.879 117.065Z" fill="#666666"/>
<path d="M625.617 117.061C625.617 117.551 626.019 117.95 626.514 117.95C627.008 117.95 627.41 117.551 627.41 117.061C627.41 116.571 627.008 116.172 626.514 116.172C626.019 116.172 625.617 116.571 625.617 117.061Z" fill="#666666"/>
<path d="M611.359 117.065C611.359 117.555 611.762 117.954 612.256 117.954C612.75 117.954 613.152 117.555 613.152 117.065C613.152 116.575 612.75 116.176 612.256 116.176C611.762 116.176 611.359 116.575 611.359 117.065Z" fill="#666666"/>
<path d="M597.109 117.065C597.109 117.555 597.512 117.954 598.006 117.954C598.5 117.954 598.902 117.555 598.902 117.065C598.902 116.575 598.5 116.176 598.006 116.176C597.512 116.176 597.109 116.575 597.109 117.065Z" fill="#666666"/>
<path d="M725.414 102.928C725.414 103.418 725.816 103.817 726.31 103.817C726.805 103.817 727.207 103.418 727.207 102.928C727.207 102.438 726.805 102.039 726.31 102.039C725.816 102.039 725.414 102.438 725.414 102.928Z" fill="#666666"/>
<path d="M711.156 102.928C711.156 103.418 711.558 103.817 712.053 103.817C712.547 103.817 712.949 103.418 712.949 102.928C712.949 102.438 712.547 102.039 712.053 102.039C711.558 102.039 711.156 102.438 711.156 102.928Z" fill="#666666"/>
<path d="M696.895 102.928C696.895 103.418 697.297 103.817 697.791 103.817C698.285 103.817 698.687 103.418 698.687 102.928C698.687 102.438 698.285 102.039 697.791 102.039C697.297 102.039 696.895 102.438 696.895 102.928Z" fill="#666666"/>
<path d="M682.645 102.928C682.645 103.418 683.047 103.817 683.541 103.817C684.035 103.817 684.437 103.418 684.437 102.928C684.437 102.438 684.035 102.039 683.541 102.039C683.047 102.039 682.645 102.438 682.645 102.928Z" fill="#666666"/>
<path d="M668.387 102.928C668.387 103.418 668.789 103.817 669.283 103.817C669.777 103.817 670.179 103.418 670.179 102.928C670.179 102.438 669.777 102.039 669.283 102.039C668.789 102.039 668.387 102.438 668.387 102.928Z" fill="#666666"/>
<path d="M654.129 102.928C654.129 103.418 654.531 103.817 655.025 103.817C655.52 103.817 655.922 103.418 655.922 102.928C655.922 102.438 655.52 102.039 655.025 102.039C654.531 102.039 654.129 102.438 654.129 102.928Z" fill="#666666"/>
<path d="M639.879 102.928C639.879 103.418 640.281 103.817 640.775 103.817C641.27 103.817 641.672 103.418 641.672 102.928C641.672 102.438 641.27 102.039 640.775 102.039C640.281 102.039 639.879 102.438 639.879 102.928Z" fill="#666666"/>
<path d="M625.617 102.928C625.617 103.418 626.019 103.817 626.514 103.817C627.008 103.817 627.41 103.418 627.41 102.928C627.41 102.438 627.008 102.039 626.514 102.039C626.019 102.039 625.617 102.438 625.617 102.928Z" fill="#666666"/>
<path d="M611.359 102.928C611.359 103.418 611.762 103.817 612.256 103.817C612.75 103.817 613.152 103.418 613.152 102.928C613.152 102.438 612.75 102.039 612.256 102.039C611.762 102.039 611.359 102.438 611.359 102.928Z" fill="#666666"/>
<path d="M597.109 102.928C597.109 103.418 597.512 103.817 598.006 103.817C598.5 103.817 598.902 103.418 598.902 102.928C598.902 102.438 598.5 102.039 598.006 102.039C597.512 102.039 597.109 102.438 597.109 102.928Z" fill="#666666"/>
<path d="M725.414 88.7951C725.414 89.2852 725.816 89.684 726.31 89.684C726.805 89.684 727.207 89.2852 727.207 88.7951C727.207 88.305 726.805 87.9063 726.31 87.9063C725.816 87.9063 725.414 88.305 725.414 88.7951Z" fill="#666666"/>
<path d="M711.156 88.7951C711.156 89.2852 711.558 89.684 712.053 89.684C712.547 89.684 712.949 89.2852 712.949 88.7951C712.949 88.305 712.547 87.9063 712.053 87.9063C711.558 87.9063 711.156 88.305 711.156 88.7951Z" fill="#666666"/>
<path d="M753.922 244.283C753.922 244.774 754.324 245.172 754.818 245.172C755.313 245.172 755.715 244.774 755.715 244.283C755.715 243.793 755.313 243.395 754.818 243.395C754.324 243.395 753.922 243.793 753.922 244.283Z" fill="#666666"/>
<path d="M753.922 230.155C753.922 230.645 754.324 231.043 754.818 231.043C755.313 231.043 755.715 230.645 755.715 230.155C755.715 229.664 755.313 229.266 754.818 229.266C754.324 229.266 753.922 229.664 753.922 230.155Z" fill="#666666"/>
<path d="M753.922 216.014C753.922 216.504 754.324 216.903 754.818 216.903C755.313 216.903 755.715 216.504 755.715 216.014C755.715 215.524 755.313 215.125 754.818 215.125C754.324 215.125 753.922 215.524 753.922 216.014Z" fill="#666666"/>
<path d="M753.922 201.877C753.922 202.367 754.324 202.766 754.818 202.766C755.313 202.766 755.715 202.367 755.715 201.877C755.715 201.387 755.313 200.988 754.818 200.988C754.324 200.988 753.922 201.387 753.922 201.877Z" fill="#666666"/>
<path d="M753.922 187.744C753.922 188.234 754.324 188.633 754.818 188.633C755.313 188.633 755.715 188.234 755.715 187.744C755.715 187.254 755.313 186.855 754.818 186.855C754.324 186.855 753.922 187.254 753.922 187.744Z" fill="#666666"/>
<path d="M753.922 173.608C753.922 174.098 754.324 174.497 754.818 174.497C755.313 174.497 755.715 174.098 755.715 173.608C755.715 173.118 755.313 172.719 754.818 172.719C754.324 172.719 753.922 173.118 753.922 173.608Z" fill="#666666"/>
<path d="M753.922 159.471C753.922 159.961 754.324 160.36 754.818 160.36C755.313 160.36 755.715 159.961 755.715 159.471C755.715 158.981 755.313 158.582 754.818 158.582C754.324 158.582 753.922 158.981 753.922 159.471Z" fill="#666666"/>
<path d="M753.922 145.342C753.922 145.832 754.324 146.231 754.818 146.231C755.313 146.231 755.715 145.832 755.715 145.342C755.715 144.852 755.313 144.453 754.818 144.453C754.324 144.453 753.922 144.852 753.922 145.342Z" fill="#666666"/>
<path d="M753.922 131.201C753.922 131.691 754.324 132.09 754.818 132.09C755.313 132.09 755.715 131.691 755.715 131.201C755.715 130.711 755.313 130.313 754.818 130.313C754.324 130.313 753.922 130.711 753.922 131.201Z" fill="#666666"/>
<path d="M753.922 117.065C753.922 117.555 754.324 117.954 754.818 117.954C755.313 117.954 755.715 117.555 755.715 117.065C755.715 116.575 755.313 116.176 754.818 116.176C754.324 116.176 753.922 116.575 753.922 117.065Z" fill="#666666"/>
<path d="M753.922 102.928C753.922 103.418 754.324 103.817 754.818 103.817C755.313 103.817 755.715 103.418 755.715 102.928C755.715 102.438 755.313 102.039 754.818 102.039C754.324 102.039 753.922 102.438 753.922 102.928Z" fill="#666666"/>
<path d="M753.926 88.7951C753.926 89.2852 754.328 89.684 754.822 89.684C755.316 89.684 755.719 89.2852 755.719 88.7951C755.719 88.305 755.316 87.9063 754.822 87.9063C754.328 87.9063 753.926 88.305 753.926 88.7951Z" fill="#666666"/>
<path d="M696.895 88.7951C696.895 89.2852 697.297 89.684 697.791 89.684C698.285 89.684 698.687 89.2852 698.687 88.7951C698.687 88.305 698.285 87.9063 697.791 87.9063C697.297 87.9063 696.895 88.305 696.895 88.7951Z" fill="#666666"/>
<path d="M682.645 88.7951C682.645 89.2852 683.047 89.684 683.541 89.684C684.035 89.684 684.437 89.2852 684.437 88.7951C684.437 88.305 684.035 87.9063 683.541 87.9063C683.047 87.9063 682.645 88.305 682.645 88.7951Z" fill="#666666"/>
<path d="M668.387 88.7951C668.387 89.2852 668.789 89.684 669.283 89.684C669.777 89.684 670.179 89.2852 670.179 88.7951C670.179 88.305 669.777 87.9063 669.283 87.9063C668.789 87.9063 668.387 88.305 668.387 88.7951Z" fill="#666666"/>
<path d="M654.129 88.7951C654.129 89.2852 654.531 89.684 655.025 89.684C655.52 89.684 655.922 89.2852 655.922 88.7951C655.922 88.305 655.52 87.9063 655.025 87.9063C654.531 87.9063 654.129 88.305 654.129 88.7951Z" fill="#666666"/>
<path d="M639.879 88.7951C639.879 89.2852 640.281 89.684 640.775 89.684C641.27 89.684 641.672 89.2852 641.672 88.7951C641.672 88.305 641.27 87.9063 640.775 87.9063C640.281 87.9063 639.879 88.305 639.879 88.7951Z" fill="#666666"/>
<path d="M625.621 88.7951C625.621 89.2852 626.023 89.684 626.518 89.684C627.012 89.684 627.414 89.2852 627.414 88.7951C627.414 88.305 627.012 87.9063 626.518 87.9063C626.023 87.9063 625.621 88.305 625.621 88.7951Z" fill="#666666"/>
<path d="M611.359 88.7951C611.359 89.2852 611.762 89.684 612.256 89.684C612.75 89.684 613.152 89.2852 613.152 88.7951C613.152 88.305 612.75 87.9063 612.256 87.9063C611.762 87.9063 611.359 88.305 611.359 88.7951Z" fill="#666666"/>
<path d="M597.109 88.7951C597.109 89.2852 597.512 89.684 598.006 89.684C598.5 89.684 598.902 89.2852 598.902 88.7951C598.902 88.305 598.5 87.9063 598.006 87.9063C597.512 87.9063 597.109 88.305 597.109 88.7951Z" fill="#666666"/>
</g>
</g>
</g>
<defs>
<linearGradient id="paint0_linear_36533_449329" x1="318.422" y1="198.593" x2="74.1664" y2="416.031" gradientUnits="userSpaceOnUse">
<stop/>
<stop offset="1" stop-color="#3C3C3C"/>
</linearGradient>
<linearGradient id="paint1_linear_36533_449329" x1="253.011" y1="582.009" x2="-80.3942" y2="447.197" gradientUnits="userSpaceOnUse">
<stop stop-color="#3C3C3C"/>
<stop offset="1"/>
</linearGradient>
<linearGradient id="paint2_linear_36533_449329" x1="634.797" y1="219.971" x2="152.99" y2="681.121" gradientUnits="userSpaceOnUse">
<stop stop-color="#3C3C3C"/>
<stop offset="1"/>
</linearGradient>
<linearGradient id="paint3_linear_36533_449329" x1="674.882" y1="330.189" x2="113.669" y2="330.189" gradientUnits="userSpaceOnUse">
<stop/>
<stop offset="1" stop-color="#3C3C3C"/>
</linearGradient>
<linearGradient id="paint4_linear_36533_449329" x1="482.922" y1="147.977" x2="128.922" y2="0.476958" gradientUnits="userSpaceOnUse">
<stop stop-color="#3C3C3C"/>
<stop offset="1"/>
</linearGradient>
<linearGradient id="paint5_linear_36533_449329" x1="86.9188" y1="179.264" x2="86.9183" y2="644.754" gradientUnits="userSpaceOnUse">
<stop/>
<stop offset="1" stop-color="#3C3C3C"/>
</linearGradient>
<linearGradient id="paint6_linear_36533_449329" x1="50.5664" y1="237.433" x2="544.017" y2="237.433" gradientUnits="userSpaceOnUse">
<stop stop-color="#3C3C3C"/>
<stop offset="1"/>
</linearGradient>
<linearGradient id="paint7_linear_36533_449329" x1="570.422" y1="198.593" x2="326.166" y2="416.031" gradientUnits="userSpaceOnUse">
<stop/>
<stop offset="1" stop-color="#3C3C3C"/>
</linearGradient>
<linearGradient id="paint8_linear_36533_449329" x1="505.011" y1="582.009" x2="171.606" y2="447.197" gradientUnits="userSpaceOnUse">
<stop stop-color="#3C3C3C"/>
<stop offset="1"/>
</linearGradient>
<linearGradient id="paint9_linear_36533_449329" x1="886.797" y1="219.971" x2="404.99" y2="681.121" gradientUnits="userSpaceOnUse">
<stop stop-color="#3C3C3C"/>
<stop offset="1"/>
</linearGradient>
<linearGradient id="paint10_linear_36533_449329" x1="926.882" y1="330.189" x2="365.669" y2="330.189" gradientUnits="userSpaceOnUse">
<stop/>
<stop offset="1" stop-color="#3C3C3C"/>
</linearGradient>
<linearGradient id="paint11_linear_36533_449329" x1="450.75" y1="18.5" x2="804.75" y2="166" gradientUnits="userSpaceOnUse">
<stop stop-color="#3C3C3C"/>
<stop offset="1"/>
</linearGradient>
<linearGradient id="paint12_linear_36533_449329" x1="338.919" y1="179.264" x2="338.918" y2="644.754" gradientUnits="userSpaceOnUse">
<stop/>
<stop offset="1" stop-color="#3C3C3C"/>
</linearGradient>
<linearGradient id="paint13_linear_36533_449329" x1="302.566" y1="237.433" x2="796.017" y2="237.433" gradientUnits="userSpaceOnUse">
<stop stop-color="#3C3C3C"/>
<stop offset="1"/>
</linearGradient>
<clipPath id="clip0_36533_449329">
<rect width="761" height="468" fill="white"/>
</clipPath>
</defs>
</svg>
