<svg width="761" height="468" viewBox="0 0 761 468" fill="none" xmlns="http://www.w3.org/2000/svg">
<g clip-path="url(#clip0_36533_448010)">
<g opacity="0.4">
<path d="M251.469 318.724L251.469 235.487L335.189 235.487L335.189 318.724L418.9 318.724L418.9 401.961L335.189 401.961L251.469 318.724Z" fill="url(#paint0_linear_36533_448010)"/>
<path d="M167.754 484.972L167.754 401.959L251.474 401.959L251.474 484.972L335.185 484.972L335.185 567.984L251.474 567.984L167.754 484.972Z" fill="url(#paint1_linear_36533_448010)"/>
<path d="M586.786 318.496L670.502 318.496L670.502 401.737L586.786 401.737L586.786 484.97L503.07 484.97L503.07 401.737L586.786 318.496Z" fill="url(#paint2_linear_36533_448010)"/>
<path d="M502.843 401.961H418.901V318.72H502.843V235.487H586.785V318.72L502.843 401.961Z" fill="url(#paint3_linear_36533_448010)"/>
<path d="M586.777 69.2395V-13.9975L502.831 -13.9975V69.2395L418.893 69.2395V152.477L502.831 152.477L586.777 69.2395Z" fill="url(#paint4_linear_36533_448010)"/>
<mask id="mask0_36533_448010" style="mask-type:luminance" maskUnits="userSpaceOnUse" x="251" y="401" width="169" height="167">
<path d="M251.533 484.854L251.533 567.927L335.313 567.927L335.313 484.854L419.094 484.854L419.094 401.773L335.313 401.773L251.533 484.854Z" fill="white"/>
</mask>
<g mask="url(#mask0_36533_448010)">
<path d="M292.602 456.035L292.602 461.169" stroke="#666666" stroke-width="1.75511" stroke-miterlimit="10"/>
<path d="M295.191 458.602L290.014 458.602" stroke="#666666" stroke-width="1.75511" stroke-miterlimit="10"/>
<path d="M309.711 439.082L309.711 444.216" stroke="#666666" stroke-width="1.75511" stroke-miterlimit="10"/>
<path d="M312.301 441.648L307.123 441.648" stroke="#666666" stroke-width="1.75511" stroke-miterlimit="10"/>
<path d="M309.711 456.035L309.711 461.169" stroke="#666666" stroke-width="1.75511" stroke-miterlimit="10"/>
<path d="M312.301 458.602L307.123 458.602" stroke="#666666" stroke-width="1.75511" stroke-miterlimit="10"/>
<path d="M326.809 422.113L326.809 427.247" stroke="#666666" stroke-width="1.75511" stroke-miterlimit="10"/>
<path d="M329.398 424.68L324.221 424.68" stroke="#666666" stroke-width="1.75511" stroke-miterlimit="10"/>
<path d="M326.809 439.082L326.809 444.216" stroke="#666666" stroke-width="1.75511" stroke-miterlimit="10"/>
<path d="M329.398 441.648L324.221 441.648" stroke="#666666" stroke-width="1.75511" stroke-miterlimit="10"/>
<path d="M326.809 456.035L326.809 461.169" stroke="#666666" stroke-width="1.75511" stroke-miterlimit="10"/>
<path d="M329.398 458.602L324.221 458.602" stroke="#666666" stroke-width="1.75511" stroke-miterlimit="10"/>
<path d="M343.902 405.156L343.902 410.29" stroke="#666666" stroke-width="1.75511" stroke-miterlimit="10"/>
<path d="M346.492 407.723L341.315 407.723" stroke="#666666" stroke-width="1.75511" stroke-miterlimit="10"/>
<path d="M343.902 422.113L343.902 427.247" stroke="#666666" stroke-width="1.75511" stroke-miterlimit="10"/>
<path d="M346.492 424.68L341.315 424.68" stroke="#666666" stroke-width="1.75511" stroke-miterlimit="10"/>
<path d="M343.902 439.082L343.902 444.216" stroke="#666666" stroke-width="1.75511" stroke-miterlimit="10"/>
<path d="M346.492 441.648L341.315 441.648" stroke="#666666" stroke-width="1.75511" stroke-miterlimit="10"/>
<path d="M343.902 456.035L343.902 461.169" stroke="#666666" stroke-width="1.75511" stroke-miterlimit="10"/>
<path d="M346.492 458.602L341.315 458.602" stroke="#666666" stroke-width="1.75511" stroke-miterlimit="10"/>
<path d="M361 405.156L361 410.29" stroke="#666666" stroke-width="1.75511" stroke-miterlimit="10"/>
<path d="M363.59 407.723L358.412 407.723" stroke="#666666" stroke-width="1.75511" stroke-miterlimit="10"/>
<path d="M361 422.113L361 427.247" stroke="#666666" stroke-width="1.75511" stroke-miterlimit="10"/>
<path d="M363.59 424.68L358.412 424.68" stroke="#666666" stroke-width="1.75511" stroke-miterlimit="10"/>
<path d="M361 439.082L361 444.216" stroke="#666666" stroke-width="1.75511" stroke-miterlimit="10"/>
<path d="M363.59 441.648L358.412 441.648" stroke="#666666" stroke-width="1.75511" stroke-miterlimit="10"/>
<path d="M361 456.035L361 461.169" stroke="#666666" stroke-width="1.75511" stroke-miterlimit="10"/>
<path d="M363.59 458.602L358.412 458.602" stroke="#666666" stroke-width="1.75511" stroke-miterlimit="10"/>
<path d="M378.098 405.156L378.098 410.29" stroke="#666666" stroke-width="1.75511" stroke-miterlimit="10"/>
<path d="M380.688 407.723L375.51 407.723" stroke="#666666" stroke-width="1.75511" stroke-miterlimit="10"/>
<path d="M378.098 422.113L378.098 427.247" stroke="#666666" stroke-width="1.75511" stroke-miterlimit="10"/>
<path d="M380.688 424.68L375.51 424.68" stroke="#666666" stroke-width="1.75511" stroke-miterlimit="10"/>
<path d="M378.098 439.082L378.098 444.216" stroke="#666666" stroke-width="1.75511" stroke-miterlimit="10"/>
<path d="M380.688 441.648L375.51 441.648" stroke="#666666" stroke-width="1.75511" stroke-miterlimit="10"/>
<path d="M378.098 456.035L378.098 461.169" stroke="#666666" stroke-width="1.75511" stroke-miterlimit="10"/>
<path d="M380.688 458.602L375.51 458.602" stroke="#666666" stroke-width="1.75511" stroke-miterlimit="10"/>
<path d="M395.207 405.156L395.207 410.29" stroke="#666666" stroke-width="1.75511" stroke-miterlimit="10"/>
<path d="M397.797 407.723L392.62 407.723" stroke="#666666" stroke-width="1.75511" stroke-miterlimit="10"/>
<path d="M395.207 422.113L395.207 427.247" stroke="#666666" stroke-width="1.75511" stroke-miterlimit="10"/>
<path d="M397.797 424.68L392.62 424.68" stroke="#666666" stroke-width="1.75511" stroke-miterlimit="10"/>
<path d="M395.207 439.082L395.207 444.216" stroke="#666666" stroke-width="1.75511" stroke-miterlimit="10"/>
<path d="M397.797 441.648L392.62 441.648" stroke="#666666" stroke-width="1.75511" stroke-miterlimit="10"/>
<path d="M395.211 456.035L395.211 461.169" stroke="#666666" stroke-width="1.75511" stroke-miterlimit="10"/>
<path d="M397.797 458.602L392.62 458.602" stroke="#666666" stroke-width="1.75511" stroke-miterlimit="10"/>
<path d="M412.309 405.156L412.309 410.29" stroke="#666666" stroke-width="1.75511" stroke-miterlimit="10"/>
<path d="M414.898 407.723L409.721 407.723" stroke="#666666" stroke-width="1.75511" stroke-miterlimit="10"/>
<path d="M412.309 422.113L412.309 427.247" stroke="#666666" stroke-width="1.75511" stroke-miterlimit="10"/>
<path d="M414.898 424.68L409.721 424.68" stroke="#666666" stroke-width="1.75511" stroke-miterlimit="10"/>
<path d="M412.309 439.078L412.309 444.212" stroke="#666666" stroke-width="1.75511" stroke-miterlimit="10"/>
<path d="M414.898 441.645L409.721 441.645" stroke="#666666" stroke-width="1.75511" stroke-miterlimit="10"/>
<path d="M412.309 456.031L412.309 461.165" stroke="#666666" stroke-width="1.75511" stroke-miterlimit="10"/>
<path d="M414.898 458.598L409.721 458.598" stroke="#666666" stroke-width="1.75511" stroke-miterlimit="10"/>
</g>
<path d="M335.184 401.733L335.184 484.97L251.464 484.97L251.464 401.733L167.752 401.733L167.752 318.496L251.464 318.496L335.184 401.733Z" fill="url(#paint5_linear_36533_448010)"/>
<path d="M503.07 235.485L503.07 318.498L419.124 318.498L419.124 235.485L335.186 235.485L335.186 152.473L419.124 152.473L503.07 235.485Z" fill="url(#paint6_linear_36533_448010)"/>
<mask id="mask1_36533_448010" style="mask-type:luminance" maskUnits="userSpaceOnUse" x="502" y="69" width="169" height="167">
<path d="M502.877 152.541L502.877 235.617L586.661 235.617L586.661 152.541H646.662H670.438L670.438 69.4638H646.662H586.661L502.877 152.541Z" fill="white"/>
</mask>
<g mask="url(#mask1_36533_448010)">
<path d="M522.756 75.6875C523.25 75.6875 523.652 75.2887 523.652 74.7986C523.652 74.3085 523.25 73.9097 522.756 73.9097C522.262 73.9097 521.86 74.3085 521.86 74.7986C521.86 75.2887 522.262 75.6875 522.756 75.6875Z" fill="#666666"/>
<path d="M522.756 89.8281C523.25 89.8281 523.652 89.4294 523.652 88.9392C523.652 88.4491 523.25 88.0504 522.756 88.0504C522.262 88.0504 521.86 88.4491 521.86 88.9392C521.86 89.4294 522.262 89.8281 522.756 89.8281Z" fill="#666666"/>
<path d="M522.756 103.957C523.25 103.957 523.652 103.558 523.652 103.068C523.652 102.578 523.25 102.179 522.756 102.179C522.262 102.179 521.86 102.578 521.86 103.068C521.86 103.558 522.262 103.957 522.756 103.957Z" fill="#666666"/>
<path d="M522.756 118.09C523.25 118.09 523.652 117.691 523.652 117.201C523.652 116.711 523.25 116.312 522.756 116.312C522.262 116.312 521.86 116.711 521.86 117.201C521.86 117.691 522.262 118.09 522.756 118.09Z" fill="#666666"/>
<path d="M522.756 132.234C523.25 132.234 523.652 131.836 523.652 131.346C523.652 130.855 523.25 130.457 522.756 130.457C522.262 130.457 521.86 130.855 521.86 131.346C521.86 131.836 522.262 132.234 522.756 132.234Z" fill="#666666"/>
<path d="M522.756 146.363C523.25 146.363 523.652 145.965 523.652 145.474C523.652 144.984 523.25 144.586 522.756 144.586C522.262 144.586 521.86 144.984 521.86 145.474C521.86 145.965 522.262 146.363 522.756 146.363Z" fill="#666666"/>
<path d="M522.756 160.5C523.25 160.5 523.652 160.101 523.652 159.611C523.652 159.121 523.25 158.722 522.756 158.722C522.262 158.722 521.86 159.121 521.86 159.611C521.86 160.101 522.262 160.5 522.756 160.5Z" fill="#666666"/>
<path d="M522.756 174.637C523.25 174.637 523.652 174.238 523.652 173.748C523.652 173.258 523.25 172.859 522.756 172.859C522.262 172.859 521.86 173.258 521.86 173.748C521.86 174.238 522.262 174.637 522.756 174.637Z" fill="#666666"/>
<path d="M522.756 188.77C523.25 188.77 523.652 188.371 523.652 187.881C523.652 187.391 523.25 186.992 522.756 186.992C522.262 186.992 521.86 187.391 521.86 187.881C521.86 188.371 522.262 188.77 522.756 188.77Z" fill="#666666"/>
<path d="M522.756 202.906C523.25 202.906 523.652 202.507 523.652 202.017C523.652 201.527 523.25 201.128 522.756 201.128C522.262 201.128 521.86 201.527 521.86 202.017C521.86 202.507 522.262 202.906 522.756 202.906Z" fill="#666666"/>
<path d="M522.756 217.043C523.25 217.043 523.652 216.644 523.652 216.154C523.652 215.664 523.25 215.265 522.756 215.265C522.262 215.265 521.86 215.664 521.86 216.154C521.86 216.644 522.262 217.043 522.756 217.043Z" fill="#666666"/>
<path d="M522.756 231.176C523.25 231.176 523.652 230.777 523.652 230.287C523.652 229.797 523.25 229.398 522.756 229.398C522.262 229.398 521.86 229.797 521.86 230.287C521.86 230.777 522.262 231.176 522.756 231.176Z" fill="#666666"/>
<path d="M537.902 74.7986C537.902 74.3085 537.5 73.9097 537.006 73.9097C536.512 73.9097 536.11 74.3085 536.11 74.7986C536.11 75.2887 536.512 75.6875 537.006 75.6875C537.5 75.6875 537.902 75.2887 537.902 74.7986Z" fill="#666666"/>
<path d="M552.16 74.7986C552.16 74.3085 551.758 73.9097 551.264 73.9097C550.769 73.9097 550.367 74.3085 550.367 74.7986C550.367 75.2887 550.769 75.6875 551.264 75.6875C551.758 75.6875 552.16 75.2887 552.16 74.7986Z" fill="#666666"/>
<path d="M566.422 74.7986C566.422 74.3085 566.02 73.9097 565.525 73.9097C565.031 73.9097 564.629 74.3085 564.629 74.7986C564.629 75.2887 565.031 75.6875 565.525 75.6875C566.02 75.6875 566.422 75.2887 566.422 74.7986Z" fill="#666666"/>
<path d="M580.672 74.7986C580.672 74.3085 580.27 73.9097 579.775 73.9097C579.281 73.9097 578.879 74.3085 578.879 74.7986C578.879 75.2887 579.281 75.6875 579.775 75.6875C580.27 75.6875 580.672 75.2887 580.672 74.7986Z" fill="#666666"/>
<path d="M594.93 74.7986C594.93 74.3085 594.528 73.9097 594.033 73.9097C593.539 73.9097 593.137 74.3085 593.137 74.7986C593.137 75.2887 593.539 75.6875 594.033 75.6875C594.528 75.6875 594.93 75.2887 594.93 74.7986Z" fill="#666666"/>
<path d="M609.188 74.7986C609.188 74.3085 608.785 73.9097 608.291 73.9097C607.797 73.9097 607.395 74.3085 607.395 74.7986C607.395 75.2887 607.797 75.6875 608.291 75.6875C608.785 75.6875 609.188 75.2887 609.188 74.7986Z" fill="#666666"/>
<path d="M623.438 74.7986C623.438 74.3085 623.035 73.9097 622.541 73.9097C622.047 73.9097 621.645 74.3085 621.645 74.7986C621.645 75.2887 622.047 75.6875 622.541 75.6875C623.035 75.6875 623.438 75.2887 623.438 74.7986Z" fill="#666666"/>
<path d="M637.699 74.7986C637.699 74.3085 637.297 73.9097 636.803 73.9097C636.309 73.9097 635.906 74.3085 635.906 74.7986C635.906 75.2887 636.309 75.6875 636.803 75.6875C637.297 75.6875 637.699 75.2887 637.699 74.7986Z" fill="#666666"/>
<path d="M651.957 74.7986C651.957 74.3085 651.555 73.9097 651.061 73.9097C650.566 73.9097 650.164 74.3085 650.164 74.7986C650.164 75.2887 650.566 75.6875 651.061 75.6875C651.555 75.6875 651.957 75.2887 651.957 74.7986Z" fill="#666666"/>
<path d="M666.207 74.7986C666.207 74.3085 665.805 73.9097 665.311 73.9097C664.816 73.9097 664.414 74.3085 664.414 74.7986C664.414 75.2887 664.816 75.6875 665.311 75.6875C665.805 75.6875 666.207 75.2887 666.207 74.7986Z" fill="#666666"/>
<path d="M537.902 88.9275C537.902 88.4374 537.5 88.0387 537.006 88.0387C536.512 88.0387 536.11 88.4374 536.11 88.9275C536.11 89.4177 536.512 89.8164 537.006 89.8164C537.5 89.8164 537.902 89.4177 537.902 88.9275Z" fill="#666666"/>
<path d="M552.16 88.9275C552.16 88.4374 551.758 88.0387 551.264 88.0387C550.769 88.0387 550.367 88.4374 550.367 88.9275C550.367 89.4177 550.769 89.8164 551.264 89.8164C551.758 89.8164 552.16 89.4177 552.16 88.9275Z" fill="#666666"/>
<path d="M566.422 88.9275C566.422 88.4374 566.02 88.0387 565.525 88.0387C565.031 88.0387 564.629 88.4374 564.629 88.9275C564.629 89.4177 565.031 89.8164 565.525 89.8164C566.02 89.8164 566.422 89.4177 566.422 88.9275Z" fill="#666666"/>
<path d="M580.672 88.9275C580.672 88.4374 580.27 88.0387 579.775 88.0387C579.281 88.0387 578.879 88.4374 578.879 88.9275C578.879 89.4177 579.281 89.8164 579.775 89.8164C580.27 89.8164 580.672 89.4177 580.672 88.9275Z" fill="#666666"/>
<path d="M594.93 88.9275C594.93 88.4374 594.528 88.0387 594.033 88.0387C593.539 88.0387 593.137 88.4374 593.137 88.9275C593.137 89.4177 593.539 89.8164 594.033 89.8164C594.528 89.8164 594.93 89.4177 594.93 88.9275Z" fill="#666666"/>
<path d="M609.188 88.9275C609.188 88.4374 608.785 88.0387 608.291 88.0387C607.797 88.0387 607.395 88.4374 607.395 88.9275C607.395 89.4177 607.797 89.8164 608.291 89.8164C608.785 89.8164 609.188 89.4177 609.188 88.9275Z" fill="#666666"/>
<path d="M623.438 88.9275C623.438 88.4374 623.035 88.0387 622.541 88.0387C622.047 88.0387 621.645 88.4374 621.645 88.9275C621.645 89.4177 622.047 89.8164 622.541 89.8164C623.035 89.8164 623.438 89.4177 623.438 88.9275Z" fill="#666666"/>
<path d="M637.699 88.9275C637.699 88.4374 637.297 88.0387 636.803 88.0387C636.309 88.0387 635.906 88.4374 635.906 88.9275C635.906 89.4177 636.309 89.8164 636.803 89.8164C637.297 89.8164 637.699 89.4177 637.699 88.9275Z" fill="#666666"/>
<path d="M651.957 88.9275C651.957 88.4374 651.555 88.0387 651.061 88.0387C650.566 88.0387 650.164 88.4374 650.164 88.9275C650.164 89.4177 650.566 89.8164 651.061 89.8164C651.555 89.8164 651.957 89.4177 651.957 88.9275Z" fill="#666666"/>
<path d="M666.207 88.9275C666.207 88.4374 665.805 88.0387 665.311 88.0387C664.816 88.0387 664.414 88.4374 664.414 88.9275C664.414 89.4177 664.816 89.8164 665.311 89.8164C665.805 89.8164 666.207 89.4177 666.207 88.9275Z" fill="#666666"/>
<path d="M537.902 103.068C537.902 102.578 537.5 102.179 537.006 102.179C536.512 102.179 536.11 102.578 536.11 103.068C536.11 103.558 536.512 103.957 537.006 103.957C537.5 103.957 537.902 103.558 537.902 103.068Z" fill="#666666"/>
<path d="M552.16 103.068C552.16 102.578 551.758 102.179 551.264 102.179C550.769 102.179 550.367 102.578 550.367 103.068C550.367 103.558 550.769 103.957 551.264 103.957C551.758 103.957 552.16 103.558 552.16 103.068Z" fill="#666666"/>
<path d="M566.422 103.068C566.422 102.578 566.02 102.179 565.525 102.179C565.031 102.179 564.629 102.578 564.629 103.068C564.629 103.558 565.031 103.957 565.525 103.957C566.02 103.957 566.422 103.558 566.422 103.068Z" fill="#666666"/>
<path d="M580.672 103.068C580.672 102.578 580.27 102.179 579.775 102.179C579.281 102.179 578.879 102.578 578.879 103.068C578.879 103.558 579.281 103.957 579.775 103.957C580.27 103.957 580.672 103.558 580.672 103.068Z" fill="#666666"/>
<path d="M594.93 103.068C594.93 102.578 594.528 102.179 594.033 102.179C593.539 102.179 593.137 102.578 593.137 103.068C593.137 103.558 593.539 103.957 594.033 103.957C594.528 103.957 594.93 103.558 594.93 103.068Z" fill="#666666"/>
<path d="M609.188 103.068C609.188 102.578 608.785 102.179 608.291 102.179C607.797 102.179 607.395 102.578 607.395 103.068C607.395 103.558 607.797 103.957 608.291 103.957C608.785 103.957 609.188 103.558 609.188 103.068Z" fill="#666666"/>
<path d="M623.438 103.068C623.438 102.578 623.035 102.179 622.541 102.179C622.047 102.179 621.645 102.578 621.645 103.068C621.645 103.558 622.047 103.957 622.541 103.957C623.035 103.957 623.438 103.558 623.438 103.068Z" fill="#666666"/>
<path d="M637.699 103.068C637.699 102.578 637.297 102.179 636.803 102.179C636.309 102.179 635.906 102.578 635.906 103.068C635.906 103.558 636.309 103.957 636.803 103.957C637.297 103.957 637.699 103.558 637.699 103.068Z" fill="#666666"/>
<path d="M651.957 103.068C651.957 102.578 651.555 102.179 651.061 102.179C650.566 102.179 650.164 102.578 650.164 103.068C650.164 103.558 650.566 103.957 651.061 103.957C651.555 103.957 651.957 103.558 651.957 103.068Z" fill="#666666"/>
<path d="M666.207 103.068C666.207 102.578 665.805 102.179 665.311 102.179C664.816 102.179 664.414 102.578 664.414 103.068C664.414 103.558 664.816 103.957 665.311 103.957C665.805 103.957 666.207 103.558 666.207 103.068Z" fill="#666666"/>
<path d="M537.902 117.201C537.902 116.711 537.5 116.312 537.006 116.312C536.512 116.312 536.11 116.711 536.11 117.201C536.11 117.691 536.512 118.09 537.006 118.09C537.5 118.09 537.902 117.691 537.902 117.201Z" fill="#666666"/>
<path d="M552.16 117.201C552.16 116.711 551.758 116.312 551.264 116.312C550.769 116.312 550.367 116.711 550.367 117.201C550.367 117.691 550.769 118.09 551.264 118.09C551.758 118.09 552.16 117.691 552.16 117.201Z" fill="#666666"/>
<path d="M566.422 117.205C566.422 116.715 566.02 116.316 565.525 116.316C565.031 116.316 564.629 116.715 564.629 117.205C564.629 117.695 565.031 118.094 565.525 118.094C566.02 118.094 566.422 117.695 566.422 117.205Z" fill="#666666"/>
<path d="M580.672 117.205C580.672 116.715 580.27 116.316 579.775 116.316C579.281 116.316 578.879 116.715 578.879 117.205C578.879 117.695 579.281 118.094 579.775 118.094C580.27 118.094 580.672 117.695 580.672 117.205Z" fill="#666666"/>
<path d="M594.93 117.205C594.93 116.715 594.528 116.316 594.033 116.316C593.539 116.316 593.137 116.715 593.137 117.205C593.137 117.695 593.539 118.094 594.033 118.094C594.528 118.094 594.93 117.695 594.93 117.205Z" fill="#666666"/>
<path d="M609.188 117.205C609.188 116.715 608.785 116.316 608.291 116.316C607.797 116.316 607.395 116.715 607.395 117.205C607.395 117.695 607.797 118.094 608.291 118.094C608.785 118.094 609.188 117.695 609.188 117.205Z" fill="#666666"/>
<path d="M623.438 117.205C623.438 116.715 623.035 116.316 622.541 116.316C622.047 116.316 621.645 116.715 621.645 117.205C621.645 117.695 622.047 118.094 622.541 118.094C623.035 118.094 623.438 117.695 623.438 117.205Z" fill="#666666"/>
<path d="M637.699 117.205C637.699 116.715 637.297 116.316 636.803 116.316C636.309 116.316 635.906 116.715 635.906 117.205C635.906 117.695 636.309 118.094 636.803 118.094C637.297 118.094 637.699 117.695 637.699 117.205Z" fill="#666666"/>
<path d="M651.957 117.201C651.957 116.711 651.555 116.312 651.061 116.312C650.566 116.312 650.164 116.711 650.164 117.201C650.164 117.691 650.566 118.09 651.061 118.09C651.555 118.09 651.957 117.691 651.957 117.201Z" fill="#666666"/>
<path d="M666.207 117.201C666.207 116.711 665.805 116.312 665.311 116.312C664.816 116.312 664.414 116.711 664.414 117.201C664.414 117.691 664.816 118.09 665.311 118.09C665.805 118.09 666.207 117.691 666.207 117.201Z" fill="#666666"/>
<path d="M537.902 131.338C537.902 130.848 537.5 130.449 537.006 130.449C536.512 130.449 536.11 130.848 536.11 131.338C536.11 131.828 536.512 132.227 537.006 132.227C537.5 132.227 537.902 131.828 537.902 131.338Z" fill="#666666"/>
<path d="M552.16 131.338C552.16 130.848 551.758 130.449 551.264 130.449C550.769 130.449 550.367 130.848 550.367 131.338C550.367 131.828 550.769 132.227 551.264 132.227C551.758 132.227 552.16 131.828 552.16 131.338Z" fill="#666666"/>
<path d="M566.422 131.338C566.422 130.848 566.02 130.449 565.525 130.449C565.031 130.449 564.629 130.848 564.629 131.338C564.629 131.828 565.031 132.227 565.525 132.227C566.02 132.227 566.422 131.828 566.422 131.338Z" fill="#666666"/>
<path d="M580.672 131.338C580.672 130.848 580.27 130.449 579.775 130.449C579.281 130.449 578.879 130.848 578.879 131.338C578.879 131.828 579.281 132.227 579.775 132.227C580.27 132.227 580.672 131.828 580.672 131.338Z" fill="#666666"/>
<path d="M594.93 131.338C594.93 130.848 594.528 130.449 594.033 130.449C593.539 130.449 593.137 130.848 593.137 131.338C593.137 131.828 593.539 132.227 594.033 132.227C594.528 132.227 594.93 131.828 594.93 131.338Z" fill="#666666"/>
<path d="M609.188 131.338C609.188 130.848 608.785 130.449 608.291 130.449C607.797 130.449 607.395 130.848 607.395 131.338C607.395 131.828 607.797 132.227 608.291 132.227C608.785 132.227 609.188 131.828 609.188 131.338Z" fill="#666666"/>
<path d="M623.438 131.338C623.438 130.848 623.035 130.449 622.541 130.449C622.047 130.449 621.645 130.848 621.645 131.338C621.645 131.828 622.047 132.227 622.541 132.227C623.035 132.227 623.438 131.828 623.438 131.338Z" fill="#666666"/>
<path d="M637.699 131.338C637.699 130.848 637.297 130.449 636.803 130.449C636.309 130.449 635.906 130.848 635.906 131.338C635.906 131.828 636.309 132.227 636.803 132.227C637.297 132.227 637.699 131.828 637.699 131.338Z" fill="#666666"/>
<path d="M651.957 131.338C651.957 130.848 651.555 130.449 651.061 130.449C650.566 130.449 650.164 130.848 650.164 131.338C650.164 131.828 650.566 132.227 651.061 132.227C651.555 132.227 651.957 131.828 651.957 131.338Z" fill="#666666"/>
<path d="M665.311 130.449C664.816 130.449 664.414 130.847 664.414 131.338C664.414 131.829 664.816 132.227 665.311 132.227C665.806 132.227 666.207 131.829 666.207 131.338C666.207 130.847 665.806 130.449 665.311 130.449Z" fill="#666666"/>
<path d="M537.902 145.474C537.902 144.984 537.5 144.586 537.006 144.586C536.512 144.586 536.11 144.984 536.11 145.474C536.11 145.965 536.512 146.363 537.006 146.363C537.5 146.363 537.902 145.965 537.902 145.474Z" fill="#666666"/>
<path d="M552.16 145.474C552.16 144.984 551.758 144.586 551.264 144.586C550.769 144.586 550.367 144.984 550.367 145.474C550.367 145.965 550.769 146.363 551.264 146.363C551.758 146.363 552.16 145.965 552.16 145.474Z" fill="#666666"/>
<path d="M566.422 145.474C566.422 144.984 566.02 144.586 565.525 144.586C565.031 144.586 564.629 144.984 564.629 145.474C564.629 145.965 565.031 146.363 565.525 146.363C566.02 146.363 566.422 145.965 566.422 145.474Z" fill="#666666"/>
<path d="M580.672 145.474C580.672 144.984 580.27 144.586 579.775 144.586C579.281 144.586 578.879 144.984 578.879 145.474C578.879 145.965 579.281 146.363 579.775 146.363C580.27 146.363 580.672 145.965 580.672 145.474Z" fill="#666666"/>
<path d="M594.93 145.474C594.93 144.984 594.528 144.586 594.033 144.586C593.539 144.586 593.137 144.984 593.137 145.474C593.137 145.965 593.539 146.363 594.033 146.363C594.528 146.363 594.93 145.965 594.93 145.474Z" fill="#666666"/>
<path d="M609.188 145.474C609.188 144.984 608.785 144.586 608.291 144.586C607.797 144.586 607.395 144.984 607.395 145.474C607.395 145.965 607.797 146.363 608.291 146.363C608.785 146.363 609.188 145.965 609.188 145.474Z" fill="#666666"/>
<path d="M623.438 145.474C623.438 144.984 623.035 144.586 622.541 144.586C622.047 144.586 621.645 144.984 621.645 145.474C621.645 145.965 622.047 146.363 622.541 146.363C623.035 146.363 623.438 145.965 623.438 145.474Z" fill="#666666"/>
<path d="M637.699 145.474C637.699 144.984 637.297 144.586 636.803 144.586C636.309 144.586 635.906 144.984 635.906 145.474C635.906 145.965 636.309 146.363 636.803 146.363C637.297 146.363 637.699 145.965 637.699 145.474Z" fill="#666666"/>
<path d="M651.957 145.474C651.957 144.984 651.555 144.586 651.061 144.586C650.566 144.586 650.164 144.984 650.164 145.474C650.164 145.965 650.566 146.363 651.061 146.363C651.555 146.363 651.957 145.965 651.957 145.474Z" fill="#666666"/>
<path d="M665.311 144.586C664.816 144.586 664.414 144.983 664.414 145.474C664.414 145.965 664.816 146.363 665.311 146.363C665.806 146.363 666.207 145.965 666.207 145.474C666.207 144.983 665.806 144.586 665.311 144.586Z" fill="#666666"/>
<path d="M537.902 159.611C537.902 159.121 537.5 158.722 537.006 158.722C536.512 158.722 536.11 159.121 536.11 159.611C536.11 160.101 536.512 160.5 537.006 160.5C537.5 160.5 537.902 160.101 537.902 159.611Z" fill="#666666"/>
<path d="M552.16 159.611C552.16 159.121 551.758 158.722 551.264 158.722C550.769 158.722 550.367 159.121 550.367 159.611C550.367 160.101 550.769 160.5 551.264 160.5C551.758 160.5 552.16 160.101 552.16 159.611Z" fill="#666666"/>
<path d="M566.422 159.611C566.422 159.121 566.02 158.722 565.525 158.722C565.031 158.722 564.629 159.121 564.629 159.611C564.629 160.101 565.031 160.5 565.525 160.5C566.02 160.5 566.422 160.101 566.422 159.611Z" fill="#666666"/>
<path d="M580.672 159.611C580.672 159.121 580.27 158.722 579.775 158.722C579.281 158.722 578.879 159.121 578.879 159.611C578.879 160.101 579.281 160.5 579.775 160.5C580.27 160.5 580.672 160.101 580.672 159.611Z" fill="#666666"/>
<path d="M594.93 159.611C594.93 159.121 594.528 158.722 594.033 158.722C593.539 158.722 593.137 159.121 593.137 159.611C593.137 160.101 593.539 160.5 594.033 160.5C594.528 160.5 594.93 160.101 594.93 159.611Z" fill="#666666"/>
<path d="M609.188 159.611C609.188 159.121 608.785 158.722 608.291 158.722C607.797 158.722 607.395 159.121 607.395 159.611C607.395 160.101 607.797 160.5 608.291 160.5C608.785 160.5 609.188 160.101 609.188 159.611Z" fill="#666666"/>
<path d="M623.438 159.611C623.438 159.121 623.035 158.722 622.541 158.722C622.047 158.722 621.645 159.121 621.645 159.611C621.645 160.101 622.047 160.5 622.541 160.5C623.035 160.5 623.438 160.101 623.438 159.611Z" fill="#666666"/>
<path d="M637.699 159.611C637.699 159.121 637.297 158.722 636.803 158.722C636.309 158.722 635.906 159.121 635.906 159.611C635.906 160.101 636.309 160.5 636.803 160.5C637.297 160.5 637.699 160.101 637.699 159.611Z" fill="#666666"/>
<path d="M651.957 159.611C651.957 159.121 651.555 158.722 651.061 158.722C650.566 158.722 650.164 159.121 650.164 159.611C650.164 160.101 650.566 160.5 651.061 160.5C651.555 160.5 651.957 160.101 651.957 159.611Z" fill="#666666"/>
<path d="M666.207 159.611C666.207 159.121 665.805 158.722 665.311 158.722C664.816 158.722 664.414 159.121 664.414 159.611C664.414 160.101 664.816 160.5 665.311 160.5C665.805 160.5 666.207 160.101 666.207 159.611Z" fill="#666666"/>
<path d="M537.902 173.74C537.902 173.25 537.5 172.851 537.006 172.851C536.512 172.851 536.11 173.25 536.11 173.74C536.11 174.23 536.512 174.629 537.006 174.629C537.5 174.629 537.902 174.23 537.902 173.74Z" fill="#666666"/>
<path d="M552.16 173.74C552.16 173.25 551.758 172.851 551.264 172.851C550.769 172.851 550.367 173.25 550.367 173.74C550.367 174.23 550.769 174.629 551.264 174.629C551.758 174.629 552.16 174.23 552.16 173.74Z" fill="#666666"/>
<path d="M566.422 173.74C566.422 173.25 566.02 172.851 565.525 172.851C565.031 172.851 564.629 173.25 564.629 173.74C564.629 174.23 565.031 174.629 565.525 174.629C566.02 174.629 566.422 174.23 566.422 173.74Z" fill="#666666"/>
<path d="M580.672 173.74C580.672 173.25 580.27 172.851 579.775 172.851C579.281 172.851 578.879 173.25 578.879 173.74C578.879 174.23 579.281 174.629 579.775 174.629C580.27 174.629 580.672 174.23 580.672 173.74Z" fill="#666666"/>
<path d="M594.93 173.74C594.93 173.25 594.528 172.851 594.033 172.851C593.539 172.851 593.137 173.25 593.137 173.74C593.137 174.23 593.539 174.629 594.033 174.629C594.528 174.629 594.93 174.23 594.93 173.74Z" fill="#666666"/>
<path d="M609.188 173.74C609.188 173.25 608.785 172.851 608.291 172.851C607.797 172.851 607.395 173.25 607.395 173.74C607.395 174.23 607.797 174.629 608.291 174.629C608.785 174.629 609.188 174.23 609.188 173.74Z" fill="#666666"/>
<path d="M623.438 173.74C623.438 173.25 623.035 172.851 622.541 172.851C622.047 172.851 621.645 173.25 621.645 173.74C621.645 174.23 622.047 174.629 622.541 174.629C623.035 174.629 623.438 174.23 623.438 173.74Z" fill="#666666"/>
<path d="M637.699 173.74C637.699 173.25 637.297 172.851 636.803 172.851C636.309 172.851 635.906 173.25 635.906 173.74C635.906 174.23 636.309 174.629 636.803 174.629C637.297 174.629 637.699 174.23 637.699 173.74Z" fill="#666666"/>
<path d="M651.957 173.74C651.957 173.25 651.555 172.851 651.061 172.851C650.566 172.851 650.164 173.25 650.164 173.74C650.164 174.23 650.566 174.629 651.061 174.629C651.555 174.629 651.957 174.23 651.957 173.74Z" fill="#666666"/>
<path d="M666.207 173.74C666.207 173.25 665.805 172.851 665.311 172.851C664.816 172.851 664.414 173.25 664.414 173.74C664.414 174.23 664.816 174.629 665.311 174.629C665.805 174.629 666.207 174.23 666.207 173.74Z" fill="#666666"/>
<path d="M537.902 187.881C537.902 187.391 537.5 186.992 537.006 186.992C536.512 186.992 536.11 187.391 536.11 187.881C536.11 188.371 536.512 188.77 537.006 188.77C537.5 188.77 537.902 188.371 537.902 187.881Z" fill="#666666"/>
<path d="M552.16 187.881C552.16 187.391 551.758 186.992 551.264 186.992C550.769 186.992 550.367 187.391 550.367 187.881C550.367 188.371 550.769 188.77 551.264 188.77C551.758 188.77 552.16 188.371 552.16 187.881Z" fill="#666666"/>
<path d="M566.422 187.881C566.422 187.391 566.02 186.992 565.525 186.992C565.031 186.992 564.629 187.391 564.629 187.881C564.629 188.371 565.031 188.77 565.525 188.77C566.02 188.77 566.422 188.371 566.422 187.881Z" fill="#666666"/>
<path d="M580.672 187.881C580.672 187.391 580.27 186.992 579.775 186.992C579.281 186.992 578.879 187.391 578.879 187.881C578.879 188.371 579.281 188.77 579.775 188.77C580.27 188.77 580.672 188.371 580.672 187.881Z" fill="#666666"/>
<path d="M594.93 187.881C594.93 187.391 594.528 186.992 594.033 186.992C593.539 186.992 593.137 187.391 593.137 187.881C593.137 188.371 593.539 188.77 594.033 188.77C594.528 188.77 594.93 188.371 594.93 187.881Z" fill="#666666"/>
<path d="M609.188 187.881C609.188 187.391 608.785 186.992 608.291 186.992C607.797 186.992 607.395 187.391 607.395 187.881C607.395 188.371 607.797 188.77 608.291 188.77C608.785 188.77 609.188 188.371 609.188 187.881Z" fill="#666666"/>
<path d="M623.438 187.881C623.438 187.391 623.035 186.992 622.541 186.992C622.047 186.992 621.645 187.391 621.645 187.881C621.645 188.371 622.047 188.77 622.541 188.77C623.035 188.77 623.438 188.371 623.438 187.881Z" fill="#666666"/>
<path d="M637.699 187.881C637.699 187.391 637.297 186.992 636.803 186.992C636.309 186.992 635.906 187.391 635.906 187.881C635.906 188.371 636.309 188.77 636.803 188.77C637.297 188.77 637.699 188.371 637.699 187.881Z" fill="#666666"/>
<path d="M651.957 187.881C651.957 187.391 651.555 186.992 651.061 186.992C650.566 186.992 650.164 187.391 650.164 187.881C650.164 188.371 650.566 188.77 651.061 188.77C651.555 188.77 651.957 188.371 651.957 187.881Z" fill="#666666"/>
<path d="M666.207 187.881C666.207 187.391 665.805 186.992 665.311 186.992C664.816 186.992 664.414 187.391 664.414 187.881C664.414 188.371 664.816 188.77 665.311 188.77C665.805 188.77 666.207 188.371 666.207 187.881Z" fill="#666666"/>
<path d="M537.902 202.017C537.902 201.527 537.5 201.128 537.006 201.128C536.512 201.128 536.11 201.527 536.11 202.017C536.11 202.507 536.512 202.906 537.006 202.906C537.5 202.906 537.902 202.507 537.902 202.017Z" fill="#666666"/>
<path d="M552.16 202.017C552.16 201.527 551.758 201.128 551.264 201.128C550.769 201.128 550.367 201.527 550.367 202.017C550.367 202.507 550.769 202.906 551.264 202.906C551.758 202.906 552.16 202.507 552.16 202.017Z" fill="#666666"/>
<path d="M566.422 202.021C566.422 201.531 566.02 201.132 565.525 201.132C565.031 201.132 564.629 201.531 564.629 202.021C564.629 202.511 565.031 202.91 565.525 202.91C566.02 202.91 566.422 202.511 566.422 202.021Z" fill="#666666"/>
<path d="M580.672 202.017C580.672 201.527 580.27 201.128 579.775 201.128C579.281 201.128 578.879 201.527 578.879 202.017C578.879 202.507 579.281 202.906 579.775 202.906C580.27 202.906 580.672 202.507 580.672 202.017Z" fill="#666666"/>
<path d="M594.93 202.017C594.93 201.527 594.528 201.128 594.033 201.128C593.539 201.128 593.137 201.527 593.137 202.017C593.137 202.507 593.539 202.906 594.033 202.906C594.528 202.906 594.93 202.507 594.93 202.017Z" fill="#666666"/>
<path d="M609.188 202.017C609.188 201.527 608.785 201.128 608.291 201.128C607.797 201.128 607.395 201.527 607.395 202.017C607.395 202.507 607.797 202.906 608.291 202.906C608.785 202.906 609.188 202.507 609.188 202.017Z" fill="#666666"/>
<path d="M623.438 202.017C623.438 201.527 623.035 201.128 622.541 201.128C622.047 201.128 621.645 201.527 621.645 202.017C621.645 202.507 622.047 202.906 622.541 202.906C623.035 202.906 623.438 202.507 623.438 202.017Z" fill="#666666"/>
<path d="M637.699 202.021C637.699 201.531 637.297 201.132 636.803 201.132C636.309 201.132 635.906 201.531 635.906 202.021C635.906 202.511 636.309 202.91 636.803 202.91C637.297 202.91 637.699 202.511 637.699 202.021Z" fill="#666666"/>
<path d="M651.957 202.017C651.957 201.527 651.555 201.128 651.061 201.128C650.566 201.128 650.164 201.527 650.164 202.017C650.164 202.507 650.566 202.906 651.061 202.906C651.555 202.906 651.957 202.507 651.957 202.017Z" fill="#666666"/>
<path d="M666.207 202.017C666.207 201.527 665.805 201.128 665.311 201.128C664.816 201.128 664.414 201.527 664.414 202.017C664.414 202.507 664.816 202.906 665.311 202.906C665.805 202.906 666.207 202.507 666.207 202.017Z" fill="#666666"/>
<path d="M537.902 216.154C537.902 215.664 537.5 215.265 537.006 215.265C536.512 215.265 536.11 215.664 536.11 216.154C536.11 216.644 536.512 217.043 537.006 217.043C537.5 217.043 537.902 216.644 537.902 216.154Z" fill="#666666"/>
<path d="M552.16 216.154C552.16 215.664 551.758 215.265 551.264 215.265C550.769 215.265 550.367 215.664 550.367 216.154C550.367 216.644 550.769 217.043 551.264 217.043C551.758 217.043 552.16 216.644 552.16 216.154Z" fill="#666666"/>
<path d="M566.422 216.154C566.422 215.664 566.02 215.265 565.525 215.265C565.031 215.265 564.629 215.664 564.629 216.154C564.629 216.644 565.031 217.043 565.525 217.043C566.02 217.043 566.422 216.644 566.422 216.154Z" fill="#666666"/>
<path d="M580.672 216.154C580.672 215.664 580.27 215.265 579.775 215.265C579.281 215.265 578.879 215.664 578.879 216.154C578.879 216.644 579.281 217.043 579.775 217.043C580.27 217.043 580.672 216.644 580.672 216.154Z" fill="#666666"/>
<path d="M594.93 216.154C594.93 215.664 594.528 215.265 594.033 215.265C593.539 215.265 593.137 215.664 593.137 216.154C593.137 216.644 593.539 217.043 594.033 217.043C594.528 217.043 594.93 216.644 594.93 216.154Z" fill="#666666"/>
<path d="M609.188 216.154C609.188 215.664 608.785 215.265 608.291 215.265C607.797 215.265 607.395 215.664 607.395 216.154C607.395 216.644 607.797 217.043 608.291 217.043C608.785 217.043 609.188 216.644 609.188 216.154Z" fill="#666666"/>
<path d="M623.438 216.154C623.438 215.664 623.035 215.265 622.541 215.265C622.047 215.265 621.645 215.664 621.645 216.154C621.645 216.644 622.047 217.043 622.541 217.043C623.035 217.043 623.438 216.644 623.438 216.154Z" fill="#666666"/>
<path d="M637.699 216.154C637.699 215.664 637.297 215.265 636.803 215.265C636.309 215.265 635.906 215.664 635.906 216.154C635.906 216.644 636.309 217.043 636.803 217.043C637.297 217.043 637.699 216.644 637.699 216.154Z" fill="#666666"/>
<path d="M651.957 216.154C651.957 215.664 651.555 215.265 651.061 215.265C650.566 215.265 650.164 215.664 650.164 216.154C650.164 216.644 650.566 217.043 651.061 217.043C651.555 217.043 651.957 216.644 651.957 216.154Z" fill="#666666"/>
<path d="M666.207 216.154C666.207 215.664 665.805 215.265 665.311 215.265C664.816 215.265 664.414 215.664 664.414 216.154C664.414 216.644 664.816 217.043 665.311 217.043C665.805 217.043 666.207 216.644 666.207 216.154Z" fill="#666666"/>
<path d="M537.902 230.287C537.902 229.797 537.5 229.398 537.006 229.398C536.512 229.398 536.11 229.797 536.11 230.287C536.11 230.777 536.512 231.176 537.006 231.176C537.5 231.176 537.902 230.777 537.902 230.287Z" fill="#666666"/>
<path d="M552.16 230.287C552.16 229.797 551.758 229.398 551.264 229.398C550.769 229.398 550.367 229.797 550.367 230.287C550.367 230.777 550.769 231.176 551.264 231.176C551.758 231.176 552.16 230.777 552.16 230.287Z" fill="#666666"/>
<path d="M509.395 74.7986C509.395 74.3085 508.992 73.9097 508.498 73.9097C508.004 73.9097 507.602 74.3085 507.602 74.7986C507.602 75.2887 508.004 75.6875 508.498 75.6875C508.992 75.6875 509.395 75.2887 509.395 74.7986Z" fill="#666666"/>
<path d="M509.395 88.9275C509.395 88.4374 508.992 88.0387 508.498 88.0387C508.004 88.0387 507.602 88.4374 507.602 88.9275C507.602 89.4177 508.004 89.8164 508.498 89.8164C508.992 89.8164 509.395 89.4177 509.395 88.9275Z" fill="#666666"/>
<path d="M509.395 103.068C509.395 102.578 508.992 102.179 508.498 102.179C508.004 102.179 507.602 102.578 507.602 103.068C507.602 103.558 508.004 103.957 508.498 103.957C508.992 103.957 509.395 103.558 509.395 103.068Z" fill="#666666"/>
<path d="M509.395 117.205C509.395 116.715 508.992 116.316 508.498 116.316C508.004 116.316 507.602 116.715 507.602 117.205C507.602 117.695 508.004 118.094 508.498 118.094C508.992 118.094 509.395 117.695 509.395 117.205Z" fill="#666666"/>
<path d="M509.395 131.338C509.395 130.848 508.992 130.449 508.498 130.449C508.004 130.449 507.602 130.848 507.602 131.338C507.602 131.828 508.004 132.227 508.498 132.227C508.992 132.227 509.395 131.828 509.395 131.338Z" fill="#666666"/>
<path d="M509.395 145.474C509.395 144.984 508.992 144.586 508.498 144.586C508.004 144.586 507.602 144.984 507.602 145.474C507.602 145.965 508.004 146.363 508.498 146.363C508.992 146.363 509.395 145.965 509.395 145.474Z" fill="#666666"/>
<path d="M509.395 159.611C509.395 159.121 508.992 158.722 508.498 158.722C508.004 158.722 507.602 159.121 507.602 159.611C507.602 160.101 508.004 160.5 508.498 160.5C508.992 160.5 509.395 160.101 509.395 159.611Z" fill="#666666"/>
<path d="M509.395 173.74C509.395 173.25 508.992 172.851 508.498 172.851C508.004 172.851 507.602 173.25 507.602 173.74C507.602 174.23 508.004 174.629 508.498 174.629C508.992 174.629 509.395 174.23 509.395 173.74Z" fill="#666666"/>
<path d="M509.395 187.881C509.395 187.391 508.992 186.992 508.498 186.992C508.004 186.992 507.602 187.391 507.602 187.881C507.602 188.371 508.004 188.77 508.498 188.77C508.992 188.77 509.395 188.371 509.395 187.881Z" fill="#666666"/>
<path d="M509.395 202.017C509.395 201.527 508.992 201.128 508.498 201.128C508.004 201.128 507.602 201.527 507.602 202.017C507.602 202.507 508.004 202.906 508.498 202.906C508.992 202.906 509.395 202.507 509.395 202.017Z" fill="#666666"/>
<path d="M509.395 216.154C509.395 215.664 508.992 215.265 508.498 215.265C508.004 215.265 507.602 215.664 507.602 216.154C507.602 216.644 508.004 217.043 508.498 217.043C508.992 217.043 509.395 216.644 509.395 216.154Z" fill="#666666"/>
<path d="M509.391 230.287C509.391 229.797 508.988 229.398 508.494 229.398C508 229.398 507.598 229.797 507.598 230.287C507.598 230.777 508 231.176 508.494 231.176C508.988 231.176 509.391 230.777 509.391 230.287Z" fill="#666666"/>
<path d="M566.422 230.287C566.422 229.797 566.02 229.398 565.525 229.398C565.031 229.398 564.629 229.797 564.629 230.287C564.629 230.777 565.031 231.176 565.525 231.176C566.02 231.176 566.422 230.777 566.422 230.287Z" fill="#666666"/>
<path d="M580.672 230.287C580.672 229.797 580.27 229.398 579.775 229.398C579.281 229.398 578.879 229.797 578.879 230.287C578.879 230.777 579.281 231.176 579.775 231.176C580.27 231.176 580.672 230.777 580.672 230.287Z" fill="#666666"/>
<path d="M594.93 230.287C594.93 229.797 594.528 229.398 594.033 229.398C593.539 229.398 593.137 229.797 593.137 230.287C593.137 230.777 593.539 231.176 594.033 231.176C594.528 231.176 594.93 230.777 594.93 230.287Z" fill="#666666"/>
<path d="M609.188 230.287C609.188 229.797 608.785 229.398 608.291 229.398C607.797 229.398 607.395 229.797 607.395 230.287C607.395 230.777 607.797 231.176 608.291 231.176C608.785 231.176 609.188 230.777 609.188 230.287Z" fill="#666666"/>
<path d="M623.438 230.287C623.438 229.797 623.035 229.398 622.541 229.398C622.047 229.398 621.645 229.797 621.645 230.287C621.645 230.777 622.047 231.176 622.541 231.176C623.035 231.176 623.438 230.777 623.438 230.287Z" fill="#666666"/>
<path d="M637.695 230.287C637.695 229.797 637.293 229.398 636.799 229.398C636.305 229.398 635.902 229.797 635.902 230.287C635.902 230.777 636.305 231.176 636.799 231.176C637.293 231.176 637.695 230.777 637.695 230.287Z" fill="#666666"/>
<path d="M651.957 230.287C651.957 229.797 651.555 229.398 651.061 229.398C650.566 229.398 650.164 229.797 650.164 230.287C650.164 230.777 650.566 231.176 651.061 231.176C651.555 231.176 651.957 230.777 651.957 230.287Z" fill="#666666"/>
<path d="M666.207 230.287C666.207 229.797 665.805 229.398 665.311 229.398C664.816 229.398 664.414 229.797 664.414 230.287C664.414 230.777 664.816 231.176 665.311 231.176C665.805 231.176 666.207 230.777 666.207 230.287Z" fill="#666666"/>
</g>
</g>
<path d="M419.031 152.276L419.031 235.513L335.311 235.513L335.311 152.276L251.6 152.276L251.6 69.0391L335.311 69.0391L419.031 152.276Z" fill="url(#paint7_linear_36533_448010)"/>
<path d="M502.746 -13.9717L502.746 69.041L419.026 69.041L419.026 -13.9717L335.315 -13.9717L335.315 -96.9844L419.026 -96.9844L502.746 -13.9717Z" fill="url(#paint8_linear_36533_448010)"/>
<path d="M83.7139 152.504L-0.00187683 152.504L-0.00186949 69.2627L83.7139 69.2627L83.7139 -13.9701L167.43 -13.9701L167.43 69.2627L83.7139 152.504Z" fill="url(#paint9_linear_36533_448010)"/>
<path d="M167.657 69.0391L251.599 69.0391V152.28L167.657 152.28L167.657 235.513H83.7148L83.7148 152.28L167.657 69.0391Z" fill="url(#paint10_linear_36533_448010)"/>
<path d="M251.605 401.763L251.605 318.526L167.659 318.526L167.659 401.763L83.7214 401.763L83.7214 485L167.659 485L251.605 401.763Z" fill="url(#paint11_linear_36533_448010)"/>
<mask id="mask2_36533_448010" style="mask-type:luminance" maskUnits="userSpaceOnUse" x="251" y="-97" width="168" height="167">
<path d="M418.967 -13.8543L418.967 -96.9268L335.187 -96.9268L335.187 -13.8543L251.406 -13.8543L251.406 69.2266L335.187 69.2266L418.967 -13.8543Z" fill="white"/>
</mask>
<g mask="url(#mask2_36533_448010)">
<path d="M377.898 14.9648L377.898 9.83097" stroke="#666666" stroke-width="1.75511" stroke-miterlimit="10"/>
<path d="M375.309 12.3984L380.486 12.3984" stroke="#666666" stroke-width="1.75511" stroke-miterlimit="10"/>
<path d="M360.789 31.918L360.789 26.7841" stroke="#666666" stroke-width="1.75511" stroke-miterlimit="10"/>
<path d="M358.199 29.3516L363.377 29.3516" stroke="#666666" stroke-width="1.75511" stroke-miterlimit="10"/>
<path d="M360.789 14.9648L360.789 9.83097" stroke="#666666" stroke-width="1.75511" stroke-miterlimit="10"/>
<path d="M358.199 12.3984L363.377 12.3984" stroke="#666666" stroke-width="1.75511" stroke-miterlimit="10"/>
<path d="M343.691 48.8867L343.691 43.7528" stroke="#666666" stroke-width="1.75511" stroke-miterlimit="10"/>
<path d="M341.102 46.3203L346.279 46.3203" stroke="#666666" stroke-width="1.75511" stroke-miterlimit="10"/>
<path d="M343.691 31.918L343.691 26.7841" stroke="#666666" stroke-width="1.75511" stroke-miterlimit="10"/>
<path d="M341.102 29.3516L346.279 29.3516" stroke="#666666" stroke-width="1.75511" stroke-miterlimit="10"/>
<path d="M343.691 14.9648L343.691 9.83097" stroke="#666666" stroke-width="1.75511" stroke-miterlimit="10"/>
<path d="M341.102 12.3984L346.279 12.3984" stroke="#666666" stroke-width="1.75511" stroke-miterlimit="10"/>
<path d="M326.598 65.8438L326.598 60.7099" stroke="#666666" stroke-width="1.75511" stroke-miterlimit="10"/>
<path d="M324.008 63.2773L329.185 63.2773" stroke="#666666" stroke-width="1.75511" stroke-miterlimit="10"/>
<path d="M326.598 48.8867L326.598 43.7528" stroke="#666666" stroke-width="1.75511" stroke-miterlimit="10"/>
<path d="M324.008 46.3203L329.185 46.3203" stroke="#666666" stroke-width="1.75511" stroke-miterlimit="10"/>
<path d="M326.598 31.918L326.598 26.7841" stroke="#666666" stroke-width="1.75511" stroke-miterlimit="10"/>
<path d="M324.008 29.3516L329.185 29.3516" stroke="#666666" stroke-width="1.75511" stroke-miterlimit="10"/>
<path d="M326.598 14.9648L326.598 9.83097" stroke="#666666" stroke-width="1.75511" stroke-miterlimit="10"/>
<path d="M324.008 12.3984L329.185 12.3984" stroke="#666666" stroke-width="1.75511" stroke-miterlimit="10"/>
<path d="M309.5 65.8438L309.5 60.7099" stroke="#666666" stroke-width="1.75511" stroke-miterlimit="10"/>
<path d="M306.91 63.2773L312.088 63.2773" stroke="#666666" stroke-width="1.75511" stroke-miterlimit="10"/>
<path d="M309.5 48.8867L309.5 43.7528" stroke="#666666" stroke-width="1.75511" stroke-miterlimit="10"/>
<path d="M306.91 46.3203L312.088 46.3203" stroke="#666666" stroke-width="1.75511" stroke-miterlimit="10"/>
<path d="M309.5 31.918L309.5 26.7841" stroke="#666666" stroke-width="1.75511" stroke-miterlimit="10"/>
<path d="M306.91 29.3516L312.088 29.3516" stroke="#666666" stroke-width="1.75511" stroke-miterlimit="10"/>
<path d="M309.5 14.9648L309.5 9.83097" stroke="#666666" stroke-width="1.75511" stroke-miterlimit="10"/>
<path d="M306.91 12.3984L312.088 12.3984" stroke="#666666" stroke-width="1.75511" stroke-miterlimit="10"/>
<path d="M292.402 65.8438L292.402 60.7099" stroke="#666666" stroke-width="1.75511" stroke-miterlimit="10"/>
<path d="M289.812 63.2773L294.99 63.2773" stroke="#666666" stroke-width="1.75511" stroke-miterlimit="10"/>
<path d="M292.402 48.8867L292.402 43.7528" stroke="#666666" stroke-width="1.75511" stroke-miterlimit="10"/>
<path d="M289.812 46.3203L294.99 46.3203" stroke="#666666" stroke-width="1.75511" stroke-miterlimit="10"/>
<path d="M292.402 31.918L292.402 26.7841" stroke="#666666" stroke-width="1.75511" stroke-miterlimit="10"/>
<path d="M289.812 29.3516L294.99 29.3516" stroke="#666666" stroke-width="1.75511" stroke-miterlimit="10"/>
<path d="M292.402 14.9648L292.402 9.83097" stroke="#666666" stroke-width="1.75511" stroke-miterlimit="10"/>
<path d="M289.812 12.3984L294.99 12.3984" stroke="#666666" stroke-width="1.75511" stroke-miterlimit="10"/>
<path d="M275.293 65.8438L275.293 60.7099" stroke="#666666" stroke-width="1.75511" stroke-miterlimit="10"/>
<path d="M272.703 63.2773L277.88 63.2773" stroke="#666666" stroke-width="1.75511" stroke-miterlimit="10"/>
<path d="M275.293 48.8867L275.293 43.7528" stroke="#666666" stroke-width="1.75511" stroke-miterlimit="10"/>
<path d="M272.703 46.3203L277.88 46.3203" stroke="#666666" stroke-width="1.75511" stroke-miterlimit="10"/>
<path d="M275.293 31.918L275.293 26.7841" stroke="#666666" stroke-width="1.75511" stroke-miterlimit="10"/>
<path d="M272.703 29.3516L277.88 29.3516" stroke="#666666" stroke-width="1.75511" stroke-miterlimit="10"/>
<path d="M275.289 14.9648L275.289 9.83097" stroke="#666666" stroke-width="1.75511" stroke-miterlimit="10"/>
<path d="M272.703 12.3984L277.88 12.3984" stroke="#666666" stroke-width="1.75511" stroke-miterlimit="10"/>
<path d="M258.191 65.8438L258.191 60.7099" stroke="#666666" stroke-width="1.75511" stroke-miterlimit="10"/>
<path d="M255.602 63.2773L260.779 63.2773" stroke="#666666" stroke-width="1.75511" stroke-miterlimit="10"/>
<path d="M258.191 48.8867L258.191 43.7528" stroke="#666666" stroke-width="1.75511" stroke-miterlimit="10"/>
<path d="M255.602 46.3203L260.779 46.3203" stroke="#666666" stroke-width="1.75511" stroke-miterlimit="10"/>
<path d="M258.191 31.9219L258.191 26.788" stroke="#666666" stroke-width="1.75511" stroke-miterlimit="10"/>
<path d="M255.602 29.3555L260.779 29.3555" stroke="#666666" stroke-width="1.75511" stroke-miterlimit="10"/>
<path d="M258.191 14.9688L258.191 9.83487" stroke="#666666" stroke-width="1.75511" stroke-miterlimit="10"/>
<path d="M255.602 12.4023L260.779 12.4023" stroke="#666666" stroke-width="1.75511" stroke-miterlimit="10"/>
</g>
<path d="M335.316 69.2669L335.316 -13.9701L419.036 -13.9701L419.036 69.2669L502.748 69.2669L502.748 152.504L419.036 152.504L335.316 69.2669Z" fill="url(#paint12_linear_36533_448010)"/>
<path d="M167.43 235.515L167.43 152.502L251.376 152.502L251.376 235.515L335.314 235.515L335.314 318.527L251.376 318.527L167.43 235.515Z" fill="url(#paint13_linear_36533_448010)"/>
<mask id="mask3_36533_448010" style="mask-type:luminance" maskUnits="userSpaceOnUse" x="0" y="235" width="168" height="167">
<path d="M0.0603864 318.458L0.060379 401.535L83.8449 401.535L83.8449 318.458L143.845 318.458L167.621 318.458L167.621 235.382L143.845 235.382L83.8449 235.382L0.0603864 318.458Z" fill="white"/>
</mask>
<g mask="url(#mask3_36533_448010)">
<path d="M19.9395 241.605C20.4338 241.605 20.8359 241.207 20.8359 240.717C20.8359 240.226 20.4338 239.828 19.9395 239.828C19.4452 239.828 19.0431 240.226 19.0431 240.717C19.0431 241.207 19.4452 241.605 19.9395 241.605Z" fill="#666666"/>
<path d="M19.9395 255.746C20.4338 255.746 20.8359 255.347 20.8359 254.857C20.8359 254.367 20.4338 253.968 19.9395 253.968C19.4452 253.968 19.0431 254.367 19.0431 254.857C19.0431 255.347 19.4452 255.746 19.9395 255.746Z" fill="#666666"/>
<path d="M19.9395 269.875C20.4338 269.875 20.8359 269.476 20.8359 268.986C20.8359 268.496 20.4338 268.097 19.9395 268.097C19.4452 268.097 19.0431 268.496 19.0431 268.986C19.0431 269.476 19.4452 269.875 19.9395 269.875Z" fill="#666666"/>
<path d="M19.9395 284.008C20.4338 284.008 20.8359 283.609 20.8359 283.119C20.8359 282.629 20.4338 282.23 19.9395 282.23C19.4452 282.23 19.0431 282.629 19.0431 283.119C19.0431 283.609 19.4452 284.008 19.9395 284.008Z" fill="#666666"/>
<path d="M19.9395 298.152C20.4338 298.152 20.8359 297.754 20.8359 297.264C20.8359 296.773 20.4338 296.375 19.9395 296.375C19.4452 296.375 19.0431 296.773 19.0431 297.264C19.0431 297.754 19.4452 298.152 19.9395 298.152Z" fill="#666666"/>
<path d="M19.9395 312.281C20.4338 312.281 20.8359 311.882 20.8359 311.392C20.8359 310.902 20.4338 310.503 19.9395 310.503C19.4452 310.503 19.0431 310.902 19.0431 311.392C19.0431 311.882 19.4452 312.281 19.9395 312.281Z" fill="#666666"/>
<path d="M19.9395 326.418C20.4338 326.418 20.8359 326.019 20.8359 325.529C20.8359 325.039 20.4338 324.64 19.9395 324.64C19.4452 324.64 19.0431 325.039 19.0431 325.529C19.0431 326.019 19.4452 326.418 19.9395 326.418Z" fill="#666666"/>
<path d="M19.9395 340.555C20.4338 340.555 20.8359 340.156 20.8359 339.666C20.8359 339.176 20.4338 338.777 19.9395 338.777C19.4452 338.777 19.0431 339.176 19.0431 339.666C19.0431 340.156 19.4452 340.555 19.9395 340.555Z" fill="#666666"/>
<path d="M19.9395 354.687C20.4338 354.687 20.8359 354.289 20.8359 353.799C20.8359 353.309 20.4338 352.91 19.9395 352.91C19.4452 352.91 19.0431 353.309 19.0431 353.799C19.0431 354.289 19.4452 354.687 19.9395 354.687Z" fill="#666666"/>
<path d="M19.9395 368.824C20.4338 368.824 20.8359 368.425 20.8359 367.935C20.8359 367.445 20.4338 367.046 19.9395 367.046C19.4452 367.046 19.0431 367.445 19.0431 367.935C19.0431 368.425 19.4452 368.824 19.9395 368.824Z" fill="#666666"/>
<path d="M19.9395 382.961C20.4338 382.961 20.8359 382.562 20.8359 382.072C20.8359 381.582 20.4338 381.183 19.9395 381.183C19.4452 381.183 19.0431 381.582 19.0431 382.072C19.0431 382.562 19.4452 382.961 19.9395 382.961Z" fill="#666666"/>
<path d="M19.9395 397.094C20.4338 397.094 20.8359 396.695 20.8359 396.205C20.8359 395.715 20.4338 395.316 19.9395 395.316C19.4452 395.316 19.0431 395.715 19.0431 396.205C19.0431 396.695 19.4452 397.094 19.9395 397.094Z" fill="#666666"/>
<path d="M35.0859 240.717C35.0859 240.226 34.6838 239.828 34.1895 239.828C33.6952 239.828 33.2931 240.226 33.2931 240.717C33.2931 241.207 33.6952 241.605 34.1895 241.605C34.6838 241.605 35.0859 241.207 35.0859 240.717Z" fill="#666666"/>
<path d="M49.3438 240.717C49.3438 240.226 48.9416 239.828 48.4473 239.828C47.9531 239.828 47.5509 240.226 47.5509 240.717C47.5509 241.207 47.9531 241.605 48.4473 241.605C48.9416 241.605 49.3438 241.207 49.3438 240.717Z" fill="#666666"/>
<path d="M63.6055 240.717C63.6055 240.226 63.2033 239.828 62.7091 239.828C62.2148 239.828 61.8126 240.226 61.8126 240.717C61.8126 241.207 62.2148 241.605 62.7091 241.605C63.2033 241.605 63.6055 241.207 63.6055 240.717Z" fill="#666666"/>
<path d="M77.8555 240.717C77.8555 240.226 77.4533 239.828 76.9591 239.828C76.4648 239.828 76.0626 240.226 76.0626 240.717C76.0626 241.207 76.4648 241.605 76.9591 241.605C77.4533 241.605 77.8555 241.207 77.8555 240.717Z" fill="#666666"/>
<path d="M92.1133 240.717C92.1133 240.226 91.7112 239.828 91.2169 239.828C90.7226 239.828 90.3205 240.226 90.3205 240.717C90.3205 241.207 90.7226 241.605 91.2169 241.605C91.7112 241.605 92.1133 241.207 92.1133 240.717Z" fill="#666666"/>
<path d="M106.371 240.717C106.371 240.226 105.969 239.828 105.475 239.828C104.98 239.828 104.578 240.226 104.578 240.717C104.578 241.207 104.98 241.605 105.475 241.605C105.969 241.605 106.371 241.207 106.371 240.717Z" fill="#666666"/>
<path d="M120.621 240.717C120.621 240.226 120.219 239.828 119.725 239.828C119.23 239.828 118.828 240.226 118.828 240.717C118.828 241.207 119.23 241.605 119.725 241.605C120.219 241.605 120.621 241.207 120.621 240.717Z" fill="#666666"/>
<path d="M134.883 240.717C134.883 240.226 134.481 239.828 133.986 239.828C133.492 239.828 133.09 240.226 133.09 240.717C133.09 241.207 133.492 241.605 133.986 241.605C134.481 241.605 134.883 241.207 134.883 240.717Z" fill="#666666"/>
<path d="M149.141 240.717C149.141 240.226 148.738 239.828 148.244 239.828C147.75 239.828 147.348 240.226 147.348 240.717C147.348 241.207 147.75 241.605 148.244 241.605C148.738 241.605 149.141 241.207 149.141 240.717Z" fill="#666666"/>
<path d="M163.391 240.717C163.391 240.226 162.988 239.828 162.494 239.828C162 239.828 161.598 240.226 161.598 240.717C161.598 241.207 162 241.605 162.494 241.605C162.988 241.605 163.391 241.207 163.391 240.717Z" fill="#666666"/>
<path d="M35.0859 254.845C35.0859 254.355 34.6838 253.957 34.1895 253.957C33.6952 253.957 33.2931 254.355 33.2931 254.845C33.2931 255.336 33.6952 255.734 34.1895 255.734C34.6838 255.734 35.0859 255.336 35.0859 254.845Z" fill="#666666"/>
<path d="M49.3438 254.845C49.3438 254.355 48.9416 253.957 48.4473 253.957C47.9531 253.957 47.5509 254.355 47.5509 254.845C47.5509 255.336 47.9531 255.734 48.4473 255.734C48.9416 255.734 49.3438 255.336 49.3438 254.845Z" fill="#666666"/>
<path d="M63.6055 254.845C63.6055 254.355 63.2033 253.957 62.7091 253.957C62.2148 253.957 61.8126 254.355 61.8126 254.845C61.8126 255.336 62.2148 255.734 62.7091 255.734C63.2033 255.734 63.6055 255.336 63.6055 254.845Z" fill="#666666"/>
<path d="M77.8555 254.845C77.8555 254.355 77.4533 253.957 76.9591 253.957C76.4648 253.957 76.0626 254.355 76.0626 254.845C76.0626 255.336 76.4648 255.734 76.9591 255.734C77.4533 255.734 77.8555 255.336 77.8555 254.845Z" fill="#666666"/>
<path d="M92.1133 254.845C92.1133 254.355 91.7112 253.957 91.2169 253.957C90.7226 253.957 90.3205 254.355 90.3205 254.845C90.3205 255.336 90.7226 255.734 91.2169 255.734C91.7112 255.734 92.1133 255.336 92.1133 254.845Z" fill="#666666"/>
<path d="M106.371 254.845C106.371 254.355 105.969 253.957 105.475 253.957C104.98 253.957 104.578 254.355 104.578 254.845C104.578 255.336 104.98 255.734 105.475 255.734C105.969 255.734 106.371 255.336 106.371 254.845Z" fill="#666666"/>
<path d="M120.621 254.845C120.621 254.355 120.219 253.957 119.725 253.957C119.23 253.957 118.828 254.355 118.828 254.845C118.828 255.336 119.23 255.734 119.725 255.734C120.219 255.734 120.621 255.336 120.621 254.845Z" fill="#666666"/>
<path d="M134.883 254.845C134.883 254.355 134.481 253.957 133.986 253.957C133.492 253.957 133.09 254.355 133.09 254.845C133.09 255.336 133.492 255.734 133.986 255.734C134.481 255.734 134.883 255.336 134.883 254.845Z" fill="#666666"/>
<path d="M149.141 254.845C149.141 254.355 148.738 253.957 148.244 253.957C147.75 253.957 147.348 254.355 147.348 254.845C147.348 255.336 147.75 255.734 148.244 255.734C148.738 255.734 149.141 255.336 149.141 254.845Z" fill="#666666"/>
<path d="M163.391 254.845C163.391 254.355 162.988 253.957 162.494 253.957C162 253.957 161.598 254.355 161.598 254.845C161.598 255.336 162 255.734 162.494 255.734C162.988 255.734 163.391 255.336 163.391 254.845Z" fill="#666666"/>
<path d="M35.0859 268.986C35.0859 268.496 34.6838 268.097 34.1895 268.097C33.6952 268.097 33.2931 268.496 33.2931 268.986C33.2931 269.476 33.6952 269.875 34.1895 269.875C34.6838 269.875 35.0859 269.476 35.0859 268.986Z" fill="#666666"/>
<path d="M49.3438 268.986C49.3438 268.496 48.9416 268.097 48.4473 268.097C47.9531 268.097 47.5509 268.496 47.5509 268.986C47.5509 269.476 47.9531 269.875 48.4473 269.875C48.9416 269.875 49.3438 269.476 49.3438 268.986Z" fill="#666666"/>
<path d="M63.6055 268.986C63.6055 268.496 63.2033 268.097 62.7091 268.097C62.2148 268.097 61.8126 268.496 61.8126 268.986C61.8126 269.476 62.2148 269.875 62.7091 269.875C63.2033 269.875 63.6055 269.476 63.6055 268.986Z" fill="#666666"/>
<path d="M77.8555 268.986C77.8555 268.496 77.4533 268.097 76.9591 268.097C76.4648 268.097 76.0626 268.496 76.0626 268.986C76.0626 269.476 76.4648 269.875 76.9591 269.875C77.4533 269.875 77.8555 269.476 77.8555 268.986Z" fill="#666666"/>
<path d="M92.1133 268.986C92.1133 268.496 91.7112 268.097 91.2169 268.097C90.7226 268.097 90.3205 268.496 90.3205 268.986C90.3205 269.476 90.7226 269.875 91.2169 269.875C91.7112 269.875 92.1133 269.476 92.1133 268.986Z" fill="#666666"/>
<path d="M106.371 268.986C106.371 268.496 105.969 268.097 105.475 268.097C104.98 268.097 104.578 268.496 104.578 268.986C104.578 269.476 104.98 269.875 105.475 269.875C105.969 269.875 106.371 269.476 106.371 268.986Z" fill="#666666"/>
<path d="M120.621 268.986C120.621 268.496 120.219 268.097 119.725 268.097C119.23 268.097 118.828 268.496 118.828 268.986C118.828 269.476 119.23 269.875 119.725 269.875C120.219 269.875 120.621 269.476 120.621 268.986Z" fill="#666666"/>
<path d="M134.883 268.986C134.883 268.496 134.481 268.097 133.986 268.097C133.492 268.097 133.09 268.496 133.09 268.986C133.09 269.476 133.492 269.875 133.986 269.875C134.481 269.875 134.883 269.476 134.883 268.986Z" fill="#666666"/>
<path d="M149.141 268.986C149.141 268.496 148.738 268.097 148.244 268.097C147.75 268.097 147.348 268.496 147.348 268.986C147.348 269.476 147.75 269.875 148.244 269.875C148.738 269.875 149.141 269.476 149.141 268.986Z" fill="#666666"/>
<path d="M163.391 268.986C163.391 268.496 162.988 268.097 162.494 268.097C162 268.097 161.598 268.496 161.598 268.986C161.598 269.476 162 269.875 162.494 269.875C162.988 269.875 163.391 269.476 163.391 268.986Z" fill="#666666"/>
<path d="M35.0859 283.119C35.0859 282.629 34.6838 282.23 34.1895 282.23C33.6952 282.23 33.2931 282.629 33.2931 283.119C33.2931 283.609 33.6952 284.008 34.1895 284.008C34.6838 284.008 35.0859 283.609 35.0859 283.119Z" fill="#666666"/>
<path d="M49.3438 283.119C49.3438 282.629 48.9416 282.23 48.4473 282.23C47.9531 282.23 47.5509 282.629 47.5509 283.119C47.5509 283.609 47.9531 284.008 48.4473 284.008C48.9416 284.008 49.3438 283.609 49.3438 283.119Z" fill="#666666"/>
<path d="M63.6055 283.123C63.6055 282.633 63.2033 282.234 62.7091 282.234C62.2148 282.234 61.8126 282.633 61.8126 283.123C61.8126 283.613 62.2148 284.012 62.7091 284.012C63.2033 284.012 63.6055 283.613 63.6055 283.123Z" fill="#666666"/>
<path d="M77.8555 283.123C77.8555 282.633 77.4533 282.234 76.9591 282.234C76.4648 282.234 76.0626 282.633 76.0626 283.123C76.0626 283.613 76.4648 284.012 76.9591 284.012C77.4533 284.012 77.8555 283.613 77.8555 283.123Z" fill="#666666"/>
<path d="M92.1133 283.123C92.1133 282.633 91.7112 282.234 91.2169 282.234C90.7226 282.234 90.3205 282.633 90.3205 283.123C90.3205 283.613 90.7226 284.012 91.2169 284.012C91.7112 284.012 92.1133 283.613 92.1133 283.123Z" fill="#666666"/>
<path d="M106.371 283.123C106.371 282.633 105.969 282.234 105.475 282.234C104.98 282.234 104.578 282.633 104.578 283.123C104.578 283.613 104.98 284.012 105.475 284.012C105.969 284.012 106.371 283.613 106.371 283.123Z" fill="#666666"/>
<path d="M120.621 283.123C120.621 282.633 120.219 282.234 119.725 282.234C119.23 282.234 118.828 282.633 118.828 283.123C118.828 283.613 119.23 284.012 119.725 284.012C120.219 284.012 120.621 283.613 120.621 283.123Z" fill="#666666"/>
<path d="M134.883 283.123C134.883 282.633 134.481 282.234 133.986 282.234C133.492 282.234 133.09 282.633 133.09 283.123C133.09 283.613 133.492 284.012 133.986 284.012C134.481 284.012 134.883 283.613 134.883 283.123Z" fill="#666666"/>
<path d="M149.141 283.119C149.141 282.629 148.738 282.23 148.244 282.23C147.75 282.23 147.348 282.629 147.348 283.119C147.348 283.609 147.75 284.008 148.244 284.008C148.738 284.008 149.141 283.609 149.141 283.119Z" fill="#666666"/>
<path d="M163.391 283.119C163.391 282.629 162.988 282.23 162.494 282.23C162 282.23 161.598 282.629 161.598 283.119C161.598 283.609 162 284.008 162.494 284.008C162.988 284.008 163.391 283.609 163.391 283.119Z" fill="#666666"/>
<path d="M35.0859 297.256C35.0859 296.766 34.6838 296.367 34.1895 296.367C33.6952 296.367 33.2931 296.766 33.2931 297.256C33.2931 297.746 33.6952 298.145 34.1895 298.145C34.6838 298.145 35.0859 297.746 35.0859 297.256Z" fill="#666666"/>
<path d="M49.3438 297.256C49.3438 296.766 48.9416 296.367 48.4473 296.367C47.9531 296.367 47.5509 296.766 47.5509 297.256C47.5509 297.746 47.9531 298.145 48.4473 298.145C48.9416 298.145 49.3438 297.746 49.3438 297.256Z" fill="#666666"/>
<path d="M63.6055 297.256C63.6055 296.766 63.2033 296.367 62.7091 296.367C62.2148 296.367 61.8126 296.766 61.8126 297.256C61.8126 297.746 62.2148 298.145 62.7091 298.145C63.2033 298.145 63.6055 297.746 63.6055 297.256Z" fill="#666666"/>
<path d="M77.8555 297.256C77.8555 296.766 77.4533 296.367 76.9591 296.367C76.4648 296.367 76.0626 296.766 76.0626 297.256C76.0626 297.746 76.4648 298.145 76.9591 298.145C77.4533 298.145 77.8555 297.746 77.8555 297.256Z" fill="#666666"/>
<path d="M92.1133 297.256C92.1133 296.766 91.7112 296.367 91.2169 296.367C90.7226 296.367 90.3205 296.766 90.3205 297.256C90.3205 297.746 90.7226 298.145 91.2169 298.145C91.7112 298.145 92.1133 297.746 92.1133 297.256Z" fill="#666666"/>
<path d="M106.371 297.256C106.371 296.766 105.969 296.367 105.475 296.367C104.98 296.367 104.578 296.766 104.578 297.256C104.578 297.746 104.98 298.145 105.475 298.145C105.969 298.145 106.371 297.746 106.371 297.256Z" fill="#666666"/>
<path d="M120.621 297.256C120.621 296.766 120.219 296.367 119.725 296.367C119.23 296.367 118.828 296.766 118.828 297.256C118.828 297.746 119.23 298.145 119.725 298.145C120.219 298.145 120.621 297.746 120.621 297.256Z" fill="#666666"/>
<path d="M134.883 297.256C134.883 296.766 134.481 296.367 133.986 296.367C133.492 296.367 133.09 296.766 133.09 297.256C133.09 297.746 133.492 298.145 133.986 298.145C134.481 298.145 134.883 297.746 134.883 297.256Z" fill="#666666"/>
<path d="M149.141 297.256C149.141 296.766 148.738 296.367 148.244 296.367C147.75 296.367 147.348 296.766 147.348 297.256C147.348 297.746 147.75 298.145 148.244 298.145C148.738 298.145 149.141 297.746 149.141 297.256Z" fill="#666666"/>
<path d="M162.494 296.367C161.999 296.367 161.598 296.765 161.598 297.256C161.598 297.747 161.999 298.145 162.494 298.145C162.989 298.145 163.391 297.747 163.391 297.256C163.391 296.765 162.989 296.367 162.494 296.367Z" fill="#666666"/>
<path d="M35.0859 311.392C35.0859 310.902 34.6838 310.503 34.1895 310.503C33.6952 310.503 33.2931 310.902 33.2931 311.392C33.2931 311.882 33.6952 312.281 34.1895 312.281C34.6838 312.281 35.0859 311.882 35.0859 311.392Z" fill="#666666"/>
<path d="M49.3438 311.392C49.3438 310.902 48.9416 310.503 48.4473 310.503C47.9531 310.503 47.5509 310.902 47.5509 311.392C47.5509 311.882 47.9531 312.281 48.4473 312.281C48.9416 312.281 49.3438 311.882 49.3438 311.392Z" fill="#666666"/>
<path d="M63.6055 311.392C63.6055 310.902 63.2033 310.503 62.7091 310.503C62.2148 310.503 61.8126 310.902 61.8126 311.392C61.8126 311.882 62.2148 312.281 62.7091 312.281C63.2033 312.281 63.6055 311.882 63.6055 311.392Z" fill="#666666"/>
<path d="M77.8555 311.392C77.8555 310.902 77.4533 310.503 76.9591 310.503C76.4648 310.503 76.0626 310.902 76.0626 311.392C76.0626 311.882 76.4648 312.281 76.9591 312.281C77.4533 312.281 77.8555 311.882 77.8555 311.392Z" fill="#666666"/>
<path d="M92.1133 311.392C92.1133 310.902 91.7112 310.503 91.2169 310.503C90.7226 310.503 90.3205 310.902 90.3205 311.392C90.3205 311.882 90.7226 312.281 91.2169 312.281C91.7112 312.281 92.1133 311.882 92.1133 311.392Z" fill="#666666"/>
<path d="M106.371 311.392C106.371 310.902 105.969 310.503 105.475 310.503C104.98 310.503 104.578 310.902 104.578 311.392C104.578 311.882 104.98 312.281 105.475 312.281C105.969 312.281 106.371 311.882 106.371 311.392Z" fill="#666666"/>
<path d="M120.621 311.392C120.621 310.902 120.219 310.503 119.725 310.503C119.23 310.503 118.828 310.902 118.828 311.392C118.828 311.882 119.23 312.281 119.725 312.281C120.219 312.281 120.621 311.882 120.621 311.392Z" fill="#666666"/>
<path d="M134.883 311.392C134.883 310.902 134.481 310.503 133.986 310.503C133.492 310.503 133.09 310.902 133.09 311.392C133.09 311.882 133.492 312.281 133.986 312.281C134.481 312.281 134.883 311.882 134.883 311.392Z" fill="#666666"/>
<path d="M149.141 311.392C149.141 310.902 148.738 310.503 148.244 310.503C147.75 310.503 147.348 310.902 147.348 311.392C147.348 311.882 147.75 312.281 148.244 312.281C148.738 312.281 149.141 311.882 149.141 311.392Z" fill="#666666"/>
<path d="M162.494 310.503C161.999 310.503 161.598 310.901 161.598 311.392C161.598 311.883 161.999 312.281 162.494 312.281C162.989 312.281 163.391 311.883 163.391 311.392C163.391 310.901 162.989 310.503 162.494 310.503Z" fill="#666666"/>
<path d="M35.0859 325.529C35.0859 325.039 34.6838 324.64 34.1895 324.64C33.6952 324.64 33.2931 325.039 33.2931 325.529C33.2931 326.019 33.6952 326.418 34.1895 326.418C34.6838 326.418 35.0859 326.019 35.0859 325.529Z" fill="#666666"/>
<path d="M49.3438 325.529C49.3438 325.039 48.9416 324.64 48.4473 324.64C47.9531 324.64 47.5509 325.039 47.5509 325.529C47.5509 326.019 47.9531 326.418 48.4473 326.418C48.9416 326.418 49.3438 326.019 49.3438 325.529Z" fill="#666666"/>
<path d="M63.6055 325.529C63.6055 325.039 63.2033 324.64 62.7091 324.64C62.2148 324.64 61.8126 325.039 61.8126 325.529C61.8126 326.019 62.2148 326.418 62.7091 326.418C63.2033 326.418 63.6055 326.019 63.6055 325.529Z" fill="#666666"/>
<path d="M77.8555 325.529C77.8555 325.039 77.4533 324.64 76.9591 324.64C76.4648 324.64 76.0626 325.039 76.0626 325.529C76.0626 326.019 76.4648 326.418 76.9591 326.418C77.4533 326.418 77.8555 326.019 77.8555 325.529Z" fill="#666666"/>
<path d="M92.1133 325.529C92.1133 325.039 91.7112 324.64 91.2169 324.64C90.7226 324.64 90.3205 325.039 90.3205 325.529C90.3205 326.019 90.7226 326.418 91.2169 326.418C91.7112 326.418 92.1133 326.019 92.1133 325.529Z" fill="#666666"/>
<path d="M106.371 325.529C106.371 325.039 105.969 324.64 105.475 324.64C104.98 324.64 104.578 325.039 104.578 325.529C104.578 326.019 104.98 326.418 105.475 326.418C105.969 326.418 106.371 326.019 106.371 325.529Z" fill="#666666"/>
<path d="M120.621 325.529C120.621 325.039 120.219 324.64 119.725 324.64C119.23 324.64 118.828 325.039 118.828 325.529C118.828 326.019 119.23 326.418 119.725 326.418C120.219 326.418 120.621 326.019 120.621 325.529Z" fill="#666666"/>
<path d="M134.883 325.529C134.883 325.039 134.481 324.64 133.986 324.64C133.492 324.64 133.09 325.039 133.09 325.529C133.09 326.019 133.492 326.418 133.986 326.418C134.481 326.418 134.883 326.019 134.883 325.529Z" fill="#666666"/>
<path d="M149.141 325.529C149.141 325.039 148.738 324.64 148.244 324.64C147.75 324.64 147.348 325.039 147.348 325.529C147.348 326.019 147.75 326.418 148.244 326.418C148.738 326.418 149.141 326.019 149.141 325.529Z" fill="#666666"/>
<path d="M163.391 325.529C163.391 325.039 162.988 324.64 162.494 324.64C162 324.64 161.598 325.039 161.598 325.529C161.598 326.019 162 326.418 162.494 326.418C162.988 326.418 163.391 326.019 163.391 325.529Z" fill="#666666"/>
<path d="M35.0859 339.658C35.0859 339.168 34.6838 338.769 34.1895 338.769C33.6952 338.769 33.2931 339.168 33.2931 339.658C33.2931 340.148 33.6952 340.547 34.1895 340.547C34.6838 340.547 35.0859 340.148 35.0859 339.658Z" fill="#666666"/>
<path d="M49.3438 339.658C49.3438 339.168 48.9416 338.769 48.4473 338.769C47.9531 338.769 47.5509 339.168 47.5509 339.658C47.5509 340.148 47.9531 340.547 48.4473 340.547C48.9416 340.547 49.3438 340.148 49.3438 339.658Z" fill="#666666"/>
<path d="M63.6055 339.658C63.6055 339.168 63.2033 338.769 62.7091 338.769C62.2148 338.769 61.8126 339.168 61.8126 339.658C61.8126 340.148 62.2148 340.547 62.7091 340.547C63.2033 340.547 63.6055 340.148 63.6055 339.658Z" fill="#666666"/>
<path d="M77.8555 339.658C77.8555 339.168 77.4533 338.769 76.9591 338.769C76.4648 338.769 76.0626 339.168 76.0626 339.658C76.0626 340.148 76.4648 340.547 76.9591 340.547C77.4533 340.547 77.8555 340.148 77.8555 339.658Z" fill="#666666"/>
<path d="M92.1133 339.658C92.1133 339.168 91.7112 338.769 91.2169 338.769C90.7226 338.769 90.3205 339.168 90.3205 339.658C90.3205 340.148 90.7226 340.547 91.2169 340.547C91.7112 340.547 92.1133 340.148 92.1133 339.658Z" fill="#666666"/>
<path d="M106.371 339.658C106.371 339.168 105.969 338.769 105.475 338.769C104.98 338.769 104.578 339.168 104.578 339.658C104.578 340.148 104.98 340.547 105.475 340.547C105.969 340.547 106.371 340.148 106.371 339.658Z" fill="#666666"/>
<path d="M120.621 339.658C120.621 339.168 120.219 338.769 119.725 338.769C119.23 338.769 118.828 339.168 118.828 339.658C118.828 340.148 119.23 340.547 119.725 340.547C120.219 340.547 120.621 340.148 120.621 339.658Z" fill="#666666"/>
<path d="M134.883 339.658C134.883 339.168 134.481 338.769 133.986 338.769C133.492 338.769 133.09 339.168 133.09 339.658C133.09 340.148 133.492 340.547 133.986 340.547C134.481 340.547 134.883 340.148 134.883 339.658Z" fill="#666666"/>
<path d="M149.141 339.658C149.141 339.168 148.738 338.769 148.244 338.769C147.75 338.769 147.348 339.168 147.348 339.658C147.348 340.148 147.75 340.547 148.244 340.547C148.738 340.547 149.141 340.148 149.141 339.658Z" fill="#666666"/>
<path d="M163.391 339.658C163.391 339.168 162.988 338.769 162.494 338.769C162 338.769 161.598 339.168 161.598 339.658C161.598 340.148 162 340.547 162.494 340.547C162.988 340.547 163.391 340.148 163.391 339.658Z" fill="#666666"/>
<path d="M35.0859 353.799C35.0859 353.309 34.6838 352.91 34.1895 352.91C33.6952 352.91 33.2931 353.309 33.2931 353.799C33.2931 354.289 33.6952 354.687 34.1895 354.687C34.6838 354.687 35.0859 354.289 35.0859 353.799Z" fill="#666666"/>
<path d="M49.3438 353.799C49.3438 353.309 48.9416 352.91 48.4473 352.91C47.9531 352.91 47.5509 353.309 47.5509 353.799C47.5509 354.289 47.9531 354.687 48.4473 354.687C48.9416 354.687 49.3438 354.289 49.3438 353.799Z" fill="#666666"/>
<path d="M63.6055 353.799C63.6055 353.309 63.2033 352.91 62.7091 352.91C62.2148 352.91 61.8126 353.309 61.8126 353.799C61.8126 354.289 62.2148 354.687 62.7091 354.687C63.2033 354.687 63.6055 354.289 63.6055 353.799Z" fill="#666666"/>
<path d="M77.8555 353.799C77.8555 353.309 77.4533 352.91 76.9591 352.91C76.4648 352.91 76.0626 353.309 76.0626 353.799C76.0626 354.289 76.4648 354.687 76.9591 354.687C77.4533 354.687 77.8555 354.289 77.8555 353.799Z" fill="#666666"/>
<path d="M92.1133 353.799C92.1133 353.309 91.7112 352.91 91.2169 352.91C90.7226 352.91 90.3205 353.309 90.3205 353.799C90.3205 354.289 90.7226 354.687 91.2169 354.687C91.7112 354.687 92.1133 354.289 92.1133 353.799Z" fill="#666666"/>
<path d="M106.371 353.799C106.371 353.309 105.969 352.91 105.475 352.91C104.98 352.91 104.578 353.309 104.578 353.799C104.578 354.289 104.98 354.687 105.475 354.687C105.969 354.687 106.371 354.289 106.371 353.799Z" fill="#666666"/>
<path d="M120.621 353.799C120.621 353.309 120.219 352.91 119.725 352.91C119.23 352.91 118.828 353.309 118.828 353.799C118.828 354.289 119.23 354.687 119.725 354.687C120.219 354.687 120.621 354.289 120.621 353.799Z" fill="#666666"/>
<path d="M134.883 353.799C134.883 353.309 134.481 352.91 133.986 352.91C133.492 352.91 133.09 353.309 133.09 353.799C133.09 354.289 133.492 354.687 133.986 354.687C134.481 354.687 134.883 354.289 134.883 353.799Z" fill="#666666"/>
<path d="M149.141 353.799C149.141 353.309 148.738 352.91 148.244 352.91C147.75 352.91 147.348 353.309 147.348 353.799C147.348 354.289 147.75 354.687 148.244 354.687C148.738 354.687 149.141 354.289 149.141 353.799Z" fill="#666666"/>
<path d="M163.391 353.799C163.391 353.309 162.988 352.91 162.494 352.91C162 352.91 161.598 353.309 161.598 353.799C161.598 354.289 162 354.687 162.494 354.687C162.988 354.687 163.391 354.289 163.391 353.799Z" fill="#666666"/>
<path d="M35.0859 367.935C35.0859 367.445 34.6838 367.046 34.1895 367.046C33.6952 367.046 33.2931 367.445 33.2931 367.935C33.2931 368.425 33.6952 368.824 34.1895 368.824C34.6838 368.824 35.0859 368.425 35.0859 367.935Z" fill="#666666"/>
<path d="M49.3438 367.935C49.3438 367.445 48.9416 367.046 48.4473 367.046C47.9531 367.046 47.5509 367.445 47.5509 367.935C47.5509 368.425 47.9531 368.824 48.4473 368.824C48.9416 368.824 49.3438 368.425 49.3438 367.935Z" fill="#666666"/>
<path d="M63.6055 367.939C63.6055 367.449 63.2033 367.05 62.7091 367.05C62.2148 367.05 61.8126 367.449 61.8126 367.939C61.8126 368.429 62.2148 368.828 62.7091 368.828C63.2033 368.828 63.6055 368.429 63.6055 367.939Z" fill="#666666"/>
<path d="M77.8555 367.935C77.8555 367.445 77.4533 367.046 76.9591 367.046C76.4648 367.046 76.0626 367.445 76.0626 367.935C76.0626 368.425 76.4648 368.824 76.9591 368.824C77.4533 368.824 77.8555 368.425 77.8555 367.935Z" fill="#666666"/>
<path d="M92.1133 367.935C92.1133 367.445 91.7112 367.046 91.2169 367.046C90.7226 367.046 90.3205 367.445 90.3205 367.935C90.3205 368.425 90.7226 368.824 91.2169 368.824C91.7112 368.824 92.1133 368.425 92.1133 367.935Z" fill="#666666"/>
<path d="M106.371 367.935C106.371 367.445 105.969 367.046 105.475 367.046C104.98 367.046 104.578 367.445 104.578 367.935C104.578 368.425 104.98 368.824 105.475 368.824C105.969 368.824 106.371 368.425 106.371 367.935Z" fill="#666666"/>
<path d="M120.621 367.935C120.621 367.445 120.219 367.046 119.725 367.046C119.23 367.046 118.828 367.445 118.828 367.935C118.828 368.425 119.23 368.824 119.725 368.824C120.219 368.824 120.621 368.425 120.621 367.935Z" fill="#666666"/>
<path d="M134.883 367.939C134.883 367.449 134.481 367.05 133.986 367.05C133.492 367.05 133.09 367.449 133.09 367.939C133.09 368.429 133.492 368.828 133.986 368.828C134.481 368.828 134.883 368.429 134.883 367.939Z" fill="#666666"/>
<path d="M149.141 367.935C149.141 367.445 148.738 367.046 148.244 367.046C147.75 367.046 147.348 367.445 147.348 367.935C147.348 368.425 147.75 368.824 148.244 368.824C148.738 368.824 149.141 368.425 149.141 367.935Z" fill="#666666"/>
<path d="M163.391 367.935C163.391 367.445 162.988 367.046 162.494 367.046C162 367.046 161.598 367.445 161.598 367.935C161.598 368.425 162 368.824 162.494 368.824C162.988 368.824 163.391 368.425 163.391 367.935Z" fill="#666666"/>
<path d="M35.0859 382.072C35.0859 381.582 34.6838 381.183 34.1895 381.183C33.6952 381.183 33.2931 381.582 33.2931 382.072C33.2931 382.562 33.6952 382.961 34.1895 382.961C34.6838 382.961 35.0859 382.562 35.0859 382.072Z" fill="#666666"/>
<path d="M49.3438 382.072C49.3438 381.582 48.9416 381.183 48.4473 381.183C47.9531 381.183 47.5509 381.582 47.5509 382.072C47.5509 382.562 47.9531 382.961 48.4473 382.961C48.9416 382.961 49.3438 382.562 49.3438 382.072Z" fill="#666666"/>
<path d="M63.6055 382.072C63.6055 381.582 63.2033 381.183 62.7091 381.183C62.2148 381.183 61.8126 381.582 61.8126 382.072C61.8126 382.562 62.2148 382.961 62.7091 382.961C63.2033 382.961 63.6055 382.562 63.6055 382.072Z" fill="#666666"/>
<path d="M77.8555 382.072C77.8555 381.582 77.4533 381.183 76.9591 381.183C76.4648 381.183 76.0626 381.582 76.0626 382.072C76.0626 382.562 76.4648 382.961 76.9591 382.961C77.4533 382.961 77.8555 382.562 77.8555 382.072Z" fill="#666666"/>
<path d="M92.1133 382.072C92.1133 381.582 91.7112 381.183 91.2169 381.183C90.7226 381.183 90.3205 381.582 90.3205 382.072C90.3205 382.562 90.7226 382.961 91.2169 382.961C91.7112 382.961 92.1133 382.562 92.1133 382.072Z" fill="#666666"/>
<path d="M106.371 382.072C106.371 381.582 105.969 381.183 105.475 381.183C104.98 381.183 104.578 381.582 104.578 382.072C104.578 382.562 104.98 382.961 105.475 382.961C105.969 382.961 106.371 382.562 106.371 382.072Z" fill="#666666"/>
<path d="M120.621 382.072C120.621 381.582 120.219 381.183 119.725 381.183C119.23 381.183 118.828 381.582 118.828 382.072C118.828 382.562 119.23 382.961 119.725 382.961C120.219 382.961 120.621 382.562 120.621 382.072Z" fill="#666666"/>
<path d="M134.883 382.072C134.883 381.582 134.481 381.183 133.986 381.183C133.492 381.183 133.09 381.582 133.09 382.072C133.09 382.562 133.492 382.961 133.986 382.961C134.481 382.961 134.883 382.562 134.883 382.072Z" fill="#666666"/>
<path d="M149.141 382.072C149.141 381.582 148.738 381.183 148.244 381.183C147.75 381.183 147.348 381.582 147.348 382.072C147.348 382.562 147.75 382.961 148.244 382.961C148.738 382.961 149.141 382.562 149.141 382.072Z" fill="#666666"/>
<path d="M163.391 382.072C163.391 381.582 162.988 381.183 162.494 381.183C162 381.183 161.598 381.582 161.598 382.072C161.598 382.562 162 382.961 162.494 382.961C162.988 382.961 163.391 382.562 163.391 382.072Z" fill="#666666"/>
<path d="M35.0859 396.205C35.0859 395.715 34.6838 395.316 34.1895 395.316C33.6952 395.316 33.2931 395.715 33.2931 396.205C33.2931 396.695 33.6952 397.094 34.1895 397.094C34.6838 397.094 35.0859 396.695 35.0859 396.205Z" fill="#666666"/>
<path d="M49.3438 396.205C49.3438 395.715 48.9416 395.316 48.4473 395.316C47.9531 395.316 47.5509 395.715 47.5509 396.205C47.5509 396.695 47.9531 397.094 48.4473 397.094C48.9416 397.094 49.3438 396.695 49.3438 396.205Z" fill="#666666"/>
<path d="M6.57813 240.717C6.57813 240.226 6.17599 239.828 5.68171 239.828C5.18743 239.828 4.7853 240.226 4.7853 240.717C4.7853 241.207 5.18743 241.605 5.68171 241.605C6.17599 241.605 6.57813 241.207 6.57813 240.717Z" fill="#666666"/>
<path d="M6.57813 254.845C6.57813 254.355 6.17599 253.957 5.68171 253.957C5.18743 253.957 4.7853 254.355 4.7853 254.845C4.7853 255.336 5.18743 255.734 5.68171 255.734C6.17599 255.734 6.57813 255.336 6.57813 254.845Z" fill="#666666"/>
<path d="M6.57813 268.986C6.57813 268.496 6.17599 268.097 5.68171 268.097C5.18743 268.097 4.7853 268.496 4.7853 268.986C4.7853 269.476 5.18743 269.875 5.68171 269.875C6.17599 269.875 6.57813 269.476 6.57813 268.986Z" fill="#666666"/>
<path d="M6.57813 283.123C6.57813 282.633 6.17599 282.234 5.68171 282.234C5.18743 282.234 4.7853 282.633 4.7853 283.123C4.7853 283.613 5.18743 284.012 5.68171 284.012C6.17599 284.012 6.57813 283.613 6.57813 283.123Z" fill="#666666"/>
<path d="M6.57813 297.256C6.57813 296.766 6.17599 296.367 5.68171 296.367C5.18743 296.367 4.7853 296.766 4.7853 297.256C4.7853 297.746 5.18743 298.145 5.68171 298.145C6.17599 298.145 6.57813 297.746 6.57813 297.256Z" fill="#666666"/>
<path d="M6.57813 311.392C6.57813 310.902 6.17599 310.503 5.68171 310.503C5.18743 310.503 4.7853 310.902 4.7853 311.392C4.7853 311.882 5.18743 312.281 5.68171 312.281C6.17599 312.281 6.57813 311.882 6.57813 311.392Z" fill="#666666"/>
<path d="M6.57813 325.529C6.57813 325.039 6.17599 324.64 5.68171 324.64C5.18743 324.64 4.7853 325.039 4.7853 325.529C4.7853 326.019 5.18743 326.418 5.68171 326.418C6.17599 326.418 6.57813 326.019 6.57813 325.529Z" fill="#666666"/>
<path d="M6.57813 339.658C6.57813 339.168 6.17599 338.769 5.68171 338.769C5.18743 338.769 4.7853 339.168 4.7853 339.658C4.7853 340.148 5.18743 340.547 5.68171 340.547C6.17599 340.547 6.57813 340.148 6.57813 339.658Z" fill="#666666"/>
<path d="M6.57813 353.799C6.57813 353.309 6.17599 352.91 5.68171 352.91C5.18743 352.91 4.7853 353.309 4.7853 353.799C4.7853 354.289 5.18743 354.687 5.68171 354.687C6.17599 354.687 6.57813 354.289 6.57813 353.799Z" fill="#666666"/>
<path d="M6.57813 367.935C6.57813 367.445 6.17599 367.046 5.68171 367.046C5.18743 367.046 4.7853 367.445 4.7853 367.935C4.7853 368.425 5.18743 368.824 5.68171 368.824C6.17599 368.824 6.57813 368.425 6.57813 367.935Z" fill="#666666"/>
<path d="M6.57813 382.072C6.57813 381.582 6.17599 381.183 5.68171 381.183C5.18743 381.183 4.7853 381.582 4.7853 382.072C4.7853 382.562 5.18743 382.961 5.68171 382.961C6.17599 382.961 6.57813 382.562 6.57813 382.072Z" fill="#666666"/>
<path d="M6.57422 396.205C6.57422 395.715 6.17209 395.316 5.67781 395.316C5.18353 395.316 4.7814 395.715 4.7814 396.205C4.7814 396.695 5.18353 397.094 5.67781 397.094C6.17209 397.094 6.57422 396.695 6.57422 396.205Z" fill="#666666"/>
<path d="M63.6055 396.205C63.6055 395.715 63.2033 395.316 62.7091 395.316C62.2148 395.316 61.8126 395.715 61.8126 396.205C61.8126 396.695 62.2148 397.094 62.7091 397.094C63.2033 397.094 63.6055 396.695 63.6055 396.205Z" fill="#666666"/>
<path d="M77.8555 396.205C77.8555 395.715 77.4533 395.316 76.9591 395.316C76.4648 395.316 76.0626 395.715 76.0626 396.205C76.0626 396.695 76.4648 397.094 76.9591 397.094C77.4533 397.094 77.8555 396.695 77.8555 396.205Z" fill="#666666"/>
<path d="M92.1133 396.205C92.1133 395.715 91.7112 395.316 91.2169 395.316C90.7226 395.316 90.3205 395.715 90.3205 396.205C90.3205 396.695 90.7226 397.094 91.2169 397.094C91.7112 397.094 92.1133 396.695 92.1133 396.205Z" fill="#666666"/>
<path d="M106.371 396.205C106.371 395.715 105.969 395.316 105.475 395.316C104.98 395.316 104.578 395.715 104.578 396.205C104.578 396.695 104.98 397.094 105.475 397.094C105.969 397.094 106.371 396.695 106.371 396.205Z" fill="#666666"/>
<path d="M120.621 396.205C120.621 395.715 120.219 395.316 119.725 395.316C119.23 395.316 118.828 395.715 118.828 396.205C118.828 396.695 119.23 397.094 119.725 397.094C120.219 397.094 120.621 396.695 120.621 396.205Z" fill="#666666"/>
<path d="M134.879 396.205C134.879 395.715 134.477 395.316 133.982 395.316C133.488 395.316 133.086 395.715 133.086 396.205C133.086 396.695 133.488 397.094 133.982 397.094C134.477 397.094 134.879 396.695 134.879 396.205Z" fill="#666666"/>
<path d="M149.141 396.205C149.141 395.715 148.738 395.316 148.244 395.316C147.75 395.316 147.348 395.715 147.348 396.205C147.348 396.695 147.75 397.094 148.244 397.094C148.738 397.094 149.141 396.695 149.141 396.205Z" fill="#666666"/>
<path d="M163.391 396.205C163.391 395.715 162.988 395.316 162.494 395.316C162 395.316 161.598 395.715 161.598 396.205C161.598 396.695 162 397.094 162.494 397.094C162.988 397.094 163.391 396.695 163.391 396.205Z" fill="#666666"/>
</g>
</g>
<defs>
<linearGradient id="paint0_linear_36533_448010" x1="480.422" y1="184.593" x2="236.166" y2="402.031" gradientUnits="userSpaceOnUse">
<stop/>
<stop offset="1" stop-color="#3C3C3C"/>
</linearGradient>
<linearGradient id="paint1_linear_36533_448010" x1="415.011" y1="568.009" x2="81.6058" y2="433.197" gradientUnits="userSpaceOnUse">
<stop stop-color="#3C3C3C"/>
<stop offset="1"/>
</linearGradient>
<linearGradient id="paint2_linear_36533_448010" x1="796.797" y1="205.971" x2="314.99" y2="667.121" gradientUnits="userSpaceOnUse">
<stop stop-color="#3C3C3C"/>
<stop offset="1"/>
</linearGradient>
<linearGradient id="paint3_linear_36533_448010" x1="836.882" y1="316.189" x2="275.669" y2="316.189" gradientUnits="userSpaceOnUse">
<stop/>
<stop offset="1" stop-color="#3C3C3C"/>
</linearGradient>
<linearGradient id="paint4_linear_36533_448010" x1="644.922" y1="133.977" x2="290.922" y2="-13.523" gradientUnits="userSpaceOnUse">
<stop stop-color="#3C3C3C"/>
<stop offset="1"/>
</linearGradient>
<linearGradient id="paint5_linear_36533_448010" x1="248.919" y1="165.264" x2="248.918" y2="630.754" gradientUnits="userSpaceOnUse">
<stop/>
<stop offset="1" stop-color="#3C3C3C"/>
</linearGradient>
<linearGradient id="paint6_linear_36533_448010" x1="212.566" y1="223.433" x2="706.017" y2="223.433" gradientUnits="userSpaceOnUse">
<stop stop-color="#3C3C3C"/>
<stop offset="1"/>
</linearGradient>
<linearGradient id="paint7_linear_36533_448010" x1="190.078" y1="286.407" x2="434.334" y2="68.9685" gradientUnits="userSpaceOnUse">
<stop/>
<stop offset="1" stop-color="#3C3C3C"/>
</linearGradient>
<linearGradient id="paint8_linear_36533_448010" x1="255.489" y1="-97.0092" x2="588.894" y2="37.8029" gradientUnits="userSpaceOnUse">
<stop stop-color="#3C3C3C"/>
<stop offset="1"/>
</linearGradient>
<linearGradient id="paint9_linear_36533_448010" x1="-126.297" y1="265.029" x2="355.51" y2="-196.121" gradientUnits="userSpaceOnUse">
<stop stop-color="#3C3C3C"/>
<stop offset="1"/>
</linearGradient>
<linearGradient id="paint10_linear_36533_448010" x1="-166.382" y1="154.811" x2="394.831" y2="154.811" gradientUnits="userSpaceOnUse">
<stop/>
<stop offset="1" stop-color="#3C3C3C"/>
</linearGradient>
<linearGradient id="paint11_linear_36533_448010" x1="311.5" y1="468" x2="4.99978" y2="273" gradientUnits="userSpaceOnUse">
<stop stop-color="#3C3C3C"/>
<stop offset="1"/>
</linearGradient>
<linearGradient id="paint12_linear_36533_448010" x1="421.581" y1="305.736" x2="421.582" y2="-159.754" gradientUnits="userSpaceOnUse">
<stop/>
<stop offset="1" stop-color="#3C3C3C"/>
</linearGradient>
<linearGradient id="paint13_linear_36533_448010" x1="457.934" y1="247.567" x2="-35.5166" y2="247.567" gradientUnits="userSpaceOnUse">
<stop stop-color="#3C3C3C"/>
<stop offset="1"/>
</linearGradient>
<clipPath id="clip0_36533_448010">
<rect width="761" height="468" fill="white"/>
</clipPath>
</defs>
</svg>
